<?xml version="1.0" encoding="utf-8"?>
<!-- Generator: Adobe Illustrator 25.3.1, SVG Export Plug-In . SVG Version: 6.00 Build 0)  -->
<svg version="1.2" baseProfile="tiny" xmlns="http://www.w3.org/2000/svg" xmlns:xlink="http://www.w3.org/1999/xlink" x="0px"
	 y="0px" viewBox="0 0 500 500" overflow="visible" xml:space="preserve">
<g id="Ebene_2" display="none">
	<rect display="inline" fill="#161618" width="500" height="500"/>
</g>
<g id="Ebene_3" display="none">
	<rect y="0" display="inline" fill="#FF6961" width="500" height="500"/>
</g>
<g id="Ebene_4" display="none">
</g>
<g id="Ebene_3_Kopie" display="none">
	<path display="inline" fill="#FF6961" d="M250,500L250,500C111.9,500,0,388.1,0,250v0C0,111.9,111.9,0,250,0h0
		c138.1,0,250,111.9,250,250v0C500,388.1,388.1,500,250,500z"/>
</g>
<g id="Ebene_1">
	<g>
		<g>
			<path fill="#E0DEDC" d="M204.7,146c0,0-61.6-10.9-76.7,54.7c-15.9,68.8,36.7,63.5,36.7,63.5L204.7,146z"/>
			<g>
				<path fill="#040000" stroke="#040000" stroke-width="1.8339" stroke-miterlimit="10" d="M144,176.2
					c-11.6-0.4-21.1,35.1-17.8,47.9c1.2,4.8,13.6,8.6,19-5C149.2,209.2,158.5,176.6,144,176.2z"/>
				<path fill="#FFFFFF" d="M135.5,186.8c-2.6-0.8-5.4,6.1-6.4,8.6c-2.4,7.2,2.9,6.9,6,2.7C136.7,196,138.1,187.8,135.5,186.8z"/>
			</g>
			<path fill="#E0DEDC" d="M299.1,98.7c-31.1,2.3-103.5,38.8-68,128.1c12.4,31.3,142.3,14,143.9-73.4
				C375.5,116.9,326.6,96.7,299.1,98.7z"/>
			<path fill="#040000" stroke="#040000" stroke-width="1.8339" stroke-miterlimit="10" d="M261,129.5
				c-29.1,2.6-36.2,43.8-25.3,53.5c6.1,5.4,27.3,11.7,38.8-25.8C278.2,145.1,271.8,128.4,261,129.5z"/>
			<path fill="#FFFFFF" d="M249.9,137.1c-4.2-1.2-12,9.5-9.7,14c0.8,1.6,4.4,3.9,7.2,1.8C250.5,150.4,258.2,139.4,249.9,137.1z"/>
			<path fill="#B8937F" d="M213,236c-54-10.6-60.7,47.5-41.8,57.4c13.7,7.3,52.8-4.8,59.3-18.2C236.9,261.5,240.8,241.4,213,236z"/>
			<path fill="#040000" d="M176.8,230.9c-17,5.8-16,34.5-6.9,35.4c10.3,1,28.6-20,32.9-28.4C206.1,231.6,183.6,228.6,176.8,230.9z"
				/>
			<path fill="#E0DEDC" d="M182.9,290.1c-4.4,1.9-3.9,25.6,4.5,29.2c26.7,11.3,28.4-27.7,23.3-33.9
				C206.7,280.6,185.9,288.7,182.9,290.1z"/>
		</g>
	</g>
</g>
</svg>
