<?xml version="1.0" encoding="UTF-8" standalone="no"?>
<svg
   xmlns:dc="http://purl.org/dc/elements/1.1/"
   xmlns:cc="http://creativecommons.org/ns#"
   xmlns:rdf="http://www.w3.org/1999/02/22-rdf-syntax-ns#"
   xmlns:svg="http://www.w3.org/2000/svg"
   xmlns="http://www.w3.org/2000/svg"
   xmlns:sodipodi="http://sodipodi.sourceforge.net/DTD/sodipodi-0.dtd"
   xmlns:inkscape="http://www.inkscape.org/namespaces/inkscape"
   version="1.1"
   id="svg10"
   xml:space="preserve"
   width="87.208015"
   height="87.207504"
   viewBox="0 0 87.208016 87.207505"
   sodipodi:docname="favicon.svg"
   inkscape:version="1.0.1 (3bc2e813f5, 2020-09-07)"><metadata
     id="metadata16"><rdf:RDF><cc:Work
         rdf:about=""><dc:format>image/svg+xml</dc:format><dc:type
           rdf:resource="http://purl.org/dc/dcmitype/StillImage" /><dc:title></dc:title></cc:Work></rdf:RDF></metadata><defs
     id="defs14"><clipPath
       clipPathUnits="userSpaceOnUse"
       id="clipPath26"><path
         d="M 0,65.886 H 86.704 V 0 H 0 Z"
         id="path24" /></clipPath></defs><sodipodi:namedview
     pagecolor="#ffffff"
     bordercolor="#666666"
     borderopacity="1"
     objecttolerance="10"
     gridtolerance="10"
     guidetolerance="10"
     inkscape:pageopacity="0"
     inkscape:pageshadow="2"
     inkscape:window-width="2560"
     inkscape:window-height="1017"
     id="namedview12"
     showgrid="false"
     inkscape:zoom="4.6614466"
     inkscape:cx="32.418823"
     inkscape:cy="38.6044"
     inkscape:window-x="-8"
     inkscape:window-y="32"
     inkscape:window-maximized="1"
     inkscape:current-layer="g22" /><g
     id="g18"
     inkscape:groupmode="layer"
     inkscape:label="Logo_rgb"
     transform="matrix(1.3333333,0,0,-1.3333333,-2.328085e-7,87.847998)"><g
       id="g20"><g
         id="g22"
         clip-path="url(#clipPath26)"><g
           id="g28"
           transform="translate(32.703508,1.0744389)"
           style="fill:#db5a40;fill-opacity:1;stroke:none"><path
             d="m 0,0 c 0.867,0.899 2.62,0.997 3.595,0.203 1.017,-0.766 2.836,-0.46 3.551,0.597 0.665,1.072 2.332,1.553 3.46,0.996 1.161,-0.519 2.866,0.186 3.327,1.377 0.392,1.188 1.93,2.04 3.15,1.747 1.243,-0.25 2.763,0.83 2.935,2.085 0.124,1.249 1.435,2.421 2.686,2.399 1.275,0.044 2.503,1.42 2.399,2.686 -0.151,1.251 0.856,2.667 2.085,2.936 1.231,0.318 2.126,1.93 1.747,3.149 -0.432,1.173 0.239,2.796 1.377,3.327 1.129,0.581 1.646,2.375 0.996,3.46 -0.683,1.049 -0.391,2.781 0.598,3.552 0.97,0.818 1.074,2.66 0.202,3.595 -0.898,0.867 -0.996,2.621 -0.202,3.594 0.765,1.018 0.459,2.838 -0.598,3.552 -1.072,0.666 -1.553,2.333 -0.996,3.461 0.518,1.16 -0.186,2.865 -1.377,3.327 -1.188,0.392 -2.04,1.93 -1.747,3.149 0.25,1.243 -0.83,2.763 -2.085,2.935 -1.249,0.124 -2.42,1.436 -2.399,2.686 -0.044,1.275 -1.418,2.504 -2.686,2.399 -1.25,-0.15 -2.666,0.856 -2.935,2.086 -0.319,1.231 -1.931,2.126 -3.15,1.746 -1.172,-0.432 -2.796,0.24 -3.327,1.377 -0.581,1.129 -2.374,1.647 -3.46,0.996 C 6.098,62.735 4.366,63.026 3.595,64.016 2.777,64.985 0.934,65.089 0,64.218 c -0.867,-0.899 -2.622,-0.997 -3.596,-0.202 -1.016,0.764 -2.836,0.459 -3.551,-0.599 -0.665,-1.07 -2.332,-1.552 -3.46,-0.996 -1.161,0.519 -2.866,-0.186 -3.327,-1.377 -0.392,-1.187 -1.93,-2.04 -3.149,-1.746 -1.243,0.25 -2.764,-0.831 -2.936,-2.086 -0.124,-1.249 -1.435,-2.42 -2.686,-2.399 -1.275,-0.043 -2.503,-1.418 -2.399,-2.686 0.15,-1.25 -0.856,-2.666 -2.085,-2.935 -1.232,-0.318 -2.127,-1.93 -1.746,-3.149 0.431,-1.172 -0.241,-2.796 -1.378,-3.327 -1.128,-0.581 -1.646,-2.375 -0.996,-3.461 0.683,-1.048 0.391,-2.78 -0.598,-3.552 -0.97,-0.816 -1.074,-2.66 -0.202,-3.594 0.899,-0.866 0.996,-2.621 0.202,-3.595 -0.765,-1.017 -0.459,-2.837 0.598,-3.552 1.071,-0.665 1.553,-2.332 0.996,-3.46 -0.519,-1.16 0.186,-2.865 1.378,-3.327 1.187,-0.392 2.039,-1.93 1.746,-3.149 -0.251,-1.242 0.83,-2.763 2.085,-2.936 1.249,-0.123 2.421,-1.435 2.399,-2.686 0.043,-1.275 1.418,-2.503 2.686,-2.399 1.251,0.151 2.666,-0.855 2.936,-2.085 0.317,-1.231 1.93,-2.126 3.149,-1.747 1.172,0.432 2.796,-0.24 3.327,-1.377 0.581,-1.128 2.374,-1.647 3.46,-0.996 1.048,0.683 2.78,0.391 3.551,-0.597 C -2.778,-0.767 -0.935,-0.872 0,0"
             style="fill:#db5a40;fill-opacity:1;fill-rule:nonzero;stroke:none;stroke-width:0.48;stroke-linecap:butt;stroke-linejoin:miter;stroke-miterlimit:4;stroke-dasharray:none;stroke-opacity:1"
             id="path30" /></g></g></g></g></svg>
