<?xml version="1.0" encoding="UTF-8" standalone="no"?>
<svg
   xmlns:dc="http://purl.org/dc/elements/1.1/"
   xmlns:cc="http://creativecommons.org/ns#"
   xmlns:rdf="http://www.w3.org/1999/02/22-rdf-syntax-ns#"
   xmlns:svg="http://www.w3.org/2000/svg"
   xmlns="http://www.w3.org/2000/svg"
   version="1.1"
   id="svg10"
   xml:space="preserve"
   width="115.60547"
   height="87.848267"
   viewBox="0 0 115.60547 87.848267"><metadata
     id="metadata16"><rdf:RDF><cc:Work
         rdf:about=""><dc:format>image/svg+xml</dc:format><dc:type
           rdf:resource="http://purl.org/dc/dcmitype/StillImage" /><dc:title></dc:title></cc:Work></rdf:RDF></metadata><defs
     id="defs14"><clipPath
       clipPathUnits="userSpaceOnUse"
       id="clipPath26"><path
         d="M 0,65.886 H 86.704 V 0 H 0 Z"
         id="path24" /></clipPath></defs><g
     id="g18"
     transform="matrix(1.3333333,0,0,-1.3333333,0,87.848267)"><g
       id="g20"><g
         id="g22"
         clip-path="url(#clipPath26)"><g
           id="g28"
           transform="translate(43.1323,0.8335)"><path
             d="m 0,0 c 0.867,0.899 2.62,0.997 3.595,0.203 1.017,-0.766 2.836,-0.46 3.551,0.597 0.665,1.072 2.332,1.553 3.46,0.996 1.161,-0.519 2.866,0.186 3.327,1.377 0.392,1.188 1.93,2.04 3.15,1.747 1.243,-0.25 2.763,0.83 2.935,2.085 0.124,1.249 1.435,2.421 2.686,2.399 1.275,0.044 2.503,1.42 2.399,2.686 -0.151,1.251 0.856,2.667 2.085,2.936 1.231,0.318 2.126,1.93 1.747,3.149 -0.432,1.173 0.239,2.796 1.377,3.327 1.129,0.581 1.646,2.375 0.996,3.46 -0.683,1.049 -0.391,2.781 0.598,3.552 0.97,0.818 1.074,2.66 0.202,3.595 -0.898,0.867 -0.996,2.621 -0.202,3.594 0.765,1.018 0.459,2.838 -0.598,3.552 -1.072,0.666 -1.553,2.333 -0.996,3.461 0.518,1.16 -0.186,2.865 -1.377,3.327 -1.188,0.392 -2.04,1.93 -1.747,3.149 0.25,1.243 -0.83,2.763 -2.085,2.935 -1.249,0.124 -2.42,1.436 -2.399,2.686 -0.044,1.275 -1.418,2.504 -2.686,2.399 -1.25,-0.15 -2.666,0.856 -2.935,2.086 -0.319,1.231 -1.931,2.126 -3.15,1.746 -1.172,-0.432 -2.796,0.24 -3.327,1.377 -0.581,1.129 -2.374,1.647 -3.46,0.996 C 6.098,62.735 4.366,63.026 3.595,64.016 2.777,64.985 0.934,65.089 0,64.218 c -0.867,-0.899 -2.622,-0.997 -3.596,-0.202 -1.016,0.764 -2.836,0.459 -3.551,-0.599 -0.665,-1.07 -2.332,-1.552 -3.46,-0.996 -1.161,0.519 -2.866,-0.186 -3.327,-1.377 -0.392,-1.187 -1.93,-2.04 -3.149,-1.746 -1.243,0.25 -2.764,-0.831 -2.936,-2.086 -0.124,-1.249 -1.435,-2.42 -2.686,-2.399 -1.275,-0.043 -2.503,-1.418 -2.399,-2.686 0.15,-1.25 -0.856,-2.666 -2.085,-2.935 -1.232,-0.318 -2.127,-1.93 -1.746,-3.149 0.431,-1.172 -0.241,-2.796 -1.378,-3.327 -1.128,-0.581 -1.646,-2.375 -0.996,-3.461 0.683,-1.048 0.391,-2.78 -0.598,-3.552 -0.97,-0.816 -1.074,-2.66 -0.202,-3.594 0.899,-0.866 0.996,-2.621 0.202,-3.595 -0.765,-1.017 -0.459,-2.837 0.598,-3.552 1.071,-0.665 1.553,-2.332 0.996,-3.46 -0.519,-1.16 0.186,-2.865 1.378,-3.327 1.187,-0.392 2.039,-1.93 1.746,-3.149 -0.251,-1.242 0.83,-2.763 2.085,-2.936 1.249,-0.123 2.421,-1.435 2.399,-2.686 0.043,-1.275 1.418,-2.503 2.686,-2.399 1.251,0.151 2.666,-0.855 2.936,-2.085 0.317,-1.231 1.93,-2.126 3.149,-1.747 1.172,0.432 2.796,-0.24 3.327,-1.377 0.581,-1.128 2.374,-1.647 3.46,-0.996 1.048,0.683 2.78,0.391 3.551,-0.597 C -2.778,-0.767 -0.935,-0.872 0,0"
             style="fill:#6eaabe;fill-opacity:1;fill-rule:nonzero;stroke:#6eaabe;stroke-width:0.48;stroke-linecap:butt;stroke-linejoin:miter;stroke-miterlimit:4;stroke-dasharray:none;stroke-opacity:1"
             id="path30" /></g><g
           id="g32"
           transform="translate(43.4429,4.9463)"><path
             d="M 0,0 C 15.462,0 27.996,12.534 27.996,27.996 27.996,43.458 15.462,55.992 0,55.992 -15.46,55.992 -27.996,43.458 -27.996,27.996 -27.996,12.534 -15.46,0 0,0 Z"
             style="fill:none;stroke:#ffffff;stroke-width:0.88;stroke-linecap:butt;stroke-linejoin:miter;stroke-miterlimit:4;stroke-dasharray:none;stroke-opacity:1"
             id="path34" /></g><g
           id="g36"
           transform="translate(43.4429,7.1104)"><path
             d="M 0,0 C 14.268,0 25.833,11.564 25.833,25.832 25.833,40.099 14.268,51.665 0,51.665 -14.267,51.665 -25.832,40.099 -25.832,25.832 -25.832,11.564 -14.267,0 0,0 Z"
             style="fill:none;stroke:#ffffff;stroke-width:0.418;stroke-linecap:butt;stroke-linejoin:miter;stroke-miterlimit:4;stroke-dasharray:none;stroke-opacity:1"
             id="path38" /></g><g
           id="g40"
           transform="translate(33.2676,35.5356)"><path
             d="m 0,0 -0.143,-0.071 v -0.091 l 0.182,0.078 z m -3.519,-2.962 -0.136,-0.324 0.091,-0.039 0.136,0.363 z M -3.61,-3.448 h -0.109 l 0.064,-0.407 h 0.103 z m -2.536,-0.226 -0.207,0.07 -0.031,-0.083 0.238,-0.078 z M -0.01,0.877 C -0.141,0.788 -0.227,0.716 -0.265,0.66 -0.145,0.776 -0.056,0.835 0,0.835 c 0.095,0 0.14,-0.02 0.136,-0.059 0,0.09 0.026,0.162 0.077,0.214 C 0.196,1.003 0.122,0.965 -0.01,0.877 M 1.164,2.581 C 1.117,2.762 1.024,2.975 0.886,3.218 0.748,3.462 0.655,3.584 0.607,3.584 0.561,3.584 0.542,3.573 0.549,3.552 0.559,3.53 0.539,3.519 0.492,3.519 0.518,3.519 0.461,3.584 0.323,3.713 0.16,3.868 -0.067,4 -0.356,4.108 c -0.478,0.176 -0.787,0.265 -0.925,0.265 -0.043,0 -0.094,-0.02 -0.152,-0.059 -0.058,-0.038 -0.109,-0.058 -0.152,-0.058 -0.043,0 -0.134,0.02 -0.272,0.058 -0.138,0.039 -0.231,0.059 -0.278,0.059 -0.741,0 -1.511,-0.264 -2.309,-0.789 C -5.221,3.071 -5.75,2.497 -6.035,1.863 -6.027,1.769 -6.063,1.63 -6.146,1.449 -6.227,1.268 -6.262,1.046 -6.249,0.783 c 0.052,0 0.104,0.02 0.159,0.058 0.054,0.039 0.086,0.058 0.093,0.058 0.039,-0.039 0.055,-0.073 0.046,-0.103 0.013,-0.289 0.046,-0.491 0.1,-0.605 0.054,-0.115 0.081,-0.185 0.081,-0.211 0,-0.06 -0.015,-0.082 -0.045,-0.064 -0.065,0.03 -0.111,0.045 -0.136,0.045 0.19,-0.19 0.321,-0.284 0.394,-0.284 0.129,0 0.466,0.107 1.009,0.323 -0.069,0.246 -0.119,0.457 -0.148,0.634 -0.009,0.021 -0.078,0.103 -0.208,0.246 -0.09,0.099 -0.135,0.287 -0.135,0.562 0,0.566 0.343,1.121 1.028,1.669 0.647,0.518 1.251,0.777 1.812,0.777 0.638,0 1.123,-0.072 1.455,-0.213 C -0.187,3.428 0.091,2.971 0.091,2.303 0.091,1.941 0.024,1.587 -0.11,1.242 -0.158,1.122 -0.304,0.895 -0.55,0.563 -0.774,0.261 -0.886,0.087 -0.886,0.039 c 0,-0.091 0.071,-0.174 0.214,-0.253 0.129,-0.073 0.262,-0.109 0.4,-0.109 0.139,0 0.376,0.125 0.712,0.378 0.336,0.253 0.504,0.452 0.504,0.598 0,0.043 -0.017,0.099 -0.051,0.168 -0.035,0.07 -0.052,0.117 -0.052,0.143 0,0.017 0.007,0.034 0.019,0.052 0.082,-0.091 0.145,-0.16 0.188,-0.207 0.176,0.569 0.265,0.933 0.265,1.094 0,0.098 -0.05,0.325 -0.149,0.678 M 0.763,2.173 0.679,2.212 0.757,2.368 0.848,2.335 Z M 0.162,0.207 V 0.292 L 0.304,0.368 0.343,0.278 Z M -1.617,0.156 -1.701,0.194 -1.624,0.35 -1.533,0.317 Z M -4.464,0.039 c -0.069,0.22 -0.116,0.399 -0.141,0.537 0.072,0 0.171,-0.063 0.296,-0.188 V 0.181 Z M -6.101,1.495 H -5.99 V 1.21 H -6.101 Z M -6.035,1.19 h 0.104 V 1.028 h -0.104 z m 4.748,-0.22 c -0.121,-0.802 -0.242,-1.604 -0.362,-2.406 -0.199,-0.966 -0.533,-1.706 -1.003,-2.222 -0.471,-0.516 -0.951,-0.878 -1.443,-1.09 -0.436,-0.185 -0.952,-0.277 -1.552,-0.277 -0.488,0 -0.899,0.089 -1.235,0.271 -0.44,0.241 -0.66,0.608 -0.66,1.099 0,0.164 0.159,0.387 0.478,0.667 0.302,0.271 0.52,0.407 0.654,0.407 0.03,0 0.047,-0.009 0.052,-0.026 0,-0.004 -0.009,-0.016 -0.023,-0.035 -0.015,-0.02 -0.023,-0.034 -0.023,-0.043 0.005,-0.012 0.022,-0.02 0.051,-0.02 0.036,0 0.055,0.01 0.059,0.026 0,0.005 -0.003,0.016 -0.01,0.033 -0.007,0.018 -0.009,0.027 -0.009,0.033 0,0.017 0.019,0.025 0.058,0.025 h 0.233 c 0.03,-0.117 0.045,-0.254 0.045,-0.413 0,-0.108 -0.009,-0.263 -0.026,-0.463 -0.017,-0.2 -0.026,-0.342 -0.026,-0.423 0,-0.432 0.209,-0.648 0.628,-0.648 0.715,0 1.235,0.488 1.559,1.462 0,-0.125 0.019,-0.207 0.058,-0.245 0.048,0.038 0.071,0.082 0.071,0.129 0,0.035 -0.016,0.091 -0.048,0.168 -0.032,0.078 -0.045,0.134 -0.036,0.168 0.159,0.733 0.28,1.284 0.361,1.65 0.178,1.151 0.279,1.783 0.305,1.895 0.094,0.388 0.261,0.757 0.498,1.106 0.134,0.198 0.393,0.438 0.776,0.719 0.414,0.301 0.728,0.452 0.939,0.452 0.172,0 0.306,-0.093 0.4,-0.278 C -0.879,2.398 -1.136,1.825 -1.287,0.97 M -6.101,0.11 -6.158,0.518 h 0.103 L -5.99,0.11 Z M 5.31,-4.605 5.149,-4.683 V -4.788 L 5.35,-4.703 Z M 1.688,-4.742 1.649,-4.838 1.896,-4.961 1.934,-4.864 Z m 5.628,1.748 C 7.139,-3.051 6.954,-3.215 6.759,-3.486 6.652,-3.66 6.542,-3.833 6.43,-4.011 6.378,-3.976 6.353,-3.887 6.353,-3.745 6.149,-3.879 5.962,-3.946 5.79,-3.946 c -0.16,0 -0.24,0.228 -0.24,0.685 0,0.285 0.123,0.874 0.368,1.767 0.226,0.793 0.44,1.477 0.648,2.05 H 6.139 C 6.087,0.561 5.925,0.479 5.654,0.31 5.292,0.09 5.042,-0.052 4.903,-0.117 4.77,0.03 4.636,0.179 4.502,0.33 4.312,0.533 4.082,0.634 3.81,0.634 3.784,0.634 3.545,0.558 3.092,0.408 3.243,0.105 3.32,-0.047 3.325,-0.052 3.338,-0.043 3.398,0 3.506,0.078 c 0.073,0.051 0.14,0.078 0.201,0.078 0.5,0 0.75,-0.468 0.75,-1.404 0,-0.065 -0.041,-0.175 -0.124,-0.331 C 4.222,-1.79 4.155,-1.925 4.134,-1.986 4.021,-2.287 3.939,-2.514 3.887,-2.665 3.948,-2.708 3.961,-2.746 3.927,-2.774 3.922,-2.774 3.732,-3.005 3.357,-3.467 3.098,-3.786 2.85,-3.946 2.613,-3.946 2.45,-3.946 2.292,-3.882 2.142,-3.751 2.214,-3.825 2.223,-3.889 2.167,-3.946 2.042,-3.833 1.97,-3.698 1.954,-3.538 1.937,-3.399 1.921,-3.263 1.908,-3.124 1.865,-3.15 1.82,-3.208 1.772,-3.299 1.725,-3.389 1.677,-3.445 1.63,-3.467 1.471,-3.381 1.345,-3.34 1.255,-3.344 c 0.073,-0.073 0.06,-0.159 -0.039,-0.26 -0.039,0.058 -0.08,0.15 -0.123,0.279 -0.031,0.086 -0.071,0.143 -0.123,0.168 l 0.104,0.103 c 0.12,-0.068 0.218,-0.114 0.291,-0.135 0,0.255 0.06,0.504 0.181,0.751 0,-0.053 -0.019,-0.099 -0.059,-0.143 -0.043,0.044 -0.064,0.136 -0.064,0.278 -0.056,-0.115 -0.173,-0.174 -0.349,-0.174 0.026,0 0.056,-0.024 0.09,-0.072 0.04,-0.073 0.067,-0.116 0.085,-0.13 L 1.158,-2.788 c 0,0.035 -0.084,0.052 -0.253,0.052 C 0.979,-2.81 0.992,-2.87 0.944,-2.917 0.94,-2.913 0.888,-2.823 0.79,-2.646 0.737,-2.56 0.686,-2.504 0.634,-2.477 c 0.146,0.042 0.248,0.063 0.304,0.063 0.039,0.178 0.104,0.26 0.194,0.247 0.038,-0.039 0.056,-0.074 0.052,-0.106 -0.005,-0.033 0.02,-0.039 0.071,-0.017 0.082,0.035 0.146,0.052 0.194,0.052 0.081,0 0.168,-0.044 0.258,-0.13 -0.004,0.031 -0.005,0.061 -0.005,0.091 0,0.121 0.033,0.241 0.103,0.362 0.038,0.065 0.079,0.13 0.122,0.194 l -0.135,0.137 c 0.021,0.021 0.061,0.037 0.12,0.048 0.057,0.011 0.098,0.027 0.119,0.048 0.022,-0.021 0.05,-0.048 0.084,-0.08 C 2.149,-1.601 2.18,-1.627 2.206,-1.649 2.111,-1.705 2.018,-1.798 1.927,-1.927 1.837,-2.057 1.792,-2.161 1.792,-2.238 c 0,-0.112 0.034,-0.203 0.104,-0.272 0.099,0.099 0.152,0.15 0.161,0.15 0,0.245 0.125,0.651 0.376,1.215 0,-0.099 -0.057,-0.148 -0.169,-0.148 0.013,0.189 0.154,0.415 0.424,0.675 0.27,0.261 0.404,0.451 0.404,0.566 0,0.061 -0.026,0.144 -0.077,0.253 C 2.962,0.308 2.937,0.382 2.937,0.42 1.937,-0.067 1.457,-0.477 1.5,-0.808 1.454,-0.774 1.43,-0.704 1.43,-0.602 1.409,-0.631 1.311,-0.748 1.139,-0.951 1.009,-1.11 0.931,-1.229 0.905,-1.306 0.905,-1.35 0.951,-1.418 1.042,-1.513 0.83,-1.587 0.681,-1.709 0.595,-1.882 0.544,-2.047 0.493,-2.208 0.446,-2.368 c 0.082,0.082 0.123,0.076 0.123,-0.019 -0.06,-0.03 -0.095,-0.082 -0.103,-0.155 -0.009,-0.069 0.002,-0.104 0.033,-0.104 0.046,0 0.07,-0.028 0.07,-0.083 -0.185,-0.121 -0.278,-0.333 -0.278,-0.635 0,-0.047 0.025,-0.174 0.075,-0.381 0.049,-0.208 0.074,-0.36 0.074,-0.46 0.16,0 0.291,-0.06 0.395,-0.18 -0.066,-0.1 -0.109,-0.175 -0.13,-0.228 0.164,0.049 0.279,0.072 0.343,0.072 -0.043,-0.06 -0.064,-0.116 -0.064,-0.167 0,-0.087 0.068,-0.171 0.206,-0.253 l 0.188,-0.143 c 0.142,0.043 0.394,0.05 0.756,0.02 -0.077,0.064 -0.119,0.145 -0.122,0.239 0,0.091 0.031,0.159 0.097,0.207 -0.066,0.013 -0.097,0.042 -0.097,0.091 0,0.038 0.026,0.105 0.077,0.2 0.053,0.096 0.082,0.162 0.091,0.201 0.017,-0.017 0.041,-0.059 0.071,-0.123 0.026,-0.047 0.052,-0.071 0.077,-0.071 0,0.086 0.033,0.129 0.097,0.129 0.043,-0.056 0.085,-0.112 0.124,-0.168 0.004,-0.083 0.008,-0.166 0.013,-0.252 L 2.419,-4.502 C 2.523,-4.61 2.534,-4.74 2.452,-4.89 c 0.163,0.133 0.272,0.244 0.323,0.33 0.043,-0.039 0.082,-0.045 0.117,-0.02 -0.143,0.087 -0.236,0.154 -0.279,0.201 l 0.045,0.233 c 0.147,-0.065 0.246,-0.105 0.298,-0.123 0,-0.069 -0.045,-0.104 -0.136,-0.104 0.073,-0.077 0.158,-0.116 0.253,-0.116 l 0.931,1.164 C 4.03,-3.45 4.051,-3.662 4.068,-3.959 4.082,-4.218 4.104,-4.387 4.134,-4.469 4.297,-4.893 4.586,-5.104 5,-5.104 c 0.379,0 0.761,0.16 1.145,0.479 0.388,0.345 0.778,0.692 1.171,1.041 z m -5.641,0.549 c 0,-0.069 -0.02,-0.17 -0.061,-0.301 -0.041,-0.131 -0.061,-0.224 -0.061,-0.275 0,0.044 0.023,0.078 0.071,0.104 l 0.142,-0.137 c 0.108,0.182 0.183,0.335 0.227,0.461 -0.113,0 -0.218,0.049 -0.318,0.148 M 0.867,-2.483 0.835,-2.588 1.009,-2.671 1.048,-2.574 Z M 3.92,0.336 V 0.434 L 4.082,0.518 4.121,0.42 Z m 0.97,-1.268 v 0.298 C 4.951,-0.776 5.006,-0.897 5.059,-0.996 4.981,-0.953 4.925,-0.932 4.89,-0.932 M 4.703,-2.658 H 4.819 V -2.84 H 4.703 Z M 3.816,-3.065 H 3.932 V -3.318 H 3.816 Z m -2.114,2.05 H 1.819 V -1.268 H 1.702 Z m 0,-0.343 H 1.819 V -1.539 H 1.702 Z m -0.246,-0.317 0.135,0.154 c -0.091,0.074 -0.159,0.125 -0.207,0.149 0.026,0 0.071,-0.008 0.132,-0.028 0.063,-0.02 0.108,-0.03 0.133,-0.03 0,-0.103 -0.064,-0.185 -0.193,-0.245 M 1.013,-1.915 C 0.962,-1.993 0.938,-2.042 0.938,-2.063 c 0,0.012 -0.011,0.049 -0.033,0.11 -0.012,0.038 -0.006,0.058 0.02,0.058 l 0.162,0.136 c 0,-0.026 -0.025,-0.078 -0.074,-0.156 M 0.537,-2.044 H 0.654 V -2.226 H 0.537 Z m 1.21,-2.102 c 0,0.082 0.038,0.162 0.116,0.238 -0.078,0.126 -0.116,0.274 -0.116,0.441 0.017,-0.018 0.05,-0.071 0.1,-0.162 0.049,-0.091 0.1,-0.162 0.152,-0.213 C 1.891,-3.968 1.807,-4.069 1.747,-4.146 M 1.94,-4.173 v 0.104 l 0.162,0.077 0.04,-0.09 z m -0.291,0.22 -0.083,0.202 H 1.662 L 1.747,-3.913 Z M 0.673,-2.859 H 0.79 V -3.046 H 0.673 Z m 0.401,-0.699 -0.363,0.149 v 0.104 L 1.119,-3.46 Z M 1.63,-4.294 H 1.747 V -4.618 H 1.63 Z M 1.395,-4.36 C 1.332,-4.403 1.301,-4.448 1.301,-4.497 c 0.003,0 -0.081,0.008 -0.253,0.021 v 0.511 c 0.099,0.099 0.176,0.174 0.233,0.226 0.056,-0.056 0.084,-0.169 0.084,-0.336 -0.026,0.026 -0.088,-0.011 -0.188,-0.11 l 0.104,-0.098 c 0.034,0.035 0.112,0.052 0.233,0.052 C 1.497,-4.273 1.456,-4.316 1.395,-4.36 m -0.586,0.395 -0.052,0.09 0.239,0.162 0.065,-0.091 z m -0.175,0.012 -0.097,0.045 0.09,0.176 0.097,-0.039 z m 0.194,-0.323 -0.084,0.162 0.097,0.039 0.084,-0.201 z m 9.91,0.731 C 10.286,-3.868 9.958,-4.03 9.755,-4.03 c -0.108,0 -0.213,0.029 -0.311,0.084 -0.069,0.043 -0.193,0.226 -0.369,0.547 -0.177,0.322 -0.265,0.536 -0.265,0.644 0,0.339 0.078,0.648 0.233,0.924 0.194,0.242 0.347,0.413 0.459,0.512 0.005,0.003 0.007,0.079 0.007,0.226 0,0.082 0.026,0.146 0.077,0.194 0.083,0 0.123,-0.05 0.123,-0.149 0.121,0.241 0.182,0.417 0.182,0.524 0.073,0 0.109,-0.051 0.109,-0.155 0.432,0.569 0.786,1.194 1.062,1.876 0.292,0.728 0.44,1.388 0.44,1.979 0,0.729 -0.134,1.093 -0.402,1.093 -0.129,0 -0.384,-0.062 -0.763,-0.187 C 9.896,3.939 9.587,3.795 9.409,3.651 9.23,3.507 9.073,3.271 8.939,2.944 8.84,2.676 8.738,2.406 8.635,2.135 8.316,1.376 8.157,0.836 8.157,0.518 c 0,-0.057 0.017,-0.21 0.051,-0.46 0.035,-0.249 0.053,-0.412 0.053,-0.485 0,0.026 0.025,0.056 0.078,0.091 0.073,0.046 0.116,0.078 0.129,0.09 0.017,-0.104 -0.011,-0.188 -0.085,-0.252 -0.047,-0.03 -0.092,-0.06 -0.135,-0.09 -0.013,-0.324 -0.02,-0.538 -0.02,-0.641 0,-0.039 0.041,-0.53 0.123,-1.476 0.09,-1.039 0.149,-1.793 0.175,-2.263 h 0.672 c 0.255,-0.004 0.696,0.206 1.326,0.628 0.608,0.401 0.973,0.706 1.094,0.912 0.034,0.064 0.034,0.299 0,0.704 -0.151,-0.232 -0.445,-0.505 -0.88,-0.821 M 8.364,-4.567 c 0,0.013 -0.037,0.487 -0.111,1.423 -0.073,0.978 -0.109,1.699 -0.109,2.161 -0.017,0 -0.033,-0.011 -0.045,-0.032 -0.013,-0.023 -0.057,-0.033 -0.129,-0.033 -0.074,0 -0.115,0.033 -0.123,0.097 0.008,-0.082 0.012,-0.032 0.012,0.149 0.06,0.055 0.128,0.047 0.201,-0.026 0,0.125 -0.014,0.32 -0.042,0.585 C 7.99,0.022 7.976,0.216 7.976,0.336 7.864,-0.138 7.751,-0.613 7.639,-1.086 7.449,-1.915 7.355,-2.483 7.355,-2.794 c 0,-0.393 0.062,-0.777 0.187,-1.152 0.186,-0.53 0.46,-0.846 0.822,-0.95 z m 2.639,7.632 c 0,-1.189 -0.58,-2.485 -1.74,-3.886 0.19,0.987 0.349,1.712 0.479,2.173 0.233,0.819 0.534,1.546 0.905,2.18 0.112,0 0.227,-0.049 0.343,-0.149 0.009,-0.103 0.013,-0.209 0.013,-0.318 m -1.888,-4.21 v 0.11 l 0.167,0.091 0.039,-0.104 z M 8.784,-1.617 8.7,-1.274 H 8.83 L 8.914,-1.617 Z M 8.519,-1.708 8.416,-1.663 8.513,-1.475 8.616,-1.513 Z M 7.847,-2.717 c -0.091,0.026 -0.159,0.06 -0.201,0.104 0.008,0.008 0.042,0.058 0.104,0.149 0.043,0.056 0.079,0.084 0.109,0.084 C 7.851,-2.389 7.847,-2.501 7.847,-2.717 m 8.648,-1.888 -0.162,-0.078 v -0.105 l 0.201,0.085 z m -3.622,-0.137 -0.039,-0.096 0.246,-0.123 0.039,0.097 z m 5.628,1.748 c -0.177,-0.057 -0.362,-0.221 -0.557,-0.492 -0.108,-0.174 -0.217,-0.347 -0.33,-0.525 -0.052,0.035 -0.078,0.124 -0.078,0.266 -0.203,-0.134 -0.39,-0.201 -0.562,-0.201 -0.16,0 -0.24,0.228 -0.24,0.685 0,0.285 0.123,0.874 0.369,1.767 0.224,0.793 0.44,1.477 0.647,2.05 H 17.323 C 17.271,0.561 17.11,0.479 16.837,0.31 16.476,0.09 16.225,-0.052 16.087,-0.117 15.954,0.03 15.82,0.179 15.686,0.33 c -0.189,0.203 -0.419,0.304 -0.691,0.304 -0.026,0 -0.266,-0.076 -0.719,-0.226 0.151,-0.303 0.229,-0.455 0.233,-0.46 0.013,0.009 0.073,0.052 0.181,0.13 0.074,0.051 0.141,0.078 0.2,0.078 0.501,0 0.751,-0.468 0.751,-1.404 0,-0.065 -0.041,-0.175 -0.123,-0.331 -0.112,-0.211 -0.178,-0.346 -0.201,-0.407 -0.111,-0.301 -0.193,-0.528 -0.245,-0.679 0.06,-0.043 0.074,-0.081 0.038,-0.109 -0.004,0 -0.193,-0.231 -0.569,-0.693 -0.258,-0.319 -0.507,-0.479 -0.744,-0.479 -0.163,0 -0.32,0.064 -0.472,0.195 0.073,-0.074 0.083,-0.138 0.026,-0.195 -0.125,0.113 -0.196,0.248 -0.213,0.408 -0.017,0.139 -0.033,0.275 -0.046,0.414 -0.043,-0.026 -0.088,-0.084 -0.136,-0.175 -0.046,-0.09 -0.094,-0.146 -0.142,-0.168 -0.159,0.086 -0.285,0.127 -0.375,0.123 0.074,-0.073 0.061,-0.159 -0.039,-0.26 -0.038,0.058 -0.08,0.15 -0.122,0.279 -0.03,0.086 -0.072,0.143 -0.123,0.168 l 0.103,0.103 c 0.12,-0.068 0.218,-0.114 0.291,-0.135 0,0.255 0.06,0.504 0.181,0.751 0,-0.053 -0.02,-0.099 -0.058,-0.143 -0.043,0.044 -0.065,0.136 -0.065,0.278 -0.056,-0.115 -0.172,-0.174 -0.349,-0.174 0.026,0 0.055,-0.024 0.09,-0.072 0.04,-0.073 0.067,-0.116 0.085,-0.13 l -0.091,-0.109 c 0,0.035 -0.084,0.052 -0.253,0.052 0.075,-0.074 0.088,-0.134 0.039,-0.181 -0.004,0.004 -0.055,0.094 -0.155,0.271 -0.051,0.086 -0.103,0.142 -0.155,0.169 0.146,0.042 0.247,0.063 0.305,0.063 0.039,0.178 0.103,0.26 0.193,0.247 0.039,-0.039 0.056,-0.074 0.052,-0.106 -0.004,-0.033 0.02,-0.039 0.071,-0.017 0.082,0.035 0.147,0.052 0.194,0.052 0.082,0 0.169,-0.044 0.259,-0.13 -0.004,0.031 -0.007,0.061 -0.007,0.091 0,0.121 0.035,0.241 0.104,0.362 0.039,0.065 0.08,0.13 0.123,0.194 l -0.136,0.137 c 0.022,0.021 0.062,0.037 0.12,0.048 0.058,0.011 0.097,0.027 0.119,0.048 0.021,-0.021 0.049,-0.048 0.085,-0.08 0.034,-0.033 0.064,-0.059 0.091,-0.081 -0.096,-0.056 -0.188,-0.149 -0.279,-0.278 -0.09,-0.13 -0.136,-0.234 -0.136,-0.311 0,-0.112 0.035,-0.203 0.104,-0.272 0.099,0.099 0.153,0.15 0.162,0.15 0,0.245 0.124,0.651 0.374,1.215 0,-0.099 -0.056,-0.148 -0.167,-0.148 0.012,0.189 0.153,0.415 0.423,0.675 0.27,0.261 0.404,0.451 0.404,0.566 0,0.061 -0.026,0.144 -0.077,0.253 -0.053,0.107 -0.078,0.181 -0.078,0.219 -1,-0.487 -1.479,-0.897 -1.436,-1.228 -0.047,0.034 -0.071,0.104 -0.071,0.206 -0.022,-0.029 -0.119,-0.146 -0.291,-0.349 -0.13,-0.159 -0.207,-0.278 -0.234,-0.355 0,-0.044 0.046,-0.112 0.137,-0.207 -0.212,-0.074 -0.36,-0.196 -0.446,-0.369 -0.053,-0.165 -0.102,-0.326 -0.149,-0.486 0.081,0.082 0.122,0.076 0.122,-0.019 -0.06,-0.03 -0.094,-0.082 -0.103,-0.155 -0.009,-0.069 0.002,-0.104 0.032,-0.104 0.048,0 0.071,-0.028 0.071,-0.083 -0.185,-0.121 -0.277,-0.333 -0.277,-0.635 0,-0.047 0.024,-0.174 0.073,-0.381 0.05,-0.208 0.075,-0.36 0.075,-0.46 0.16,0 0.291,-0.06 0.394,-0.18 -0.064,-0.1 -0.107,-0.175 -0.128,-0.228 0.163,0.049 0.277,0.072 0.342,0.072 -0.043,-0.06 -0.065,-0.116 -0.065,-0.167 0,-0.087 0.07,-0.171 0.207,-0.253 l 0.188,-0.143 c 0.143,0.043 0.394,0.05 0.757,0.02 -0.077,0.064 -0.118,0.145 -0.123,0.239 0,0.091 0.033,0.159 0.097,0.207 -0.064,0.013 -0.097,0.042 -0.097,0.091 0,0.038 0.026,0.105 0.078,0.2 0.051,0.096 0.082,0.162 0.09,0.201 0.017,-0.017 0.041,-0.059 0.072,-0.123 0.025,-0.047 0.051,-0.071 0.076,-0.071 0,0.086 0.033,0.129 0.098,0.129 0.043,-0.056 0.084,-0.112 0.122,-0.168 0.005,-0.083 0.01,-0.166 0.014,-0.252 l -0.142,0.129 c 0.103,-0.108 0.114,-0.238 0.032,-0.388 0.164,0.133 0.271,0.244 0.323,0.33 0.043,-0.039 0.082,-0.045 0.117,-0.02 -0.142,0.087 -0.236,0.154 -0.279,0.201 l 0.046,0.233 c 0.147,-0.065 0.245,-0.105 0.298,-0.123 0,-0.069 -0.045,-0.104 -0.136,-0.104 0.073,-0.077 0.157,-0.116 0.252,-0.116 l 0.932,1.164 c 0.025,-0.125 0.047,-0.337 0.064,-0.634 0.014,-0.259 0.034,-0.428 0.064,-0.51 0.164,-0.424 0.454,-0.635 0.868,-0.635 0.378,0 0.761,0.16 1.146,0.479 0.385,0.345 0.777,0.692 1.17,1.041 z m -5.642,0.549 c 0,-0.069 -0.02,-0.17 -0.061,-0.301 -0.041,-0.131 -0.062,-0.224 -0.062,-0.275 0,0.044 0.024,0.078 0.072,0.104 l 0.143,-0.137 c 0.107,0.182 0.182,0.335 0.225,0.461 -0.112,0 -0.217,0.049 -0.317,0.148 m -0.808,-0.038 -0.033,-0.105 0.175,-0.083 0.039,0.097 z m 3.054,2.819 v 0.098 l 0.162,0.084 0.038,-0.098 z m 0.97,-1.268 v 0.298 c 0.06,-0.142 0.116,-0.263 0.168,-0.362 -0.078,0.043 -0.134,0.064 -0.168,0.064 m -0.188,-1.726 h 0.116 V -2.84 H 15.887 Z M 15,-3.065 h 0.117 V -3.318 H 15 Z m -2.115,2.05 h 0.117 v -0.253 h -0.117 z m 0,-0.343 h 0.117 v -0.181 h -0.117 z m -0.245,-0.317 0.136,0.154 c -0.091,0.074 -0.16,0.125 -0.207,0.149 0.025,0 0.07,-0.008 0.133,-0.028 0.061,-0.02 0.106,-0.03 0.132,-0.03 0,-0.103 -0.065,-0.185 -0.194,-0.245 m -0.443,-0.24 c -0.05,-0.078 -0.074,-0.127 -0.074,-0.148 0,0.012 -0.012,0.049 -0.034,0.11 -0.012,0.038 -0.006,0.058 0.02,0.058 l 0.162,0.136 c 0,-0.026 -0.025,-0.078 -0.074,-0.156 m -0.476,-0.129 h 0.117 v -0.182 h -0.117 z m 1.21,-2.102 c 0,0.082 0.038,0.162 0.116,0.238 -0.078,0.126 -0.116,0.274 -0.116,0.441 0.017,-0.018 0.05,-0.071 0.1,-0.162 0.05,-0.091 0.1,-0.162 0.153,-0.213 -0.109,-0.126 -0.193,-0.227 -0.253,-0.304 m 0.194,-0.027 v 0.104 l 0.161,0.077 0.039,-0.09 z m -0.291,0.22 -0.084,0.202 h 0.097 l 0.084,-0.162 z m -0.977,1.094 h 0.116 v -0.187 h -0.116 z m 0.401,-0.699 -0.362,0.149 v 0.104 l 0.407,-0.155 z m 0.556,-0.736 H 12.93 V -4.618 H 12.814 Z M 12.579,-4.36 c -0.063,-0.043 -0.095,-0.088 -0.095,-0.137 0.005,0 -0.079,0.008 -0.252,0.021 v 0.511 c 0.099,0.099 0.178,0.174 0.233,0.226 0.056,-0.056 0.084,-0.169 0.084,-0.336 -0.026,0.026 -0.089,-0.011 -0.187,-0.11 l 0.103,-0.098 c 0.035,0.035 0.112,0.052 0.233,0.052 -0.017,-0.042 -0.056,-0.085 -0.119,-0.129 m -0.587,0.395 -0.051,0.09 0.24,0.162 0.064,-0.091 z m -0.174,0.012 -0.097,0.045 0.091,0.176 0.097,-0.039 z m 0.194,-0.323 -0.084,0.162 0.098,0.039 0.083,-0.201 z m 6.877,-0.057 h -0.13 v -0.208 h 0.13 z m 2.923,5.109 c 0.026,-0.004 0.054,-0.039 0.085,-0.103 0.029,-0.065 0.058,-0.097 0.083,-0.097 0.043,0.082 0.073,0.149 0.091,0.2 z m 0.909,-2.846 c -0.032,0.043 -0.036,0.173 -0.01,0.388 -0.047,0.078 -0.09,0.132 -0.129,0.161 -0.021,0.23 -0.124,0.457 -0.308,0.684 C 22.092,-0.611 22,-0.485 22,-0.458 c 0,0.06 -0.007,0.165 -0.02,0.315 -0.018,0.139 -0.023,0.251 -0.019,0.337 0,-0.005 0.01,-0.028 0.032,-0.071 0.005,-0.004 -0.031,-0.007 -0.103,-0.007 -0.017,0 -0.043,0.065 -0.078,0.194 -0.043,0.156 -0.131,0.277 -0.265,0.363 0.051,-0.039 0.078,-0.104 0.078,-0.194 0,-0.099 -0.031,-0.22 -0.09,-0.363 C 21.413,0.396 21.355,0.6 21.36,0.725 21.299,0.676 21.212,0.642 21.098,0.618 20.983,0.594 20.864,0.528 20.739,0.42 20.687,0.498 20.661,0.55 20.661,0.576 20.467,0.08 20.18,-0.458 19.8,-1.041 19.36,-1.719 18.899,-2.283 18.417,-2.736 v -0.589 c 0.693,0.491 1.088,1.053 1.183,1.682 l 0.109,-0.103 c -0.038,0 -0.058,-0.093 -0.058,-0.278 0.592,0.736 0.9,1.118 0.925,1.145 0.104,-0.229 0.185,-0.409 0.24,-0.538 0.385,0.677 0.69,1.188 0.918,1.533 0.026,-0.021 0.039,-0.073 0.039,-0.155 0,-0.128 -0.101,-0.297 -0.303,-0.504 0.224,-0.113 0.351,-0.188 0.381,-0.227 -0.051,-0.099 -0.166,-0.187 -0.342,-0.265 -0.022,0.025 -0.048,0.078 -0.078,0.156 -0.031,0.077 -0.059,0.129 -0.085,0.155 -0.233,-0.47 -0.396,-0.768 -0.492,-0.893 0.147,-0.082 0.311,-0.303 0.492,-0.663 0.181,-0.36 0.272,-0.647 0.272,-0.857 0,-0.246 -0.114,-0.501 -0.343,-0.763 -0.246,-0.28 -0.513,-0.422 -0.802,-0.422 -0.249,0 -0.438,0.149 -0.562,0.447 -0.156,0.38 -0.258,0.587 -0.305,0.622 h -0.259 c -0.021,-0.022 -0.09,-0.108 -0.207,-0.26 -0.077,-0.099 -0.144,-0.149 -0.2,-0.149 0.108,-0.086 0.162,-0.178 0.162,-0.277 0,-0.151 -0.084,-0.257 -0.253,-0.317 0,0.245 -0.008,0.377 -0.025,0.394 -0.113,-0.134 -0.169,-0.275 -0.169,-0.427 0,-0.13 0.043,-0.244 0.13,-0.342 0.306,0.383 0.524,0.69 0.653,0.918 l 0.117,-0.116 c -0.281,-0.41 -0.485,-0.718 -0.615,-0.925 0.353,-0.173 0.647,-0.259 0.88,-0.259 0.711,0 1.381,0.312 2.009,0.938 0.627,0.625 0.941,1.283 0.941,1.972 0,-0.021 -0.017,-0.01 -0.049,0.033 m -1.705,2.271 v 0.362 c 0.018,0 0.034,-0.023 0.049,-0.071 0.016,-0.048 0.06,-0.072 0.133,-0.072 0.073,0 0.119,0.009 0.135,0.026 0.018,0.017 0.035,0.026 0.053,0.026 -0.182,-0.18 -0.305,-0.271 -0.37,-0.271 m 0.874,-1.197 c 0,0.129 0.029,0.194 0.085,0.194 0.046,-0.077 0.094,-0.116 0.141,-0.116 -0.151,0 -0.226,-0.026 -0.226,-0.078 m -1.494,0.11 -0.104,0.045 0.097,0.195 0.11,-0.04 z m -0.719,-0.311 h 0.13 v -0.284 h -0.13 z m -0.122,-2.523 -0.11,0.046 0.097,0.201 0.109,-0.04 z m 7.58,0.292 c -0.34,-0.268 -0.635,-0.401 -0.885,-0.401 -0.208,0 -0.372,0.097 -0.492,0.291 -0.1,0.16 -0.148,0.334 -0.148,0.523 0,0.165 0.051,0.422 0.154,0.771 0.104,0.349 0.155,0.579 0.155,0.692 0,0.051 -0.005,0.097 -0.019,0.135 0.1,0.203 0.188,0.356 0.266,0.46 -0.018,0 -0.036,-0.009 -0.056,-0.026 C 26.091,-1 26.045,-1.01 25.972,-1.01 c -0.069,0 -0.104,0.012 -0.104,0.033 0,0.018 0.02,0.039 0.059,0.065 0.258,0.233 0.437,0.414 0.535,0.544 0.363,0.03 0.685,0.04 0.965,0.032 0,0.025 0.012,0.086 0.035,0.181 0.024,0.095 0.037,0.153 0.037,0.174 l -0.228,-0.142 c -0.017,0 -0.042,0.027 -0.074,0.081 -0.032,0.055 -0.052,0.083 -0.062,0.087 -0.112,-0.044 -0.195,-0.026 -0.251,0.052 0.319,0.228 0.558,0.369 0.718,0.421 -0.052,0 -0.141,0.016 -0.266,0.051 -0.125,0.035 -0.222,0.052 -0.291,0.052 -0.185,0 -0.33,-0.05 -0.434,-0.149 l -0.122,0.111 c 0.173,0.21 0.341,0.571 0.505,1.079 0.12,0.393 0.241,0.783 0.361,1.171 h -0.341 c 0.003,0 -0.48,-0.107 -1.449,-0.324 -0.329,-0.896 -0.573,-1.58 -0.732,-2.05 h -0.796 c 0.062,-0.081 0.091,-0.189 0.091,-0.323 0,-0.091 -0.016,-0.208 -0.048,-0.353 -0.034,-0.144 -0.049,-0.234 -0.049,-0.268 0.211,0.013 0.368,-0.009 0.472,-0.064 0,-0.044 -0.018,-0.148 -0.055,-0.311 -0.037,-0.164 -0.055,-0.294 -0.055,-0.388 0,-0.108 0.019,-0.201 0.059,-0.278 0.263,0.246 0.45,0.368 0.562,0.368 0.061,0 0.099,-0.003 0.116,-0.009 0.017,-0.007 0.025,-0.015 0.02,-0.023 -0.004,0 -0.008,-0.002 -0.012,-0.007 -0.053,-0.026 -0.193,-0.14 -0.421,-0.342 -0.173,-0.156 -0.335,-0.233 -0.485,-0.233 -0.04,0 -0.078,0.004 -0.116,0.013 v -0.498 c 0.206,0 0.309,-0.035 0.309,-0.103 -0.176,-0.083 -0.302,-0.202 -0.375,-0.357 -0.048,0.043 -0.07,0.129 -0.07,0.259 0,-0.233 -0.04,-0.431 -0.117,-0.596 0.021,-0.021 0.038,-0.023 0.052,-0.006 0.025,0.03 0.075,0.045 0.148,0.045 0.083,0 0.125,-0.031 0.129,-0.096 -0.008,0.107 -0.013,0.053 -0.013,-0.162 0,-0.009 0.046,0.03 0.136,0.116 0.018,0 0.027,-0.013 0.03,-0.038 0.003,-0.027 0.04,-0.039 0.113,-0.039 0.156,0 0.25,-0.017 0.285,-0.052 v -0.181 c -0.164,0 -0.195,0.048 -0.091,0.142 -0.259,-0.12 -0.388,-0.233 -0.388,-0.337 0.086,-0.056 0.129,-0.099 0.129,-0.129 0,-0.008 -0.019,-0.037 -0.058,-0.087 -0.039,-0.049 -0.06,-0.111 -0.064,-0.185 -0.1,0 -0.204,0.052 -0.312,0.155 0.013,-0.038 0.076,-0.158 0.188,-0.361 0.082,-0.155 0.124,-0.276 0.124,-0.362 0.021,0 0.098,0.013 0.232,0.038 0.095,0.017 0.173,0.011 0.233,-0.02 -0.087,-0.081 -0.13,-0.131 -0.13,-0.148 0,-0.017 0.026,-0.027 0.078,-0.027 1.255,2.377 1.895,3.587 1.922,3.63 h 0.038 c -0.078,-0.155 -0.696,-1.414 -1.856,-3.778 0,0.043 0.019,0.091 0.059,0.144 0.016,-0.147 0.152,-0.221 0.407,-0.221 0.452,0 0.998,0.229 1.636,0.686 0.677,0.487 1.016,0.951 1.016,1.39 0,0.052 -0.005,0.099 -0.013,0.143 -0.25,-0.211 -0.503,-0.423 -0.758,-0.634 M 26.78,0.233 26.709,0.31 26.98,0.563 27.064,0.492 Z m -0.815,-0.525 c -0.099,-0.02 -0.164,-0.031 -0.194,-0.031 0.004,0.004 0.052,0.06 0.143,0.168 0.06,0.073 0.105,0.11 0.136,0.11 0.073,0 0.109,-0.072 0.109,-0.213 -0.031,0 -0.095,-0.012 -0.194,-0.034 m -0.737,-1.565 -0.072,0.104 0.318,0.252 0.077,-0.097 z m -0.052,0.227 -0.265,0.091 v 0.109 l 0.31,-0.096 z m -0.317,-0.272 c -0.078,0.065 -0.171,0.098 -0.278,0.098 0.142,0.133 0.239,0.2 0.291,0.2 0.098,-0.095 0.095,-0.194 -0.013,-0.298 m -0.327,-0.206 c -0.002,-0.005 -0.006,-0.009 -0.009,-0.015 0,0.152 -0.055,0.178 -0.162,0.079 0,0.022 0.03,0.051 0.087,0.087 0.059,0.037 0.087,0.068 0.087,0.094 0,-0.159 -0.001,-0.242 -0.003,-0.245 M 24.031,-2.84 h 0.214 v -0.128 h -0.214 z m 0.472,-0.847 -0.116,0.045 0.103,0.188 0.116,-0.032 z m 0.187,-0.744 c -0.107,0.012 -0.167,0.02 -0.18,0.02 0,0.134 0.071,0.2 0.213,0.2 0,-0.021 0.015,-0.052 0.046,-0.091 0.029,-0.038 0.045,-0.071 0.045,-0.097 -0.03,-0.029 -0.071,-0.041 -0.124,-0.032"
             style="fill:#ffffff;fill-opacity:1;fill-rule:nonzero;stroke:none"
             id="path42" /></g><g
           id="g44"
           transform="translate(38.604,49.8027)"><path
             d="m 0,0 -0.207,-0.208 0.059,-0.064 0.213,0.214 z m 1.08,-5.699 c -0.306,0 -0.545,0.017 -0.717,0.052 -0.009,-0.199 -0.041,-0.329 -0.097,-0.389 -0.022,0.06 -0.027,0.139 -0.014,0.234 0.022,0.133 0.033,0.202 0.033,0.206 -0.16,0.074 -0.296,0.138 -0.407,0.195 0.017,-0.061 0.064,-0.205 0.142,-0.434 0.06,-0.182 0.09,-0.298 0.09,-0.349 0,-0.126 -0.015,-0.224 -0.045,-0.298 0.069,0.182 0.116,0.321 0.142,0.42 0.073,-0.073 0.103,-0.21 0.091,-0.413 0.056,0.004 0.159,0.061 0.31,0.171 0.151,0.11 0.253,0.165 0.304,0.165 0.017,0 0.033,-0.005 0.046,-0.013 C 0.867,-6.195 0.746,-6.303 0.595,-6.475 h 0.291 c 0,0.03 0.025,0.054 0.075,0.074 0.049,0.019 0.092,0.02 0.125,0.003 0.557,0.04 1.125,0.248 1.702,0.628 0.686,0.444 1.016,0.95 0.99,1.52 C 2.989,-5.216 2.09,-5.699 1.08,-5.699 M 0.595,-5.874 0.512,-5.913 0.583,-6.055 h 0.09 z m -0.679,-0.388 c -0.09,0.065 -0.145,0.2 -0.162,0.408 -0.013,0.194 -0.025,0.385 -0.039,0.575 l -0.194,-0.788 c -0.167,0.029 -0.295,0.045 -0.381,0.045 0.026,0.034 0.065,0.126 0.115,0.277 0.036,0.095 0.084,0.151 0.144,0.168 0,-0.297 0.001,-0.417 0.006,-0.361 0.086,0.21 0.129,0.502 0.129,0.872 0,-0.103 -0.034,-0.155 -0.103,-0.155 -0.271,0.742 -0.408,1.238 -0.408,1.488 0,0.35 0.07,0.674 0.211,0.974 0.139,0.3 0.21,0.509 0.21,0.631 0,0.047 -0.012,0.142 -0.036,0.287 -0.024,0.144 -0.035,0.247 -0.035,0.307 -1.445,-0.435 -2.167,-1.3 -2.167,-2.594 0,-0.926 0.308,-1.499 0.924,-1.72 0.152,-0.121 0.264,-0.211 0.337,-0.272 -0.017,0.047 -0.026,0.099 -0.026,0.156 0,0.094 0.026,0.219 0.079,0.375 0.055,0.172 0.085,0.276 0.089,0.31 v -0.639 c 0.057,-0.165 0.123,-0.284 0.201,-0.357 -0.035,0.03 0.004,0.102 0.116,0.213 0.022,-0.043 0.015,-0.14 -0.019,-0.291 h 0.284 c 0,-0.004 -0.008,0.035 -0.025,0.117 -0.014,0.052 -0.006,0.09 0.02,0.116 h 0.329 v -0.355 c 0.013,0 0.036,0.009 0.068,0.026 0.033,0.017 0.077,0.025 0.132,0.025 0.044,0 0.111,-0.04 0.201,-0.123 z m -0.511,0.071 h -0.104 v -0.226 h 0.104 z m -0.511,0.544 h -0.11 l 0.032,-0.343 h 0.11 z M 0.355,2.348 0.272,2.322 0.343,2.115 H 0.434 Z M 3.581,1.963 C 3.557,2.043 3.545,2.089 3.545,2.102 L 3.383,1.979 C 3.193,2.315 2.913,2.576 2.543,2.761 2.543,2.598 2.507,2.46 2.438,2.348 2.349,2.468 2.335,2.604 2.4,2.755 L 2.135,2.71 C 1.893,2.788 1.671,2.827 1.468,2.827 1.352,2.827 1.214,2.788 1.055,2.71 0.995,2.761 0.958,2.788 0.945,2.788 c -0.013,0 -0.013,-0.037 0,-0.11 C 0.966,2.569 0.975,2.478 0.97,2.4 0.858,2.525 0.787,2.625 0.757,2.704 0.123,2.449 -0.375,2.154 -0.737,1.817 c 0.051,0 0.106,0.018 0.162,0.055 0.055,0.037 0.089,0.056 0.096,0.056 C -0.448,1.897 -0.434,1.85 -0.434,1.785 -0.598,1.656 -0.679,1.501 -0.679,1.319 l 0.187,-2.471 c 0.263,-0.129 0.404,-0.202 0.421,-0.22 -0.021,-0.021 -0.06,-0.038 -0.117,-0.051 -0.056,-0.013 -0.092,-0.028 -0.109,-0.045 -0.092,-0.031 -0.137,-0.152 -0.137,-0.363 0,-0.173 0.031,-0.312 0.091,-0.42 0.039,0.099 0.181,0.205 0.424,0.317 0.243,0.112 0.454,0.167 0.63,0.167 0.053,0 0.161,-0.02 0.325,-0.061 0.163,-0.041 0.269,-0.061 0.316,-0.061 0.138,0 0.252,0.088 0.343,0.265 0.074,0.146 0.11,0.291 0.11,0.434 0,0.172 -0.031,0.258 -0.091,0.258 -0.021,0 -0.047,-0.017 -0.077,-0.051 C 1.278,-0.975 0.951,-0.85 0.654,-0.608 0.39,-0.401 0.235,-0.184 0.188,0.045 L 0.292,0.439 C 0.287,0.492 0.285,0.542 0.285,0.595 0.285,1.017 0.483,1.427 0.88,1.824 1.156,2.057 1.433,2.292 1.708,2.529 1.729,2.434 1.827,2.337 1.999,2.238 2.188,2.125 2.299,2.046 2.329,1.998 2.398,1.881 2.497,1.621 2.626,1.215 2.708,0.957 2.81,0.828 2.93,0.828 c 0.022,0 0.046,0.004 0.072,0.012 0.155,0.182 0.312,0.363 0.472,0.544 0.094,0.112 0.143,0.241 0.143,0.388 0,0.047 -0.013,0.111 -0.036,0.191 M -1.074,0.155 h -0.11 v -0.278 h 0.11 z M 3.137,1.733 3.053,1.772 3.131,1.928 3.215,1.895 Z M 2.303,2.147 2.032,2.425 2.096,2.483 2.361,2.212 Z M 0.621,2.348 C 0.613,2.356 0.571,2.385 0.499,2.432 0.446,2.466 0.421,2.494 0.421,2.516 0.441,2.516 0.49,2.527 0.563,2.548 0.636,2.569 0.684,2.581 0.705,2.581 0.705,2.478 0.676,2.4 0.621,2.348 M 0.11,1.131 0.026,1.164 0.104,1.319 0.188,1.292 Z M -0.213,1.067 h 0.104 V 0.782 h -0.104 z m -0.162,-0.666 -0.084,0.038 0.078,0.156 0.09,-0.033 z m 0.245,-0.356 -0.083,0.032 0.071,0.201 h 0.09 z m -1.067,-0.433 c -0.137,0.267 -0.207,0.523 -0.207,0.77 0,0.172 0.052,0.405 0.156,0.699 0.129,0.356 0.279,0.553 0.446,0.588 l -0.11,-0.253 c -0.06,-0.025 -0.043,-0.084 0.052,-0.175 0.115,-0.983 0.192,-1.742 0.226,-2.277 -0.228,0.147 -0.416,0.363 -0.563,0.648 M 6.559,1.416 C 6.396,1.611 6.219,1.707 6.029,1.707 5.843,1.707 5.67,1.624 5.508,1.458 5.346,1.292 5.266,1.121 5.266,0.944 c 0,-0.298 0.192,-0.55 0.576,-0.757 h 0.212 c 0.173,0 0.338,0.087 0.496,0.258 0.158,0.173 0.236,0.34 0.236,0.499 0,0.138 -0.076,0.295 -0.227,0.472 m -0.705,-6.76 c -0.302,0.302 -0.453,0.556 -0.453,0.764 0,0.185 0.253,1.033 0.757,2.543 -0.043,0 -0.086,0.016 -0.129,0.05 0.146,0.082 0.237,0.226 0.272,0.427 0.06,0.342 0.116,0.575 0.168,0.699 -0.138,-0.021 -0.41,-0.075 -0.815,-0.161 -0.341,-0.07 -0.542,-0.103 -0.602,-0.103 -0.06,0 -0.088,-0.014 -0.084,-0.04 0.005,-0.047 0.005,-0.075 0,-0.084 -0.004,-0.009 -0.009,-0.012 -0.014,-0.012 -0.047,0.068 -0.073,0.114 -0.077,0.136 0,-0.161 -0.042,-0.241 -0.129,-0.241 0.044,0 0.077,-0.023 0.104,-0.07 C 4.74,-1.492 4.614,-1.678 4.477,-1.993 4.356,-2.273 4.297,-2.437 4.302,-2.484 v -0.221 c 0.048,0 0.093,-0.017 0.136,-0.051 -0.371,-0.392 -0.557,-1.118 -0.557,-2.174 0,-1.104 0.324,-1.656 0.971,-1.656 0.219,0 0.452,0.081 0.699,0.24 0.129,0.086 0.366,0.275 0.711,0.569 0.578,0.491 0.867,0.923 0.867,1.294 0,0.06 -0.007,0.119 -0.02,0.175 -0.414,-0.415 -0.832,-0.76 -1.255,-1.036 m 0.083,3.325 -0.25,0.247 c 0.021,0 0.076,-0.011 0.164,-0.03 C 5.939,-1.821 5.996,-1.831 6.022,-1.831 5.966,-1.917 5.937,-1.979 5.937,-2.019 M 5.44,-1.598 5,-1.41 v 0.097 l 0.479,-0.188 z m 1.986,-4.25 H 7.297 v -0.208 h 0.129 z m 2.924,5.11 c 0.026,-0.005 0.054,-0.039 0.083,-0.103 0.031,-0.065 0.059,-0.097 0.086,-0.097 0.043,0.082 0.073,0.148 0.089,0.2 z m 0.909,-2.846 c -0.033,0.042 -0.036,0.173 -0.009,0.389 -0.048,0.077 -0.091,0.131 -0.13,0.161 -0.022,0.228 -0.124,0.456 -0.307,0.682 -0.184,0.227 -0.275,0.353 -0.275,0.379 0,0.06 -0.007,0.165 -0.019,0.316 -0.018,0.138 -0.024,0.251 -0.02,0.338 0,-0.006 0.01,-0.029 0.032,-0.072 0.004,-0.004 -0.03,-0.007 -0.103,-0.007 -0.017,0 -0.043,0.065 -0.078,0.195 -0.043,0.155 -0.131,0.275 -0.265,0.362 0.052,-0.038 0.078,-0.104 0.078,-0.195 0,-0.099 -0.031,-0.219 -0.091,-0.362 C 9.951,-1.117 9.893,-0.915 9.897,-0.79 9.836,-0.837 9.749,-0.873 9.636,-0.896 9.521,-0.92 9.402,-0.985 9.275,-1.094 9.225,-1.016 9.199,-0.964 9.199,-0.938 9.004,-1.435 8.718,-1.973 8.338,-2.556 7.898,-3.233 7.437,-3.797 6.955,-4.25 v -0.589 c 0.693,0.491 1.088,1.052 1.183,1.682 l 0.11,-0.103 c -0.039,0 -0.059,-0.094 -0.059,-0.279 0.591,0.738 0.899,1.12 0.925,1.145 0.104,-0.229 0.183,-0.407 0.24,-0.536 0.384,0.677 0.69,1.187 0.918,1.532 0.026,-0.021 0.04,-0.073 0.04,-0.155 0,-0.129 -0.102,-0.298 -0.305,-0.505 0.224,-0.111 0.351,-0.187 0.382,-0.226 -0.052,-0.099 -0.166,-0.188 -0.342,-0.265 -0.022,0.026 -0.048,0.077 -0.079,0.155 -0.03,0.079 -0.058,0.13 -0.084,0.156 -0.232,-0.47 -0.396,-0.768 -0.492,-0.893 0.147,-0.082 0.311,-0.303 0.492,-0.663 0.181,-0.36 0.272,-0.646 0.272,-0.857 0,-0.246 -0.114,-0.501 -0.343,-0.764 -0.246,-0.28 -0.513,-0.42 -0.802,-0.42 -0.25,0 -0.438,0.148 -0.562,0.446 -0.156,0.379 -0.257,0.586 -0.305,0.621 H 7.885 C 7.864,-4.79 7.795,-4.876 7.678,-5.026 7.601,-5.125 7.534,-5.175 7.478,-5.175 c 0.108,-0.086 0.161,-0.179 0.161,-0.279 0,-0.15 -0.083,-0.256 -0.252,-0.316 0,0.246 -0.008,0.377 -0.026,0.394 -0.111,-0.133 -0.168,-0.276 -0.168,-0.426 0,-0.131 0.043,-0.245 0.13,-0.344 0.306,0.384 0.524,0.69 0.654,0.918 L 8.093,-5.344 C 7.812,-5.753 7.607,-6.062 7.478,-6.269 c 0.353,-0.172 0.647,-0.258 0.879,-0.258 0.712,0 1.382,0.313 2.009,0.938 0.628,0.625 0.941,1.283 0.941,1.972 0,-0.021 -0.016,-0.009 -0.048,0.033 m -1.705,2.271 v 0.362 c 0.017,0 0.033,-0.024 0.049,-0.071 0.015,-0.048 0.059,-0.072 0.133,-0.072 0.072,0 0.118,0.01 0.136,0.026 0.017,0.017 0.034,0.027 0.051,0.027 C 9.742,-1.223 9.619,-1.313 9.554,-1.313 m 0.874,-1.197 c 0,0.129 0.028,0.195 0.084,0.195 0.048,-0.079 0.094,-0.117 0.142,-0.117 -0.151,0 -0.226,-0.026 -0.226,-0.078 M 8.934,-2.4 8.83,-2.355 8.927,-2.161 9.038,-2.199 Z M 8.215,-2.71 h 0.13 v -0.285 h -0.13 z m -0.122,-2.523 -0.11,0.045 0.096,0.201 0.11,-0.039 z"
             style="fill:#ffffff;fill-opacity:1;fill-rule:nonzero;stroke:none"
             id="path46" /></g><g
           id="g48"
           transform="translate(1.2964,24.0498)"><path
             d="M 0,0 C 0.986,-1.452 1.973,-2.903 2.959,-4.356 1.973,-5.808 0.986,-7.259 0,-8.711 l -0.467,-0.687 h 0.831 83.375 0.834 l -0.472,0.689 c -0.986,1.439 -1.972,2.878 -2.957,4.316 0.986,1.465 1.972,2.93 2.96,4.393 l 0.461,0.687 H 83.739 0.364 -0.467 Z"
             style="fill:#db5a40;fill-opacity:1;fill-rule:nonzero;stroke:none"
             id="path50" /></g><g
           id="g52"
           transform="translate(1.2964,24.0498)"><path
             d="M 0,0 C 0.986,-1.452 1.973,-2.903 2.959,-4.356 1.973,-5.808 0.986,-7.259 0,-8.711 l -0.467,-0.687 h 0.831 83.375 0.834 l -0.472,0.689 c -0.986,1.439 -1.972,2.878 -2.957,4.316 0.986,1.465 1.972,2.93 2.96,4.393 l 0.461,0.687 H 83.739 0.364 -0.467 Z"
             style="fill:none;stroke:#ffffff;stroke-width:0.88;stroke-linecap:butt;stroke-linejoin:miter;stroke-miterlimit:4;stroke-dasharray:none;stroke-opacity:1"
             id="path54" /></g><g
           id="g56"
           transform="translate(16.1104,18.6089)"><path
             d="m 0,0 c 0,-0.154 0.026,-0.288 0.08,-0.403 0.052,-0.115 0.121,-0.209 0.208,-0.285 0.086,-0.076 0.183,-0.133 0.29,-0.171 0.107,-0.04 0.216,-0.059 0.325,-0.059 0.109,0 0.217,0.019 0.324,0.059 0.107,0.038 0.204,0.095 0.291,0.171 0.086,0.076 0.156,0.17 0.208,0.285 C 1.779,-0.288 1.805,-0.154 1.805,0 V 1.182 H 0.84 V 0.708 H 1.267 V 0 C 1.267,-0.13 1.23,-0.226 1.159,-0.286 1.087,-0.348 1.001,-0.379 0.903,-0.379 0.804,-0.379 0.719,-0.348 0.647,-0.286 0.575,-0.226 0.539,-0.13 0.539,0 v 1.985 c 0,0.13 0.036,0.226 0.108,0.287 0.072,0.062 0.157,0.093 0.256,0.093 0.098,0 0.184,-0.031 0.256,-0.093 C 1.23,2.211 1.267,2.115 1.267,1.985 V 1.794 H 1.805 V 1.985 C 1.805,2.136 1.779,2.27 1.726,2.386 1.674,2.502 1.604,2.598 1.518,2.673 1.431,2.749 1.334,2.806 1.227,2.845 1.12,2.883 1.012,2.903 0.903,2.903 0.794,2.903 0.685,2.883 0.578,2.845 0.471,2.806 0.374,2.749 0.288,2.673 0.201,2.598 0.132,2.502 0.08,2.386 0.026,2.27 0,2.136 0,1.985 Z M 2.488,-0.886 H 3.027 V 2.872 H 2.488 Z M 4.932,0.428 H 4.393 L 4.657,1.79 h 0.01 z M 3.602,-0.886 H 4.14 L 4.298,-0.08 H 5.032 L 5.19,-0.886 H 5.728 L 4.889,2.872 H 4.44 Z m 2.683,0 h 0.538 v 2.259 h 0.01 L 7.657,-0.886 H 8.164 V 2.872 H 7.625 V 0.607 H 7.614 L 6.803,2.872 H 6.285 Z m 2.56,0 h 0.538 v 2.259 h 0.011 l 0.823,-2.259 h 0.507 V 2.872 H 10.186 V 0.607 H 10.175 L 9.362,2.872 H 8.845 Z m 2.578,0 h 0.539 v 3.758 h -0.539 z m 2.465,0 h 0.734 c 0.352,0 0.607,0.088 0.768,0.263 0.16,0.177 0.24,0.43 0.24,0.761 v 0.211 c 0,0.196 -0.03,0.354 -0.09,0.472 -0.06,0.118 -0.152,0.207 -0.28,0.266 0.06,0.035 0.113,0.074 0.159,0.114 0.045,0.04 0.084,0.088 0.116,0.14 0.031,0.052 0.055,0.114 0.071,0.185 0.017,0.07 0.024,0.156 0.024,0.258 v 0.138 c 0,0.122 -0.017,0.241 -0.05,0.356 -0.034,0.115 -0.089,0.215 -0.166,0.303 -0.079,0.088 -0.177,0.158 -0.299,0.211 -0.121,0.053 -0.268,0.08 -0.44,0.08 h -0.787 z m 0.539,1.742 h 0.237 c 0.098,0 0.178,-0.013 0.238,-0.038 0.06,-0.024 0.105,-0.061 0.14,-0.108 0.033,-0.046 0.055,-0.106 0.065,-0.176 0.011,-0.071 0.017,-0.154 0.017,-0.249 0,-0.09 -0.004,-0.176 -0.011,-0.253 -0.008,-0.077 -0.027,-0.144 -0.059,-0.2 -0.031,-0.058 -0.077,-0.101 -0.139,-0.133 -0.062,-0.031 -0.147,-0.046 -0.256,-0.046 h -0.232 z m 0,1.509 h 0.221 c 0.18,0 0.304,-0.043 0.373,-0.127 0.068,-0.085 0.103,-0.21 0.103,-0.381 0,-0.172 -0.031,-0.302 -0.093,-0.393 C 14.969,1.375 14.849,1.331 14.669,1.331 h -0.242 z m 1.891,-3.251 h 1.604 v 0.539 h -1.066 v 1.102 h 0.929 v 0.507 h -0.929 v 1.103 h 1.066 v 0.507 h -1.604 z m 2.214,0 h 1.605 v 0.539 h -1.066 v 3.219 h -0.539 z m 2.214,0 h 1.604 v 0.539 H 21.284 V 2.872 H 20.746 Z M 22.931,0 c 0,-0.154 0.026,-0.288 0.079,-0.403 0.053,-0.115 0.122,-0.209 0.208,-0.285 0.086,-0.076 0.183,-0.133 0.29,-0.171 0.108,-0.04 0.216,-0.059 0.325,-0.059 0.109,0 0.217,0.019 0.325,0.059 0.107,0.038 0.204,0.095 0.29,0.171 0.086,0.076 0.156,0.17 0.208,0.285 0.052,0.115 0.079,0.249 0.079,0.403 v 1.985 c 0,0.151 -0.027,0.285 -0.079,0.401 -0.052,0.116 -0.122,0.212 -0.208,0.287 -0.086,0.076 -0.183,0.133 -0.29,0.172 -0.108,0.038 -0.216,0.058 -0.325,0.058 -0.109,0 -0.217,-0.02 -0.325,-0.058 C 23.401,2.806 23.304,2.749 23.218,2.673 23.132,2.598 23.063,2.502 23.01,2.386 22.957,2.27 22.931,2.136 22.931,1.985 Z m 0.538,1.985 c 0,0.13 0.036,0.226 0.108,0.287 0.072,0.062 0.158,0.093 0.256,0.093 0.098,0 0.184,-0.031 0.257,-0.093 0.072,-0.061 0.107,-0.157 0.107,-0.287 V 0 c 0,-0.13 -0.035,-0.226 -0.107,-0.286 -0.073,-0.062 -0.159,-0.093 -0.257,-0.093 -0.098,0 -0.184,0.031 -0.256,0.093 -0.072,0.06 -0.108,0.156 -0.108,0.286 z m 4.01,-0.77 C 27.419,1.154 27.368,1.147 27.326,1.191 l 0.072,0.065 c 0.006,0.003 0.009,0.007 0.009,0.012 0,0.03 -0.036,0.084 -0.112,0.157 0,-0.089 -0.035,-0.132 -0.105,-0.132 0,0.022 0.005,0.058 0.012,0.105 0.006,0.032 0.006,0.056 -0.003,0.073 -0.326,-0.289 -0.476,-0.589 -0.45,-0.9 0,0.029 -0.03,0.071 -0.088,0.13 L 26.56,0.581 c 0.039,0.025 0.072,0.052 0.098,0.078 0.042,-0.1 0.071,-0.172 0.085,-0.214 0.16,0.054 0.262,0.125 0.306,0.214 0.014,-0.014 0.024,-0.039 0.03,-0.076 0.006,-0.036 0.017,-0.061 0.033,-0.075 -0.03,-0.028 -0.066,-0.042 -0.108,-0.042 0.057,0 0.084,-0.023 0.084,-0.072 0,-0.01 -0.005,-0.019 -0.015,-0.027 l 0.154,0.124 c 0.106,0.019 0.196,0.091 0.27,0.216 0.056,0.092 0.084,0.162 0.084,0.208 0,0.061 -0.034,0.161 -0.102,0.3 m -0.965,0.009 c 0.062,0 0.105,-0.01 0.126,-0.03 C 26.622,1.173 26.567,1.164 26.475,1.164 26.483,1.035 26.479,0.965 26.463,0.95 26.47,0.959 26.48,0.963 26.49,0.965 26.484,0.965 26.506,0.941 26.556,0.89 26.53,0.853 26.515,0.821 26.51,0.797 26.507,0.781 26.509,0.764 26.517,0.745 26.524,0.725 26.529,0.71 26.529,0.701 26.625,0.895 26.79,1.163 27.022,1.503 26.773,1.466 26.604,1.372 26.514,1.224 M 27.184,1.032 27.142,1.08 27.248,1.182 27.293,1.14 Z M 27.031,1.23 h 0.117 V 1.154 h -0.117 z m -0.003,-0.319 -0.06,0.025 0.054,0.111 0.06,-0.021 z m -0.403,0.253 h 0.072 V 1.049 H 26.625 Z M 26.946,0.685 V 0.75 l 0.103,0.049 0.024,-0.06 z m 2.328,-1.571 h 1.603 v 0.539 h -1.065 v 3.219 h -0.538 z m 3.944,3.758 H 32.68 V 0.011 c 0,-0.134 -0.032,-0.233 -0.095,-0.296 -0.064,-0.062 -0.143,-0.094 -0.237,-0.094 -0.096,0 -0.174,0.032 -0.239,0.094 -0.063,0.063 -0.093,0.162 -0.093,0.296 v 2.861 h -0.539 v -2.914 c 0,-0.123 0.023,-0.237 0.069,-0.343 0.045,-0.105 0.107,-0.197 0.186,-0.277 0.08,-0.079 0.172,-0.141 0.277,-0.187 0.107,-0.046 0.219,-0.069 0.339,-0.069 0.119,0 0.231,0.023 0.338,0.069 0.106,0.046 0.196,0.108 0.276,0.187 0.08,0.08 0.141,0.172 0.187,0.277 0.046,0.106 0.069,0.22 0.069,0.343 z m 0.703,-3.758 h 0.749 c 0.32,0 0.566,0.084 0.737,0.25 0.17,0.168 0.256,0.427 0.256,0.778 V 1.9 c 0,0.306 -0.081,0.544 -0.244,0.715 -0.161,0.171 -0.395,0.257 -0.701,0.257 h -0.797 z m 0.539,3.251 h 0.248 c 0.158,0 0.267,-0.041 0.327,-0.121 0.059,-0.082 0.09,-0.196 0.09,-0.344 V 0.09 c 0,-0.161 -0.032,-0.28 -0.095,-0.357 -0.063,-0.075 -0.171,-0.112 -0.322,-0.112 H 34.46 Z m 4.712,0.507 h -0.57 L 38.344,0.428 H 38.333 L 37.895,2.872 H 37.482 L 37.061,0.486 h -0.01 l -0.27,2.386 h -0.57 l 0.56,-3.758 h 0.506 l 0.407,2.438 h 0.01 l 0.412,-2.438 h 0.506 z m 0.609,-3.758 h 0.54 v 3.758 h -0.54 z M 41.01,0 c 0,-0.154 0.027,-0.288 0.079,-0.403 0.054,-0.115 0.123,-0.209 0.209,-0.285 0.086,-0.076 0.183,-0.133 0.29,-0.171 0.108,-0.04 0.216,-0.059 0.326,-0.059 0.108,0 0.216,0.019 0.324,0.059 0.106,0.038 0.203,0.095 0.29,0.171 0.086,0.076 0.156,0.17 0.208,0.285 0.053,0.115 0.079,0.249 0.079,0.403 V 1.182 H 41.85 V 0.708 h 0.427 V 0 c 0,-0.13 -0.036,-0.226 -0.109,-0.286 -0.071,-0.062 -0.157,-0.093 -0.254,-0.093 -0.099,0 -0.185,0.031 -0.257,0.093 -0.072,0.06 -0.108,0.156 -0.108,0.286 v 1.985 c 0,0.13 0.036,0.226 0.108,0.287 0.072,0.062 0.158,0.093 0.257,0.093 0.097,0 0.183,-0.031 0.254,-0.093 0.073,-0.061 0.109,-0.157 0.109,-0.287 V 1.794 h 0.538 v 0.191 c 0,0.151 -0.026,0.285 -0.079,0.401 -0.052,0.116 -0.122,0.212 -0.208,0.287 -0.087,0.076 -0.184,0.133 -0.29,0.172 -0.108,0.038 -0.216,0.058 -0.324,0.058 -0.11,0 -0.218,-0.02 -0.326,-0.058 C 41.481,2.806 41.384,2.749 41.298,2.673 41.212,2.598 41.143,2.502 41.089,2.386 41.037,2.27 41.01,2.136 41.01,1.985 Z m 4.27,2.053 c 0,0.106 -0.022,0.209 -0.064,0.309 -0.042,0.1 -0.103,0.191 -0.181,0.271 -0.08,0.082 -0.175,0.147 -0.286,0.197 -0.11,0.048 -0.232,0.073 -0.367,0.073 -0.153,0 -0.29,-0.027 -0.405,-0.082 C 43.86,2.767 43.765,2.693 43.689,2.602 43.613,2.511 43.556,2.401 43.517,2.276 43.478,2.147 43.459,2.014 43.459,1.874 c 0,-0.236 0.04,-0.432 0.119,-0.588 0.079,-0.158 0.235,-0.283 0.466,-0.378 L 44.43,0.75 c 0.067,-0.028 0.121,-0.055 0.161,-0.079 0.04,-0.025 0.072,-0.057 0.096,-0.095 0.022,-0.039 0.037,-0.09 0.044,-0.153 0.007,-0.064 0.011,-0.145 0.011,-0.243 0,-0.084 -0.004,-0.162 -0.011,-0.232 -0.007,-0.071 -0.024,-0.13 -0.05,-0.177 -0.027,-0.047 -0.066,-0.084 -0.117,-0.111 -0.05,-0.027 -0.122,-0.039 -0.213,-0.039 -0.137,0 -0.235,0.039 -0.293,0.118 -0.058,0.079 -0.087,0.168 -0.087,0.267 v 0.169 h -0.538 v -0.2 c 0,-0.128 0.024,-0.246 0.071,-0.354 0.048,-0.11 0.112,-0.203 0.193,-0.283 0.081,-0.079 0.177,-0.141 0.289,-0.187 0.114,-0.046 0.235,-0.069 0.365,-0.069 0.172,0 0.319,0.029 0.438,0.085 0.119,0.056 0.215,0.132 0.288,0.229 0.072,0.098 0.124,0.214 0.155,0.348 0.032,0.135 0.048,0.282 0.048,0.442 0,0.136 -0.007,0.259 -0.022,0.366 -0.013,0.107 -0.041,0.202 -0.081,0.284 -0.04,0.084 -0.098,0.156 -0.172,0.217 -0.073,0.062 -0.171,0.115 -0.29,0.162 L 44.304,1.378 C 44.233,1.406 44.177,1.434 44.137,1.462 44.097,1.49 44.066,1.523 44.044,1.56 44.023,1.597 44.011,1.641 44.005,1.692 44,1.743 43.998,1.806 43.998,1.879 c 0,0.062 0.005,0.124 0.015,0.183 0.01,0.057 0.029,0.109 0.056,0.152 0.026,0.044 0.062,0.08 0.11,0.108 0.048,0.029 0.109,0.043 0.183,0.043 0.137,0 0.234,-0.045 0.292,-0.135 0.058,-0.089 0.088,-0.196 0.088,-0.319 V 1.79 h 0.538 z m 0.636,-2.939 h 1.604 v 0.539 h -1.066 v 3.219 h -0.538 z m 3.943,3.758 H 49.322 V 0.011 c 0,-0.134 -0.032,-0.233 -0.095,-0.296 -0.063,-0.062 -0.143,-0.094 -0.238,-0.094 -0.095,0 -0.174,0.032 -0.237,0.094 -0.064,0.063 -0.095,0.162 -0.095,0.296 v 2.861 h -0.539 v -2.914 c 0,-0.123 0.024,-0.237 0.07,-0.343 0.045,-0.105 0.108,-0.197 0.187,-0.277 0.079,-0.079 0.17,-0.141 0.277,-0.187 0.105,-0.046 0.218,-0.069 0.337,-0.069 0.12,0 0.233,0.023 0.338,0.069 0.106,0.046 0.198,0.108 0.277,0.187 0.079,0.08 0.142,0.172 0.187,0.277 0.046,0.106 0.068,0.22 0.068,0.343 z m 2.484,-0.819 c 0,0.106 -0.022,0.209 -0.064,0.309 -0.042,0.1 -0.103,0.191 -0.181,0.271 -0.079,0.082 -0.175,0.147 -0.286,0.197 -0.11,0.048 -0.233,0.073 -0.367,0.073 -0.154,0 -0.29,-0.027 -0.406,-0.082 C 50.923,2.767 50.827,2.693 50.751,2.602 50.676,2.511 50.619,2.401 50.58,2.276 50.542,2.147 50.521,2.014 50.521,1.874 c 0,-0.236 0.041,-0.432 0.12,-0.588 0.079,-0.158 0.235,-0.283 0.466,-0.378 L 51.494,0.75 c 0.065,-0.028 0.12,-0.055 0.16,-0.079 0.04,-0.025 0.072,-0.057 0.095,-0.095 0.023,-0.039 0.039,-0.09 0.044,-0.153 0.008,-0.064 0.012,-0.145 0.012,-0.243 0,-0.084 -0.004,-0.162 -0.012,-0.232 -0.005,-0.071 -0.023,-0.13 -0.049,-0.177 -0.026,-0.047 -0.065,-0.084 -0.116,-0.111 -0.051,-0.027 -0.123,-0.039 -0.214,-0.039 -0.137,0 -0.235,0.039 -0.293,0.118 -0.058,0.079 -0.087,0.168 -0.087,0.267 v 0.169 h -0.538 v -0.2 c 0,-0.128 0.023,-0.246 0.071,-0.354 0.048,-0.11 0.112,-0.203 0.193,-0.283 0.08,-0.079 0.178,-0.141 0.29,-0.187 0.113,-0.046 0.234,-0.069 0.364,-0.069 0.172,0 0.319,0.029 0.438,0.085 0.12,0.056 0.215,0.132 0.287,0.229 0.072,0.098 0.124,0.214 0.156,0.348 0.032,0.135 0.048,0.282 0.048,0.442 0,0.136 -0.008,0.259 -0.022,0.366 C 52.308,0.659 52.28,0.754 52.24,0.836 52.2,0.92 52.142,0.992 52.068,1.053 51.995,1.115 51.898,1.168 51.778,1.215 L 51.367,1.378 C 51.295,1.406 51.241,1.434 51.201,1.462 51.16,1.49 51.129,1.523 51.107,1.56 51.087,1.597 51.074,1.641 51.068,1.692 51.063,1.743 51.06,1.806 51.06,1.879 c 0,0.062 0.005,0.124 0.016,0.183 0.011,0.057 0.029,0.109 0.056,0.152 0.026,0.044 0.062,0.08 0.111,0.108 0.047,0.029 0.108,0.043 0.182,0.043 0.136,0 0.235,-0.045 0.293,-0.135 0.057,-0.089 0.087,-0.196 0.087,-0.319 V 1.79 h 0.538 z m 1.105,-2.939 h 0.539 v 3.251 h 0.622 V 2.872 H 52.826 V 2.365 h 0.622 z"
             style="fill:#ffffff;fill-opacity:1;fill-rule:nonzero;stroke:none"
             id="path58" /></g></g></g></g></svg>
