<svg xmlns="http://www.w3.org/2000/svg" xmlns:xlink="http://www.w3.org/1999/xlink" viewBox="0 0 90.71 90.71"><defs><style>.a,.e,.f{fill:none;}.b{clip-path:url(#a);}.c{fill:#fff;}.d{fill:#5b3928;}.e,.f{stroke:#5b3928;}.e{stroke-width:4px;}.f{stroke-width:2px;}</style><clipPath id="a" transform="translate(-1.42 -1.42)"><rect class="a" width="93.44" height="93.31"/></clipPath></defs><g class="b"><path class="c" d="M46.77,90.71A43.94,43.94,0,1,0,2.83,46.77,43.94,43.94,0,0,0,46.77,90.71" transform="translate(-1.42 -1.42)"/><path class="d" d="M13.26,46.77A33.52,33.52,0,1,1,46.77,80.29,33.51,33.51,0,0,1,13.26,46.77M46.77,92.13A45.36,45.36,0,1,0,1.42,46.77,45.36,45.36,0,0,0,46.77,92.13" transform="translate(-1.42 -1.42)"/><path class="e" d="M46.77,69.87a23.1,23.1,0,1,0-23.09-23.1A23.1,23.1,0,0,0,46.77,69.87Z" transform="translate(-1.42 -1.42)"/><circle class="f" cx="45.35" cy="45.35" r="17.42"/><path class="c" d="M84.29,38.49s0,0,0,0h0l0,.05,0,0Zm4.22-.59h-.06l0,0v0h0s0,0,.06,0Zm-3.63.47s0,0,0,0a.07.07,0,0,1,0,.06h0s0-.06,0-.07m.34,0h0s0-.08.06-.09h0ZM82.47,39h0a.12.12,0,0,1-.07,0,0,0,0,0,1,.05,0,.09.09,0,0,1,.1,0v0h0Zm5.78-.37s0,0,0,0h.16a.64.64,0,0,0,.47-.4c-.11-.29-.29-.6-.6-.61l-2,.43c-.45.1-1,.13-1.52.24a4.13,4.13,0,0,0-.5.15c-.22,0-.45.05-.67.08l-.32.07-.06,0s0,0-.06,0l-.15.05-.72.09a.74.74,0,0,0-.43.26,1.09,1.09,0,0,0,0,.51.43.43,0,0,0,.1.23c.28.15.5.06.83,0a.77.77,0,0,1,.19-.08l.23,0a.34.34,0,0,0,.18-.07s0,0,.06,0a.6.6,0,0,1,.16-.08l.32,0,.13,0,.42-.07a.51.51,0,0,0,.24-.1l.26,0,.12,0,.33-.07s0,0,0,0h.14s0,0,0-.07h0c.05,0,.05,0,.07-.08a1.15,1.15,0,0,0,.37,0,.25.25,0,0,0,.09,0,.82.82,0,0,0,.38,0l.76-.21a1.09,1.09,0,0,1,.25,0,.34.34,0,0,0,.2,0l.18,0a.51.51,0,0,1,.18,0Zm-2.43-9,0,0h0v0s0,0,0,0a.08.08,0,0,1,.08,0Zm-.31.15c-.06,0-.09,0-.09,0v-.11a.27.27,0,0,1,.1.09v0m.92,1.31a.08.08,0,0,1-.05,0,.08.08,0,0,1,0-.07h.06s0,0,0,0,0,.05,0,.07Zm-5.62,3.69a.08.08,0,0,1-.08,0,.06.06,0,0,1,0-.08h0s0,0,0,0,0,.06,0,.07m2.68-4.34a.28.28,0,0,1,.08-.12s0,0,0,0v0s0,.08-.08.1,0,0,0,0ZM87,33a.63.63,0,0,0,.19-.49,1.76,1.76,0,0,1-.24-.45c-.07-.2-.12-.43-.18-.64v0c0-.05-.06-.06-.08-.1a.08.08,0,0,1,0-.06s0-.09,0-.13,0-.05-.09,0a.41.41,0,0,0,0-.22l-.16-.33a.44.44,0,0,1,0-.2h0c0-.06-.12-.08-.13-.12s0,0,0,0a.85.85,0,0,0,0-.17.76.76,0,0,0-.42-.48s0,0,0,0-.07-.05-.12,0h0c-.14.05-.38.18-1.54.59a.78.78,0,0,0-.31.06l-.19.07-.22.07-.17.06a1.84,1.84,0,0,1-.42.1l-.08,0-.18,0a.22.22,0,0,0-.12.1l-.4,0a1.65,1.65,0,0,1-.48.23l-.46.17a1.29,1.29,0,0,0-.24,0l-.28.12c-.06,0-.14,0-.18,0h0a1.28,1.28,0,0,1-.17.1h-.09s-.06,0-.08,0-.12.15-.21.18a.08.08,0,0,0-.07,0c-.1,0,0,.25-.18.29h0c.12.11.12.33.25.44a1.17,1.17,0,0,0,0,.11c.08.23.07.46.14.66l0,.08a1,1,0,0,0,.06.23l.34.78a.44.44,0,0,1,0,.15v0l0,.27a.15.15,0,0,0,.08.1.06.06,0,0,0,0,.06c0,.05.09.09.11.15v0c.13.17.35,0,.52,0l.11,0a.38.38,0,0,0,.26-.32c-.14-.46-.27-.92-.43-1.37a6.66,6.66,0,0,0-.37-.91c0-.11.06-.22.18-.27.57-.2,1.06-.35,1.61-.5.1,0,.2.07.23.16a2.75,2.75,0,0,0,.14.49l.22.66a1.85,1.85,0,0,1,.11.42c.17.11.13.33.33.47l.23-.05L84,33.6a.33.33,0,0,0,.26-.26c0-.16-.09-.39-.06-.48l-.09,0c-.1-.33-.15-.59-.24-.87a1.89,1.89,0,0,0-.09-.21,1,1,0,0,1-.17-.29.34.34,0,0,1,0-.28,5.38,5.38,0,0,1,.51-.2l1-.35.17,0c.13,0,.17.05.21.15l0,.15a.26.26,0,0,0,0,.09c.08.28.16.63.24.9a3.68,3.68,0,0,1,.15.35l0,.06a1.65,1.65,0,0,0,.37.69A.91.91,0,0,0,87,33m-7.16-6.73s0,0,0,0h0l0,0h.06m-2.27.86h0s0,0,0,0h0s0,0,0,0Zm.3.9s0-.06,0-.07a0,0,0,0,1,0,0s0,0,0,0Zm3.35-4.93s0,0,0,0,0,0-.06,0,0,0,0,0,0,0,0,0m-.75,2.84s0,0,0,0a.08.08,0,0,0,0,.05s0,0,.06,0,0,0,0,0M76,25.79a0,0,0,0,1,0,0s0,0,0,0l0,0a0,0,0,0,1,0,0l0,0h0M80,26a.06.06,0,0,0,0,0,0,0,0,0,0,0,0s0,0,0,0,0,0,0,0Zm-2.3,2s0,0,0,0a0,0,0,0,1,0,0v0s0,0,0,0,0,0,0,0a0,0,0,0,1,.06,0v0m-1.78-2.46s0,0,0-.06h0a.06.06,0,0,1,0,.07,0,0,0,0,1,0,0Zm4.46-2.17s0,0,0,0,0,0,0,0,0,0,0,0h0s0,0,0,0,0,0,0,0m1.3,1.14s0,0,.06,0,0,0,0,0h-.06s0,0,0,0ZM80.3,25.86a.17.17,0,0,0-.1,0s0,0,0,0a.07.07,0,0,0,0,0h0s0,0,0,0Zm2.35-2.19h0a.11.11,0,0,0,0-.1h0s0,0,0,.06,0,0,0,0h0s0,0,0,0l0,0M80.08,26a0,0,0,0,0,0-.06s0,0,0,0,0,0,0,.06h0s0,0,0,0ZM77.4,27.4s0-.07,0-.09h0a.12.12,0,0,1,0,.1H77.4Zm.19.75s0,0,0,0,0,0,0-.06h0a0,0,0,0,1,.07,0h0s0,.05,0,.07m2.86-5.56a.05.05,0,0,1,0,0,.11.11,0,0,1,0,0h0s.09,0,.11,0,0,0,0,0a0,0,0,0,1,0,0s0,0,0,0m-2.81,5.63s0,0,0,0,0,0,0-.05l0,0c0-.05,0-.11.06-.13h.06s-.08.15-.13.19,0,0,0,0M76.25,26s-.1,0-.11-.07,0,0,0,0,.07,0,.1,0l.07,0,.06,0,.12-.09s0,0,0,0,0,0-.07.07L76.3,26l0,0m5.28-1.28-.17.11a1.13,1.13,0,0,1-1.14.07,1,1,0,0,1-.41-.42l-.27-.44c.06-.11.16-.21.49-.41l.41-.24s0-.07,0-.08h0l.47-.23a.38.38,0,0,1,.11-.11.21.21,0,0,1,.19,0,.4.4,0,0,1,.26.2c.07.11.12.26.17.35a1.1,1.1,0,0,1,0,1l0,0c-.08,0-.07.17-.13.25m-3.71,3.37c.44-.48.86-.9,1.29-1.33l.85-.89a.2.2,0,0,1,.07-.06.58.58,0,0,1,.43,0,1.86,1.86,0,0,0,1.36-.25,2.11,2.11,0,0,0,.61-.58,2.12,2.12,0,0,0,.14-1.37s0-.07,0-.08a3.38,3.38,0,0,0-.38-.79l-.38-.63L81.71,22l-.09-.16-.09,0c-.29.21-.65.41-1,.62l-.25.09a.12.12,0,0,0,0,.08c-.27.14-.52.3-.77.45l-2,1.2c-.12.09-.25.19-.38.27l-.32.19-.05,0-.22.16-.42.23a2,2,0,0,0-.43.33l.2.31a.79.79,0,0,1,.08.16h0a.6.6,0,0,0,.21.18l.49-.31c.44-.28.85-.59,1.33-.88l.2-.13a.31.31,0,0,0,.1-.05l.25-.17a.47.47,0,0,1,.19-.07,1.2,1.2,0,0,1,.17.21l.3.53.1.08s0,.05,0,.09c-.24.22-.47.46-.7.7s-.67.66-1,1c0,.19-.29.23-.3.34l0,0a.69.69,0,0,0-.2.28s.13.16.21.24a2.77,2.77,0,0,1,.21.29c.06.07.11.06.15,0a.6.6,0,0,0,.14-.13M75.46,15.25s0,0,0,0h0l0,0s0,0,0,0h.07Zm-.21.27c0,.05-.08.05-.09,0l0-.08,0,0a.24.24,0,0,1,.13,0,0,0,0,0,1,0,0m1.38.8a.06.06,0,0,1-.07,0s0-.06,0-.08a.06.06,0,0,1,.06,0h0a.08.08,0,0,1,0,.08ZM73.07,22A.06.06,0,0,1,73,22h0s0,0,0,0a0,0,0,0,1,0,.07M73.69,17a.18.18,0,0,1,0-.14h0l0,0s0,.09,0,.12h0Zm4.24.87a.65.65,0,0,0,0-.53A1.9,1.9,0,0,1,77.5,17c-.15-.16-.29-.34-.44-.51l0,0s-.08,0-.11-.06,0,0,0-.06a1.09,1.09,0,0,1-.06-.11.07.07,0,0,0-.1,0,.5.5,0,0,0-.11-.19l-.29-.24a.44.44,0,0,1-.1-.16h0c0-.05-.15,0-.17-.05s0,0,0-.06a1.71,1.71,0,0,0-.11-.14.78.78,0,0,0-.59-.26s0,0,0,0-.09,0-.12,0h0c-.11.1-.27.32-1.15,1.18a.86.86,0,0,0-.26.18l-.14.15a.87.87,0,0,0-.17.16l-.13.11a1.34,1.34,0,0,1-.34.28l-.06.07-.14.11a.21.21,0,0,0-.07.13l-.35.2a1.61,1.61,0,0,1-.34.41c-.11.11-.24.23-.34.35a.87.87,0,0,0-.2.15l-.21.23s-.13,0-.16.07h0a.76.76,0,0,1-.11.16L71,19.2l-.07,0c-.05.06-.05.19-.11.26s-.05,0-.07,0,.06.25,0,.34l0,0c.15,0,.25.24.41.29l.09.08c.17.17.26.39.41.54l.07.06a1.1,1.1,0,0,0,.14.18l.64.56.11.12,0,0,.13.24a.15.15,0,0,0,.12.05s0,.05,0,.06.12,0,.17.09l0,0c.19.1.33-.11.48-.18l.09-.07a.37.37,0,0,0,.1-.4c-.32-.36-.63-.72-1-1.07A7.61,7.61,0,0,0,72,19.8c0-.11,0-.23.06-.32.43-.41.8-.76,1.24-1.13a.42.42,0,0,1,.28,0,3.09,3.09,0,0,0,.33.39l.48.51a1.84,1.84,0,0,1,.27.34c.2,0,.26.23.5.28l.19-.14.13-.13a.31.31,0,0,0,.13-.34c0-.17-.23-.32-.25-.42h-.1c-.22-.25-.38-.47-.58-.68l-.17-.16a.87.87,0,0,1-.28-.19.36.36,0,0,1-.11-.26c.12-.14.25-.26.37-.39l.77-.73.13-.1a.18.18,0,0,1,.26,0l.1.12a.24.24,0,0,0,.09.06c.18.22.4.51.59.72a2.33,2.33,0,0,1,.28.26l0,0a1.74,1.74,0,0,0,.63.48,1,1,0,0,0,.55-.26M67.38,14h0s0-.05,0-.05h0a0,0,0,0,1,0,.06Zm.06-.35,0,0s0-.07,0-.08h0s0,0,0,0m3.49-1.44s0,0,0,0h0s0,0,0,0,0,0,0,0l.05.06m-.14-.06h0s0,0,0-.05h0a0,0,0,0,1,0,0Zm.21.4s0,0,0,0a0,0,0,0,1,0-.05,0,0,0,0,1,0,0s0,0,0,0Zm-5.14,3.81a0,0,0,0,1,0,0,0,0,0,0,1,0,0v0h0a0,0,0,0,1,0,0m4.79-3.79h0s0-.05,0-.06h0l0,0Zm-3.58,1.7h0s0,0,0,0,0,0,0,0h0s0,0,0,.06m-.42.67s0,0,0,0l0,0s0,0,.06,0a.07.07,0,0,1,0,.06Zm4.12-2.22s0,0,0,0,0,0-.06,0,0,0,0,0,0,0,.08,0m.28-1s0,0,0,0h0s0,.05,0,.06h0Zm-.28.82s0,0-.07,0h0s0,0,0,0,0,0,.06,0a0,0,0,0,1,0,.05m-.12-.36a0,0,0,0,1,0,0s0,0,0,0l0,0v0s0,0,.08,0Zm.39-.37s-.07,0-.09,0a0,0,0,0,1,0,0,.06.06,0,0,1,.07,0l0,0Zm-4,2.36s0,0,0-.05l0,0s0,0,0,0v0l0,0,0,.06Zm4-2.16h0s0-.06,0-.09h.05s0,.05,0,.08l0,0m-.67,0s0,0,0-.07a.08.08,0,0,1,.08,0s0,0,0,.06a.08.08,0,0,1-.07,0m.49.26a.08.08,0,0,0-.08,0s0,0,0,0l0,0-.06,0s0,0,0,0h0s.08,0,.12,0,0,0,0,0l0,0,0,0m.43-.28,0-.05s-.12,0-.13,0v0h0s.11-.08.16-.05a.13.13,0,0,1,0,.11ZM71,12l-.09-.05s0,.05,0,.07l-.06,0,0,0c0-.08-.05-.12,0-.19l.09,0s0,.06,0,.08l.14.05A.06.06,0,0,1,71,12m.23.35h-.09l0,0s0,0-.06,0-.07-.07,0-.17l0,0h0s0-.1,0-.12h0s0,0,0,0H71s0,0,0,0h0c.15.1.15,0,.32,0,0,0,0,0,0,0a.28.28,0,0,1-.25.06v.05h0c0,.05.09.08.1.14m.15,0s0-.06,0-.1v0h0l0,0s0,0,.05,0,.1-.16,0-.26l.07,0a.13.13,0,0,0-.07-.15l-.07,0-.05,0c-.08-.05-.09-.11-.15-.15a.17.17,0,0,0-.1,0,.07.07,0,0,0,0-.07s-.09,0-.13-.05,0,0,0,0h0L70,10.91c-.07-.08-.11-.18-.2-.24l-.11-.05a1.31,1.31,0,0,0-.38-.36,1.94,1.94,0,0,0-.72-.32c-.12.05-.16.12-.3.19a.08.08,0,0,1,0,.06c0,.06-.13.06-.18.13s0,.17,0,.19h0a.42.42,0,0,0,.23.45l.09.06.17.09.24.19a.34.34,0,0,0,.14,0,.28.28,0,0,1,0,.12l-.19.19,0,.1a.31.31,0,0,0-.14.12l-.21.35s-.08,0-.1,0v0a.16.16,0,0,1,0,.1l-.16.11a.08.08,0,0,0,0,.1l-.21.3s0,0,0,.06l0,.07h0a.71.71,0,0,1-.08.15l-.09.13a.7.7,0,0,0-.11.23.14.14,0,0,0-.13,0l-.07.22a.17.17,0,0,1-.14,0s0,.05,0,.1l-.07.08s-.07,0-.09,0v0s0,.05,0,.08l-.13.19a.33.33,0,0,1-.16.15.12.12,0,0,1,0,.11c0,.06-.12.08-.16.13a.28.28,0,0,0,0,.1l0,0s0,.12-.09.18-.06.07-.14,0h0s0,.09,0,.16-.15.09-.2.15a.17.17,0,0,0,0,.14s-.06.06-.09,0h0a.16.16,0,0,1,0,.19l-.08.11a.09.09,0,0,0,0,.06.13.13,0,0,0-.07.05l0,.3v0l.11.17a.16.16,0,0,1,.1,0,2.09,2.09,0,0,0,.15.15h0a1,1,0,0,0,.66-.13c.48-.64.93-1.26,1.36-1.88l.88-1.27a.73.73,0,0,0,.1-.23,0,0,0,0,0,0,0h0v0s.09-.08.13-.14l.36-.66c.19-.27.4-.29.56-.18s.24.26.35.34l0,0a.13.13,0,0,1,.11,0s0,0,0,0h0s.19.07.24,0v0c0,.06,0,.1.07.13s.19-.12.22-.16a.29.29,0,0,0,0-.1v-.07l-.07,0c.06,0,.15.07.22,0Zm-12.59-.85s0,0,0-.06h0s0,0,0,0l0,0m.73-.12a0,0,0,0,1,0,0s0,0,0,0,0,0,0,.05h0Zm2.7.64v0s0,0-.05,0,0,0,0,0a.05.05,0,0,1,0,0s0,0,0,0m-3-.92h0a0,0,0,0,1,0,0,0,0,0,0,1,0,0s0,0,0,0Zm4.1-2a.05.05,0,0,1,.06,0l0,.09s-.1,0-.09-.06m-1.12,2.71s0,0-.06,0a0,0,0,0,1,0-.05,0,0,0,0,1,0,0,0,0,0,0,1,0,0M60.65,6.9s0,.07-.06,0a0,0,0,0,1,0,0,.06.06,0,0,1,.07,0s0,0,0,0m-1.18,4.34h-.06s0,0,0,0l0-.06v0s.06.07.05.1h0m2.83,1.32s0-.1,0-.1v0c.08-.18,0-.36.1-.52a.35.35,0,0,1,.08-.13.76.76,0,0,1-.09-.44c-.16-.16-.11-.4-.2-.58s-.1-.34-.24-.4h0c-.06-.07,0-.23-.1-.25h0l0,0c-.3-.62-1-1.33-.82-2.1.29-.17.42-.63,1-.37a1.53,1.53,0,0,1,.58.49v.79a.53.53,0,0,0,.11.48s.12.06.11.11.14,0,.18,0a.1.1,0,0,1,0,.07h0c.05-.11.16.05.25,0v0c0-.06.08-.06.14-.09s.17-.31.32-.4a.23.23,0,0,0-.08-.19c0-.18.12-.25,0-.43a.05.05,0,0,0,0,0c0-.07-.06-.12,0-.22a.05.05,0,0,0,0,0c0-.1-.1-.19,0-.31h0a3.82,3.82,0,0,0-.31-.6h-.07a4.87,4.87,0,0,0-.53-.39.47.47,0,0,1-.27,0l-.09,0a.22.22,0,0,1-.14,0c-.09,0-.14-.13-.21-.16a.17.17,0,0,0-.12,0V6.44l-.21.06c-.08,0-.19,0-.25,0a.12.12,0,0,1,0,0c-.14,0-.32.17-.44.12h0l0,.06s0,0-.07,0a.16.16,0,0,1,0,.07s-.14,0-.2,0l0,.14s-.07.05-.11,0h0l-.09.21a.44.44,0,0,0-.17.21c-.07.16-.08.37-.16.54A.64.64,0,0,1,59.9,8a1.07,1.07,0,0,1,0,.56c.11.5.44,1,.6,1.55h0a4.06,4.06,0,0,1,.64,1.17,2.31,2.31,0,0,1,0,.91c-.06.15-.27.2-.34.35l-.45.1c-.08,0-.19-.07-.27,0a1.25,1.25,0,0,1-.51-.55c0-.3.21-.55,0-.87-.1-.08-.14-.2-.26-.26l-.14,0-.15-.08a.49.49,0,0,0-.46.13.27.27,0,0,1,0,.13l-.12.23c0,.09,0,.19,0,.27-.23.55.34,1,.24,1.2h.08c0,.1.2.07.15.19a2.55,2.55,0,0,0,.71.46,3.71,3.71,0,0,0,1,.24c.1,0,.27-.11.36-.07a.1.1,0,0,1,.05.06c0-.12.21,0,.24-.08a.13.13,0,0,0,0-.06c.18,0,.16-.25.33-.22.09-.18.29-.3.44-.5a.09.09,0,0,0,0-.08s.09,0,.12-.05a.23.23,0,0,0,0-.09s.05,0,.07,0Zm-9-9.62h0a0,0,0,0,1,0,0s0,0,0,0h0s0,0,0,0m1,.68s0-.05,0-.05h0v0s0,0,0,0Zm.8.19s0,0,0,0a.76.76,0,0,0,0-.16v0c0-.11-.07-.12-.06-.23l0,0v0c0-.06,0-.06-.09-.11a.31.31,0,0,0-.13-.06h-.14c-.06,0-.07,0-.12,0a.15.15,0,0,0-.13.1l-.11.15s0,0,0,0a1.05,1.05,0,0,1,.05.19.39.39,0,0,0,.13.25l.08.07a.19.19,0,0,0,.11,0,.25.25,0,0,0,.21,0c.09-.07.11-.19.23-.19m-1.54-.43s0,0,0-.14,0-.05,0-.13-.07-.06-.08-.1,0-.06,0-.06h0c0-.07,0-.05,0-.06l0,0h-.1s0-.06-.06-.06h0c-.07,0-.15,0-.22.07a1,1,0,0,0-.16.27s0,0,0,.06,0,0,0,0v0h0v0a.44.44,0,0,0,.08.25.34.34,0,0,0,.24.13l.07,0,0,0a.11.11,0,0,0,.09,0c.12-.11.17,0,.28-.28Zm-1.67,5s0,0,0,0,0,0,0,0,0,0,0,0h0s0,0,0,.05M52.22,7a0,0,0,0,1,0-.05,0,0,0,0,1,0,0h0a.09.09,0,0,1,0,.07s0,0,0,0m-.46,1.8h0s0,0,0-.06,0-.05,0,0h0s0,0,0,.06a0,0,0,0,1,0,0m.06.41h0s0,0,0-.06,0,0,0,0a.08.08,0,0,1,0,.08s0,0,0,0m-.14.08s0,0,0,0h0s0-.1,0-.14,0,0,0,0h0s0,0,0,.06ZM52,8.09h0s0,0,0-.06,0,0,0,0h0A.06.06,0,0,1,52,8a0,0,0,0,1,0,.05m-.3,1a.3.3,0,0,1,0-.16s0-.06.06-.05,0,.06,0,.11,0,.12,0,.1m.41-1.44a.34.34,0,0,1,0,.1.22.22,0,0,1-.1.12h0s0-.07,0-.14,0-.15.07-.14h0l0,0m0-.14a1,1,0,0,1,0-.29c0-.09.05-.16.08-.15s0,.12,0,.22-.06.23-.08.22m2,0-.47,2.27c0,.27-.18.77-.73.74h-.06a1.94,1.94,0,0,1-.44,0,.6.6,0,0,1-.23-.1c-.21-.17-.47-.45-.41-.76v0a.17.17,0,0,1,0-.1l.15-.33a.22.22,0,0,0,0-.17.17.17,0,0,0,0-.1c0-.12,0-.27.06-.41a.6.6,0,0,1,.11-.26.8.8,0,0,1,0-.27c0-.19.12-.36.17-.57s.08-.2.09-.29a.22.22,0,0,0,0-.19s0-.07,0-.1l.07-.24a.21.21,0,0,0,0-.2.58.58,0,0,0,.13-.26.19.19,0,0,0,0-.11.92.92,0,0,1,.55-.7,1.2,1.2,0,0,1,.5,0,.77.77,0,0,1,.43.22l.11.06a1.31,1.31,0,0,1,.2.72,1.85,1.85,0,0,1,0,.23l-.14.57a2,2,0,0,0,0,.41m.83.23A.71.71,0,0,0,55,7.49L55.06,7a.76.76,0,0,1,0-.11c0-.1.06-.2.08-.3a1.9,1.9,0,0,0-.47-1.68l-.62-.4a.5.5,0,0,0-.2-.08,7.41,7.41,0,0,0-.79,0,3.27,3.27,0,0,0-.63.21c-.27.16-.43.17-.64.52a7.42,7.42,0,0,0-.35,1.27l-.2,1-.09.39,0,.14,0,.27-.26,1.24,0,0a1.36,1.36,0,0,0,.08.69c0,.13.17.2.15.31a1.86,1.86,0,0,0,1.12.94l.18.05A1.8,1.8,0,0,0,54,10.85c.15-.31.41-.5.48-.87l0-.15.15-.52a.94.94,0,0,0,0-.25.51.51,0,0,0,.07-.17l0-.28,0-.09Zm-8.75.15h0a0,0,0,0,0,0,0s0,0,0,0h0s0,0,0,0m-.39,2.4s0,0,0,0a0,0,0,0,0,0,0s0,0,0,0,0,0,0,0Zm.92.19s-.05,0-.05,0,0,0,0,0l0,0ZM44.13,5.07s0,0,0,0,0,0,0,0,0,0,0,0,0,0,0,0m2.08,2.08s-.05,0-.05,0a.05.05,0,0,0,0,0s0,0,0,0,0,0,0,0m-2.34,3.77,0,0s0,0,0,0l0,0h0a.08.08,0,0,1,0,0,0,0,0,0,1,0,0m2.22-3.31h0s0,0,0,0a0,0,0,0,0,0,0s0,0,0,0Zm.56,3s0,0,0,0,0,0,0,0h-.06a.05.05,0,0,1,0-.05h0m-3,.29s-.06,0-.06,0v0l0,0s0,0,0,0,0,0,0,0ZM44,6h0a0,0,0,0,1,0,0s0,0,0,0h0a0,0,0,0,1,0,0,0,0,0,0,1,0,0m1.64-.55s0,0,.06,0,0,0,0,0a.07.07,0,0,1,0,0s0,0,0,0Zm.44,1.85s-.06,0-.06.08,0,0,0,0a.06.06,0,0,0,.05,0,.08.08,0,0,0,0,0,0,0,0,0,0,0,0Zm-.71-3.14a0,0,0,0,0,0,0s0-.08-.07-.08h0s0,0,0,.06,0,0,0,0h0l0,0m.72,3.39a0,0,0,0,0-.05,0s0,0,0,0,0,.06,0,.06h0a0,0,0,0,0,0,0Zm-.14,3s-.06,0-.06-.08,0,0,0,0h0s.08,0,.08.05a.09.09,0,0,1,0,0Zm.74.21s0,0-.05,0a.05.05,0,0,1,0,0h0s0-.05,0-.05h0a.06.06,0,0,1,.05.06M43.34,5.48l-.05,0,0,0h0s0-.08.07-.08h0a.05.05,0,0,1,0,.08m3.45,5.27s0,0,0,0,0,0,0-.06v-.06c0-.06-.08-.08-.08-.12v0s0,0,0,0,.09.14.09.21,0,0,0,0m-2.59.09a.26.26,0,0,1-.11.07s0,0,0,0,.08,0,.1-.07,0,0,0-.07v-.07s0-.1,0-.15,0,0,0,0,0,0,0,.1l0,.2a.09.09,0,0,1,0,.05m1.56-5.2a1.34,1.34,0,0,1,0,.2,1.13,1.13,0,0,1-.52,1,1,1,0,0,1-.57.14h-.5c-.08-.11-.11-.24-.12-.63V5.9s-.05,0-.05-.06h0c0-.15,0-.37,0-.52a.28.28,0,0,1,0-.15A.23.23,0,0,1,44.07,5a.36.36,0,0,1,.31-.12l.39,0a1.11,1.11,0,0,1,.85.47.09.09,0,0,0,0,.05c0,.09.11.15.15.24m1,4.91c-.19-.63-.34-1.2-.5-1.79-.1-.38-.21-.78-.34-1.19a.25.25,0,0,1,0-.09.53.53,0,0,1,.21-.37,1.82,1.82,0,0,0,.47-1.3,2,2,0,0,0-.2-.82,2.13,2.13,0,0,0-1.1-.81s-.07,0-.07,0a3.65,3.65,0,0,0-.87-.07h-.74l-.19,0h-.19l-.07.07c0,.35,0,.76,0,1.12l0,.26a.16.16,0,0,0,.06.08,8.81,8.81,0,0,0,0,.89l0,2.29a3.59,3.59,0,0,1,.05.46v.43a1.24,1.24,0,0,1,0,.27c0,.16,0,.32,0,.48a2,2,0,0,0,.06.54l.37,0H44a.77.77,0,0,0,.26-.09s0-.4,0-.58c0-.53-.09-1-.1-1.6V8.45a.41.41,0,0,0,0-.11l0-.3a.49.49,0,0,1,0-.2l.27,0H45a.41.41,0,0,1,.12,0s0,0,.07.05c.08.32.17.64.25,1s.24.91.32,1.39c.14.14,0,.37.14.43v0a.87.87,0,0,0,.15.31l.31-.06a3.29,3.29,0,0,1,.36,0c.09,0,.11-.06.11-.11a.78.78,0,0,0-.05-.18M34.62,5.9s0,0,0,0a0,0,0,0,1,0,0h0s0,0,0,0,0-.07,0-.07Zm.11.32c0,.07,0,.09,0,.09l-.08,0h0a.35.35,0,0,1,.11-.09h0m1.41-.76a.05.05,0,0,1,0,0s-.07,0-.07,0a.07.07,0,0,1,0-.06h0s0,0,.07,0Zm3,6a.08.08,0,0,1,0,.07.06.06,0,0,1-.07,0v0s0,0,0,0,.06,0,.07,0m-4-3.18a.19.19,0,0,1-.1-.1,0,0,0,0,1,0,0h0s.07.05.08.09,0,0,0,0Zm3-3.16a.68.68,0,0,0-.47-.24,1.47,1.47,0,0,1-.47.17c-.21,0-.45.07-.66.11h0s-.07.06-.11.07l-.06,0h-.13s0,0,0,.08a.41.41,0,0,0-.22,0l-.35.12h-.21c-.06,0-.09.11-.13.12s0,0,0,0l-.18,0a.73.73,0,0,0-.52.36s0,0,0,0-.06.06-.05.11v0c0,.14.13.4.4,1.6a1.06,1.06,0,0,0,0,.31l.05.21c0,.08,0,.14,0,.22l0,.17a1.52,1.52,0,0,1,0,.44.11.11,0,0,1,0,.08l0,.18a.2.2,0,0,0,.08.13v.4a1.84,1.84,0,0,1,.17.5c0,.16.07.33.11.48a1.12,1.12,0,0,0,0,.24c0,.1.05.2.08.3s0,.14,0,.18h0a1,1,0,0,1,.08.18.27.27,0,0,1,0,.09.09.09,0,0,0,0,.07c0,.08.13.15.15.24a.08.08,0,0,0,0,.07c0,.11.24.08.27.21v0c.12-.1.34-.08.47-.19l.12,0c.23,0,.46,0,.67-.06l.08,0a.91.91,0,0,0,.23,0l.82-.25.16,0h.3a.15.15,0,0,0,.1-.07s.05,0,.07,0,.09-.08.16-.09h0c.18-.11.08-.34.09-.51a.41.41,0,0,0,0-.11.38.38,0,0,0-.28-.3c-.48.09-.95.16-1.42.26a7.7,7.7,0,0,0-.94.26c-.11-.05-.22-.09-.25-.21-.13-.59-.22-1.09-.31-1.66.05-.09.1-.18.19-.21a4.46,4.46,0,0,0,.51-.07l.68-.15a2,2,0,0,1,.43,0c.13-.15.34-.1.5-.28l0-.23,0-.18a.31.31,0,0,0-.22-.29c-.16-.06-.4,0-.49,0l0,.09c-.33.06-.6.08-.89.14a.9.9,0,0,0-.22.06,1.09,1.09,0,0,1-.31.14.35.35,0,0,1-.28-.05c0-.17-.09-.34-.13-.52l-.23-1V6.55c0-.14.07-.17.17-.2l.16,0,.09,0c.29,0,.65-.08.92-.13a1.7,1.7,0,0,1,.37-.1l.06,0a1.67,1.67,0,0,0,.74-.28,1,1,0,0,0,.06-.61M26.17,9.44l0,0s0,0,0,0h0s0,0,0,0,0-.07,0-.07Zm.18.29a.19.19,0,0,1,0,.1h-.11s.05-.09.08-.1h0m1.21-1s0,.05,0,.06-.06,0-.07,0a0,0,0,0,1,0-.06,0,0,0,0,1,0,0,.08.08,0,0,1,.08,0Zm4.22,5.25s0,.06,0,.08a.07.07,0,0,1-.08,0v0s0,0,0,0a0,0,0,0,1,.07,0M27.2,11.69s-.11,0-.12-.08,0,0,0,0h0s.09,0,.1.08,0,0,0,0ZM29.42,8a.64.64,0,0,0-.51-.14,1.68,1.68,0,0,1-.42.27c-.2.09-.42.16-.63.24h0c-.05,0-.06.07-.1.09h-.06s-.09,0-.13,0a.09.09,0,0,0,0,.1.36.36,0,0,0-.21,0L27,8.79a.58.58,0,0,1-.19,0h0c-.06,0-.07.14-.11.15s0,0-.05,0L26.46,9a.79.79,0,0,0-.44.46l0,0s0,.08,0,.12v0c.06.14.21.37.73,1.48a.88.88,0,0,0,.09.3l.1.19a1.31,1.31,0,0,0,.08.21l.07.16a1.66,1.66,0,0,1,.15.41l0,.08.05.17a.2.2,0,0,0,.11.11l.07.4a1.81,1.81,0,0,1,.28.45A3.55,3.55,0,0,0,28,14a.75.75,0,0,0,.07.23c0,.09.1.19.15.28s0,.14,0,.18h0s.09.09.12.15,0,.06,0,.09a.11.11,0,0,0,0,.08c0,.07.16.11.2.19s0,.06,0,.07.25,0,.31.16v0c.1-.13.32-.15.42-.29l.1-.06c.22-.09.45-.11.65-.2l.07,0a.58.58,0,0,0,.22-.08l.74-.42.15-.05,0,0,.27,0a.22.22,0,0,0,.09-.1h.06c.05,0,.08-.1.14-.13l0,0c.15-.14,0-.35,0-.52a.42.42,0,0,0,0-.1.37.37,0,0,0-.34-.23c-.44.18-.89.36-1.33.56-.29.14-.58.28-.86.45a.36.36,0,0,1-.29-.15c-.25-.55-.45-1-.65-1.55,0-.11.06-.21.14-.25a4.68,4.68,0,0,0,.48-.18l.63-.29a2.48,2.48,0,0,1,.41-.15c.1-.17.31-.16.43-.37l-.07-.22-.08-.18a.32.32,0,0,0-.28-.23c-.16,0-.37.12-.47.1l0,.09c-.31.13-.56.21-.83.33l-.21.11a.9.9,0,0,1-.27.2.39.39,0,0,1-.28,0A4.44,4.44,0,0,1,27.7,11l-.44-1-.06-.16a.2.2,0,0,1,.13-.23l.15-.05.08-.06c.28-.11.62-.22.88-.33L28.77,9l.06,0a1.7,1.7,0,0,0,.66-.44,1,1,0,0,0-.07-.6m-8,4.82s0,0,0,0h0s0,0,0,0h0M20,15.42v0h-.06s0,0,0-.06h0Zm1.14,1.51h0a0,0,0,0,1,0,0s-.05,0-.05,0h0s0,0,0,0,0,0,0,0M22,18s0,0,0,0,0,0-.05,0a.1.1,0,0,1,0,0Zm-1.44-1.82s0,0,.05,0,0,0,0,0h0s0,0,0,0,0,0,0,0ZM20.2,13.4s0,0,0,0,0,0,0,0v0s0,0,0,0,0,0,.05,0m.47,2.92h0s0,0,0,0v0h-.05a0,0,0,0,1,0,0l.09,0v0m.32.36v0s0,0,0,0l-.05,0h0s0-.1,0-.08ZM19.2,14.35v0l0,0v0s0,0,0-.06Zm.61.8a.08.08,0,0,1,0,0s0,0-.05,0,0,0,0,0h0a.06.06,0,0,1,.07,0m0,.13s0,0,0,0,0,0,0,0h0s0,0,0-.05h0a0,0,0,0,1,.06,0Zm1.87,2.45h0l0,0a0,0,0,0,1-.06,0s0,0,0,0a.06.06,0,0,1,.06,0Zm0-4.77s0,0,0,0l0,0a0,0,0,0,1,0,0s0,0,0,0h0s.07,0,.08,0Zm-.85,3.56,0,0,0,0,0,0v0a.06.06,0,0,1,.09,0s0,0,0,0Zm1.1,1.29a.39.39,0,0,1-.06.11h0l0,0a.09.09,0,0,0,0-.1v0l.05,0Zm-.58-.56h-.07s0,0,0,0,0-.05,0-.07,0,0,.05,0l.05,0a.16.16,0,0,1,0,.07m.28-4.53,0,0s0,.12,0,.14h0s-.05,0-.06,0,0,0,0-.06,0,0-.05,0h0v0l0,0s0,0,.05,0m.37,0-.26-.31a.59.59,0,0,1-.1-.17.18.18,0,0,0-.23,0l-.26.23-.95.72-.19.17c-.27.2-.55.4-.85.6l0,0c-.07,0-.11.13-.17.18a.16.16,0,0,1-.12,0c0,.05,0,.07,0,.12.25.28.49.56.71.86a4.8,4.8,0,0,1,.36.52c.27.31.51.63.76,1l.59.78.16.16v0a.2.2,0,0,0,0,.13c.08.09.22.16.3.26a.3.3,0,0,1,.06.14s.06,0,.09.05.06.15.1.21l.08,0a.21.21,0,0,0,0,.13l.1.12a.29.29,0,0,1,0,.08.93.93,0,0,1,.13.15l.34.52,0,.07c.07,0,.17.11.25.07a.21.21,0,0,0,.18,0c.1-.07.12-.24.23-.32l.11-.05h0a.06.06,0,0,1,0-.06.12.12,0,0,1,.08,0,.21.21,0,0,0,0-.26,1,1,0,0,1-.29-.28l-.09-.13a1.17,1.17,0,0,0-.21-.23c-.29-.37-.62-.72-.92-1.12l0-.05a.2.2,0,0,0,0-.08l-.15-.16a.14.14,0,0,1,0-.19l1.67-1.27a.1.1,0,0,0,0-.14l0,0a.21.21,0,0,1,0-.11c-.2-.12-.32-.38-.53-.45-.52.45-1.09.87-1.63,1.32a.25.25,0,0,1-.2-.09l-.12-.2L21,15.6a.41.41,0,0,0-.08-.19l-.19-.22a.47.47,0,0,1-.07-.12,1.64,1.64,0,0,1-.21-.25l-.11-.14a1.27,1.27,0,0,0-.22-.25.23.23,0,0,1,.1-.26l.25-.15a.3.3,0,0,0,.08-.08,1.61,1.61,0,0,0,.33-.2l.39-.32.14-.1.11-.09.35-.26a.53.53,0,0,0,.19-.23Zm-6.72,5.67s0,0,0,0,0,0,0,0,0,0,0,0h0m-.88,2.86s0,0,0,0,0,0,0,0h0s0-.05,0-.07h0Zm1.41,1.26h0s0,0,0,.05-.05,0-.05,0h0s0,0,0-.05,0,0,0,0m1,.92s0,0,0,.05h-.05s0,0,0,0Zm-1.76-1.52s0,0,.05,0a0,0,0,0,1,0,0h-.05a0,0,0,0,1,0,0Zm-.88-2.69s0,0,0,.05,0,0,0,0v0s0,0,0,0,0,0,.05,0m1,2.78h0s0,0,0,0h0s0,0,0,0,.07-.05.08,0a0,0,0,0,1,0,0m.38.29,0,0s0,0,0,0a.06.06,0,0,0-.05,0h0s0-.09,0-.08Zm-2.21-1.94v0l0,0h0a.07.07,0,0,1,0-.06Zm.75.67a0,0,0,0,1,0,0s0,0,0,0,0,0,0,0h0a0,0,0,0,1,.07,0m.07.12s0,0,0,0l0,0,0,0s0,0,0,0h0a0,0,0,0,1,.07,0Zm2.31,2h0s0,0,0,0,0,0-.06,0a0,0,0,0,1,0-.05.06.06,0,0,1,.06,0Zm-1-4.68s0,0,0,0,0,0,0,0,0,0,0,0a0,0,0,0,1,0,0h0a.05.05,0,0,1,.07,0Zm-.15,3.67,0,0s0,0,0,0l0,0v0a.06.06,0,0,1,.09,0s0,0,0,0Zm1.33,1.05a.21.21,0,0,1,0,.11s0,0,0,0l0,0a.07.07,0,0,0,0-.09v0l0,0Zm-.68-.44-.06,0,0,0s0-.05,0-.07a.07.07,0,0,1,.06,0l.05,0s0,0,0,.07m-.6-4.5a.06.06,0,0,1,0,0s.07.1,0,.13h0l-.06,0s0,0,0-.06a.05.05,0,0,0-.05,0h0s0,0,0,0l0,0h0m.36-.09-.31-.26a.62.62,0,0,1-.14-.14.17.17,0,0,0-.22.05L15,18.1l-.79.89c-.06.07-.1.14-.16.2-.22.25-.46.5-.71.75l0,0c-.06.07-.09.15-.14.21a.21.21,0,0,1-.11.07s0,.06.05.11c.29.22.58.45.86.7s.3.29.45.45c.32.24.63.52.93.79L16,23l.19.13a.09.09,0,0,1,0,.05.16.16,0,0,0,.07.11c.09.08.24.12.34.2a.29.29,0,0,1,.08.13.12.12,0,0,1,.1,0c.06.06.09.14.15.19a.11.11,0,0,0,.07,0,.36.36,0,0,0,.08.12l.12.09s.05,0,.05.08a1,1,0,0,1,.17.12l.43.45.06.06c.08,0,.19.07.26,0a.18.18,0,0,0,.17-.06c.08-.09.07-.26.17-.36a.26.26,0,0,1,.1-.07h0a.08.08,0,0,1,0-.07l.07,0a.24.24,0,0,0-.08-.25.83.83,0,0,1-.34-.22l-.12-.11a1.05,1.05,0,0,0-.25-.18c-.35-.32-.75-.59-1.12-.92l-.06,0a.24.24,0,0,0-.06-.08l-.17-.12a.15.15,0,0,1,0-.19l1.4-1.57a.12.12,0,0,0,0-.14l0,0a.18.18,0,0,1-.07-.1c-.22-.07-.39-.31-.6-.34-.43.54-.91,1.07-1.35,1.62a.23.23,0,0,1-.21-.06l-.16-.17a.13.13,0,0,0-.06,0,.39.39,0,0,0-.11-.17l-.23-.17a.31.31,0,0,1-.09-.11,1.33,1.33,0,0,1-.26-.21l-.13-.11a1.94,1.94,0,0,0-.27-.21.24.24,0,0,1,0-.27l.22-.19a.53.53,0,0,0,.06-.1,1.37,1.37,0,0,0,.28-.26l.33-.39.12-.12.08-.11.3-.33a.51.51,0,0,0,.14-.26ZM14.25,30.66s0,0,0,.07-.11.12-.13.1,0-.13,0-.14.05-.05.08,0m-.68-2.75c.07,0,0,.09,0,.17l-.26.45A2.18,2.18,0,0,1,13,29s-.1,0-.15,0-1.61-1.47-1.73-1.59a.14.14,0,0,1,0-.2c0-.08.1-.07.17,0,.5.23,1.1.25,1.6.52l.09,0,.08,0a.31.31,0,0,1,.16.06,1.92,1.92,0,0,0,.33.14Zm2.31-.19c-.94-.33-1.9-.63-2.84-.95A24.45,24.45,0,0,0,10.66,26c-.45-.11-.92-.51-1.39-.31,0,0,0,0,0,0l-.09.12a.42.42,0,0,0,0,.06l-.07,0a.7.7,0,0,1,0,.12.11.11,0,0,1-.06,0,.17.17,0,0,1,0,.12l-.06,0v0s.1.07.08.1a0,0,0,0,1,0,0l0,0h0a0,0,0,0,0,0,.06h0c.07,0,0,.1.1.15v.1s0,0,0,0,0,0,0,0a.11.11,0,0,1,.08,0c.06,0,.09.11.16.15H9.3c.06,0,.07.12.14.16l.06,0c.36.28.67.63,1.05.91l.13.14.07,0a5.52,5.52,0,0,0,.6.57l.06,0c.09.06.1.15.16.24a.2.2,0,0,1,.13,0c.08.05.14.16.21.22a.15.15,0,0,1,.07,0,.19.19,0,0,1,.08.1,5.5,5.5,0,0,1,.47.49h0l.22.2h0c.08.09.19.15.25.25l.07,0,.22.24c.25.15.37.44.63.59l0,0,.12.06a.21.21,0,0,1,.19-.05.11.11,0,0,1,0-.09.21.21,0,0,1,.06-.08.2.2,0,0,1,0-.15l.13-.19a.25.25,0,0,0,0-.17s0-.13-.08-.16h0c-.08-.45-.76-.51-.75-1a1.65,1.65,0,0,0,.28-.36l.38-.74c.12-.21.49,0,.64.09s.55.43.89-.13c.09-.16.22-.44,0-.56ZM6.62,36.19a0,0,0,0,1,0,0s0,0,0-.05h0s0,0,0,0m5.28-1.54h0s0,0,0,0h0a0,0,0,0,1,0,0m-.07,0a0,0,0,0,1,0,0s0,0,0,0h0s0,0,0,0M7.66,35.94s0,0,0,0,0,0,0,0h0s0,0,0,0ZM9,35.09a0,0,0,0,1,0,0H9Zm-2.59.23s0,0,0,0h0a0,0,0,0,1,0,0s0,0,0,0M11.91,37s0,0,0,.05,0,0,0,0Zm-4.6-4h0a0,0,0,0,1,0,0,0,0,0,0,1,0,0,.08.08,0,0,1,0,0h0m-.17,0s0,0,0-.07h0ZM8.2,36s0,0,0,0l-.05,0s0,0,0,0,0,0,0,0m3.48,1s0,0,0,0l0,0,0,0ZM8.06,36s0,0,0,0a0,0,0,0,1,0,0,.05.05,0,0,1,0,0s0,0,0,0m.3,0s0,0,0,0l0,.06s-.08,0-.07,0,0,0,0,0m2.15-1.5a.18.18,0,0,1,0,.06l-.05,0s.06,0,.07,0Zm-2.33-.45a.15.15,0,0,1,0,.07s0,0,0,0a0,0,0,0,1,0-.05s0,0,0,0m2,3.4a0,0,0,0,1,0,0s0,0,0,0a.05.05,0,0,1,0,0s0,0,0,0Zm-.3-2.88s0,0,0,0,0,0,0,0,0,0,0,0h0M8.08,34s0,0,0,0l0,0,0,0ZM7,35.6H7s0,0,0-.05H7s0,0,0,.07m2.42-.93a0,0,0,0,1,0,0s0,0,0,0h0l0,0v0s0,0,0,0Zm1.23-.1s0,0,0,.06h-.05s0,0,0,0l0,0s0,0,0,0Zm-3.29,2h0s0,.06,0,.06l0,0s0,0,0-.07m1.13-2.2v0s0,0-.05,0h0s0-.06,0,0Zm3.53.38s0,0,0,0,0,.06-.07,0h0s0,0,0,0,0,0,.06,0Zm-1.41,1.72a0,0,0,0,1,0,.05s0,0,0,0a.11.11,0,0,1,0-.09h0m-2-2c0,.06,0,.09-.09.07h0a.16.16,0,0,1,0-.07,0,0,0,0,1,.05,0ZM11,37.73h0a.18.18,0,0,1,.08.06.15.15,0,0,1-.09,0s0,0,0,0Zm-3.5-2a.09.09,0,0,1-.11,0l0,0s.09,0,.12,0,0,0,0,0m.4-1.83A.12.12,0,0,1,8,34s0,0-.07.09v0s0-.11,0-.1,0-.11.1-.1m1,.65a.11.11,0,0,1,0,.06s-.06.11-.1.1-.07,0-.05-.11,0,0,0,0,0,0,0,0l.05,0s0,0,0,0Zm3.79-.11a.13.13,0,0,0-.06-.05l-.29.06a.09.09,0,0,1,0,0c-.47.2-.92-.07-1.48.07l-.07,0a.13.13,0,0,0,0-.07c-.05,0-.12,0-.17,0s0,0,0,0a.15.15,0,0,1-.16,0l-.13-.05-.07,0c-.13.16-.34,0-.51.08l-.06,0c-.1,0-.21.09-.29.06a.13.13,0,0,1-.08-.07s-.06.09-.09.08l0,0s0,0,0,0-.14.08-.2.06h0a.35.35,0,0,0-.15-.12.17.17,0,0,0-.12,0A7,7,0,0,0,8,33.82c-.07,0-.06-.18-.16-.21h0c0-.06-.15-.06-.12-.14v0s0-.09-.08-.1,0,0,0,0-.22-.19-.2-.33,0,0,0-.06l-.12,0c-.13-.22-.42-.3-.54-.53a.65.65,0,0,0-.56.49,1.26,1.26,0,0,0,0,.57c.84.86,1.73,1.68,2.62,2.46,0,0,0,0,0,.06s-.06.06-.07.09l-.42-.17a.79.79,0,0,0-.22,0,4.57,4.57,0,0,0-.79-.41H7.06s0,0,0,0l-.16,0c-.31-.11-.57-.35-.85-.45a.65.65,0,0,0-.39,0l0,.12a.54.54,0,0,0-.33.37v0l0,.16c0,.09.08.18.06.24s0,0,0,.07,0,0,0,0h.09s.13.1.11.16l0,0h.06l0,0a.09.09,0,0,0,.06.06h.13l.1,0,.39.09,1.6.54a1.67,1.67,0,0,1,.3.08c.09,0,.18.06.27.11a.33.33,0,0,1,.14,0l.2.09a.25.25,0,0,0,.15,0l.11.06H9l.06.1.07,0,.07,0a.2.2,0,0,1,.12.09.14.14,0,0,1,.12,0l.17.1c.09,0,.14,0,.2,0s.1.12.15.14,0,0,0,0c.31.06.6.2,1,.27l.18.08a.23.23,0,0,0,.18,0l.09,0a.83.83,0,0,0,.44.06v-.07c.15,0,.08-.16.23-.11a1.9,1.9,0,0,1,.08-.37.89.89,0,0,1,.05-.13c-.07-.1,0-.27-.09-.31s0,0,0,0a.35.35,0,0,0-.24-.22c-.15,0-.33,0-.47-.1s0-.07,0-.08a.53.53,0,0,1-.33,0,.29.29,0,0,1-.12-.07.12.12,0,0,1-.1,0c-.07,0-.12-.08-.18-.11h0A.77.77,0,0,0,10.2,36l-.11,0c0-.19-.35-.18-.27-.4v0c.22,0,.42.14.63,0s.31.07.43,0a17.47,17.47,0,0,0,1.78,0,.64.64,0,0,0,.19-.28l.09-.33,0-.1a1.22,1.22,0,0,0-.27-.41" transform="translate(-1.42 -1.42)"/><path class="c" d="M87.07,47.54s0,0,0,0,0,.06-.07.06h0l0,0a.06.06,0,0,1,0-.06Zm-.2,0a.06.06,0,0,1-.06,0s0,0,0,0a.06.06,0,0,1,.06-.05,0,0,0,0,1,.05,0Zm.87.81s0,0,0,.07,0,0,0,0h0s0,0,0-.05a.07.07,0,0,1,0-.06Zm0,.75s.07,0,.07,0h0a0,0,0,0,1-.05.05h0s0,0,0-.05,0-.06,0-.06m-.94-1.42a.07.07,0,0,1-.07.07.07.07,0,0,1,0-.07s0,0,.07,0,0,0,0,0Zm-1,1.32s0,0,0,0a.1.1,0,0,1,0,.07h0a.08.08,0,0,1-.07-.07v0a.09.09,0,0,1,.07,0l0,0m0-.94a.09.09,0,0,1,0,.06s0,0-.05,0a.07.07,0,0,1-.07-.06s0-.06.06-.06Zm0,1.21s0,0,0,.07a.07.07,0,0,1-.06.07h0a.07.07,0,0,1,0-.06s0-.08,0-.07Zm1.66-1.5h0a.1.1,0,0,1,.09.08v0a.08.08,0,0,1-.08,0c-.05,0-.08,0-.07-.07a.09.09,0,0,1,0-.07m.25.28s0,0,0,.08a.09.09,0,0,1-.05.09h0a.1.1,0,0,1-.08-.05v0a.1.1,0,0,1,.11-.09Zm-1.89-.27s0,0,0,.07v0a.13.13,0,0,1-.14.13s0,0,0-.07.06-.2.12-.2,0,0,0,0m.76-.42c-.28,0-.59.08-.71.32-.44.13-.26.58-.41.93a.7.7,0,0,1,.09.43.82.82,0,0,1,0,.21c.13.16.16.34.36.41,0,.12.44.18.54.25s.2.09.26.1.13-.09.26-.08.21.06.29.06a.12.12,0,0,0,.12-.08c.06-.29.28-.1.31-.32h0a.21.21,0,0,0,.21-.18.22.22,0,0,0-.1-.17.43.43,0,0,0,.08-.24c0-.16,0-.34,0-.49a.34.34,0,0,1,0-.1h0a1.62,1.62,0,0,0,0-.2.16.16,0,0,0-.14-.19.25.25,0,0,0,0-.07c0-.12-.19-.16-.2-.33a.37.37,0,0,0-.3-.15h-.28l-.1,0c0-.06,0-.08-.07-.08s-.12.05-.18,0a.09.09,0,0,1-.09-.06M82.89,57.64h0s0,0,0,0h0a0,0,0,0,1,0,0M88,55.53h0a0,0,0,0,1,0,0h0s0,0,0,0m-.07,0a0,0,0,0,1,0,0s0,0,0,0h0s0,0,0,0m-4,1.72s0,0,0,0,0,0,0,0h0s0,0,0,.05Zm1.27-1s0,0,0,0,0,0,0,0h0Zm-2.54.51s0,0,0,0l0,0s0,0,0,0,0,0,0,0m5.61,1.06a0,0,0,0,1,0,0s0,0,0,0Zm-5-3.47h0v0s0,0,0,0,0,0,0,0l0,0m-.16,0s-.06,0,0-.06a0,0,0,0,1,0,0Zm1.37,2.83s0,0,0,0,0,0,0,0,0,0,0,0,0,0,0,0m3.57.63s0,0,0,0l0,0,0,0Zm-3.71-.55s0,0,0,0,0,0,0,0,0,0,0,0a0,0,0,0,1,0,0m.31,0h0l0,.06s-.09,0-.08,0h0m2-1.72s0,0,0,.06l0,0s.06,0,.06-.05Zm-2.36-.19a.11.11,0,0,1,0,.06s0,0,0,0a0,0,0,0,1,0-.05s0,0,0,0m2.38,3.16a0,0,0,0,1,0,0s0,0,0,0,0,0,0,0h0ZM86,55.73a0,0,0,0,1,0,0l0,0a.08.08,0,0,1,0,0s0,0,0,0M84.1,55.3s0,0,0,0a.21.21,0,0,0,0,.06l0-.06ZM83.2,57h0a0,0,0,0,1,0,0h0s0,0,0,.06m2.32-1.18s0,0,0,0,0,0,0,0h0s0,0,0,0,0,0,0,0Zm1.21-.24s0,0,0,.06h0l0,0,0,0,0,0Zm-3.06,2.36,0,0s0,0,0,.06,0,0,0,0a.06.06,0,0,1,0-.06m.89-2.32v0s0,0,0,0h0s0-.06,0-.06Zm3.54,0a0,0,0,0,1,0,0s0,.06-.07,0h0v0s0,0,0,0Zm-1.21,1.87s0,0,0,0,0,0,0,0a.12.12,0,0,1,0-.08,0,0,0,0,1,0,0M84.66,55.7c0,.07,0,.1-.08.08h0s0-.05,0-.07,0,0,0,0Zm2.79,3h0s.08,0,.08.06a.15.15,0,0,1-.09,0s0,0,0,0Zm-3.71-1.63a.08.08,0,0,1-.09.06l0,0s.08-.06.11,0a0,0,0,0,1,0,0m.2-1.86a.08.08,0,0,1,0,.07s0,0,0,.09,0,0,0,0,0-.1-.06-.1,0-.11.08-.1m1.06.53a.11.11,0,0,1,0,.07s-.05.11-.09.1-.08,0-.07-.1,0,0,0,0l0,0s0,0,0,0l0,0Zm3.76-.52a.17.17,0,0,0-.07,0l-.28.09-.06,0c-.44.25-.92,0-1.45.24l-.07,0s0-.06-.06-.06-.11,0-.17,0h0a.18.18,0,0,1-.16,0l-.13,0H86.2c-.12.16-.35,0-.5.13a.08.08,0,0,0-.07,0c-.1,0-.2.11-.28.08a.1.1,0,0,1-.08,0s0,.09-.09.08l0,0,0,0s-.14.09-.2.08h0a.31.31,0,0,0-.16-.1.14.14,0,0,0-.11,0c-.19-.16-.42-.3-.62-.45s-.08-.18-.18-.2h0s-.16,0-.14-.12v0s0-.08-.09-.09h0c-.06-.12-.24-.17-.23-.31s0,0,0,0h-.13c-.14-.21-.44-.25-.59-.47a.64.64,0,0,0-.5.54,1.12,1.12,0,0,0,0,.58c.92.76,1.89,1.48,2.87,2.16,0,0,0,0,0,0a.44.44,0,0,1-.06.1l-.43-.12a.6.6,0,0,0-.23,0,3.84,3.84,0,0,0-.83-.32l0,0-.13,0,0,0-.16,0c-.32-.07-.6-.29-.89-.35a.69.69,0,0,0-.4,0v.12a.58.58,0,0,0-.29.4v0l0,.16c0,.09.11.17.09.23l0,.07s0,0,0,0h.09s.14.08.12.14a0,0,0,0,1,0,0h.06v0a.06.06,0,0,0,.06.05.49.49,0,0,0,.13,0,.19.19,0,0,0,.1,0l.4.05,1.65.37a1.67,1.67,0,0,1,.31,0l.28.07h.14l.21.07a.26.26,0,0,0,.15,0,.33.33,0,0,0,.12,0h.09l.07.09.07-.06h.07a.19.19,0,0,1,.13.09.09.09,0,0,1,.11,0l.19.08c.09,0,.13,0,.19,0s.11.11.17.12h0c.32,0,.62.13,1,.17l.19,0a.23.23,0,0,0,.18,0l.09,0a1,1,0,0,0,.45,0l0-.06c.15,0,.07-.17.23-.14a1.29,1.29,0,0,1,0-.38.4.4,0,0,1,0-.13c-.08-.09,0-.27-.13-.3h0a.39.39,0,0,0-.25-.19c-.16,0-.34,0-.49,0s0-.07,0-.09a.5.5,0,0,1-.32,0,.31.31,0,0,1-.13-.06.1.1,0,0,1-.1,0c-.07,0-.13-.07-.19-.08h0a.76.76,0,0,0-.45-.38h-.11c-.06-.19-.37-.14-.32-.37v0c.21,0,.43.09.63,0s.32,0,.42-.08a16,16,0,0,0,1.76-.22A.52.52,0,0,0,89,56l.06-.34,0-.1c-.1-.12-.17-.3-.31-.38M83,64s0,0,0,0a0,0,0,0,0,0,0s0,0,0,0v0s0,0,0,0m2,1.44s0,0,0,0,0,0,0,0,0,0,0,0,0,0,0,0Zm.59-.74a.06.06,0,0,1-.06,0,0,0,0,0,1,0,0h0Zm-6-.14h0s0,0,0,.06,0,0,0,0,0,0,0,0m2.79-.91s0,.05,0,.05,0,0,0,0,0,0,0,0h0m2.31,3.79h-.07a0,0,0,0,1,0,0h.06s0,0,0,0m-2-3.48,0,0s0,0,0,0h0a0,0,0,0,0,0-.05Zm2.93.85s0,0,0,0,0,0,0,0v0s0,0,0,0,0,0,0,0,0,0,0,0,0,0,0,0m-1.1,2.83s0,0,0,0v0s0,0,0,0,0,0,.06,0l0,0ZM80.35,65s0,0,0,0,0,0,0,0,0,0,0,0v0s0,0,0,0,0,0,0,0m.26-1.71s0,0,0-.07,0,0,0,0a.07.07,0,0,1,0,.06h-.07Zm1.85.44s0,.08.05.09h0a0,0,0,0,0,0,0s0,0,0,0h0ZM79.33,63l0,0s-.09,0-.1,0h0s.05,0,.07,0,0,0,0,.06h0s0,0,0,0a.06.06,0,0,0,0-.06m3.35.9a0,0,0,0,0-.06,0,0,0,0,0,0,0,.05h.07s0,0,0,0Zm2.64,1.49a.15.15,0,0,1-.1,0s0,0,0,0h0s.06-.06.09,0a.06.06,0,0,1,0,0Zm.52-.56a0,0,0,0,1,0,0,.07.07,0,0,1,0,0h0a0,0,0,0,1,0-.06h0a0,0,0,0,1,.07,0m-6.21.61s0,0,0,0,0,0,0,0h0s-.06-.07,0-.1,0,0,0,0,0,0,0,0,0,0,0,0m6.25-.69a0,0,0,0,1,0,0s0,0-.07,0l0,0c-.06,0-.1,0-.14,0h0s0,0,0,0,.17,0,.23,0,0,0,0,0M84.8,67.08a.17.17,0,0,1,0,.12s0,0,0,0,0-.08,0-.11,0,0-.06,0l-.06,0L84.5,67l0,0s0,0,.1,0l.19.08s0,0,0,0m-3.94-3.74.18.08a1.13,1.13,0,0,1,.68.92,1,1,0,0,1-.13.57l-.22.46c-.13,0-.26,0-.61-.18L80.33,65s-.07,0-.08,0h0l-.45-.27a.24.24,0,0,1-.15,0,.2.2,0,0,1-.13-.14.39.39,0,0,1,0-.33c.06-.11.15-.23.2-.33a1.09,1.09,0,0,1,.8-.55s0,0,0,0,.18,0,.28,0m4.85,1.28c-.65-.11-1.23-.23-1.82-.36L82.68,64a.16.16,0,0,1-.09,0,.61.61,0,0,1-.24-.36,1.78,1.78,0,0,0-.94-1,2.15,2.15,0,0,0-.82-.2,2.2,2.2,0,0,0-1.23.62s0,0-.07,0a3.8,3.8,0,0,0-.46.74l-.32.67-.07.18-.09.16,0,.1c.34.13.7.32,1,.46l.21.16a.18.18,0,0,0,.1,0l.79.4,2.07,1,.42.17.35.17,0,0,.25.09.42.23a2,2,0,0,0,.51.19c.07-.15.1-.24.15-.34a1.46,1.46,0,0,1,.09-.16h0a.68.68,0,0,0,0-.27l-.53-.24c-.48-.23-1-.4-1.47-.64l-.21-.11-.1,0-.28-.11a.61.61,0,0,1-.16-.13,1.06,1.06,0,0,1,.09-.25l.28-.54a.24.24,0,0,1,0-.13s0,0,.07,0l1,.21a11.57,11.57,0,0,1,1.38.34c.18-.06.35.12.45.07h0a.83.83,0,0,0,.35,0s.06-.19.08-.3a2.92,2.92,0,0,1,.13-.34.11.11,0,0,0,0-.15l-.18,0m-5.62,9.11s0,0,0,.06h0l0,0ZM79.76,73h0v0a.06.06,0,0,1-.06,0s0,0,0,0l0,0m0,.76s0,0,0,0l0,0a.06.06,0,0,1,0-.06s0,0,0,0m-.28.95s0,0,0,0a.06.06,0,0,1,0,.07s0,0-.06,0,0,0,0-.06h0m-.35.28a0,0,0,0,1,0,0,0,0,0,0,1,0,0,0,0,0,0,0,0,0h0s0,0,0,0S79,75,79,75s.12-.07.18,0m-1.49-4.5h0a.16.16,0,0,1,0,.12s-.06,0-.07,0,0,0,0-.06,0,0,.05,0Zm-.31,1a0,0,0,0,0,.07,0s0-.08-.06-.12l0,0s0,0,0,0,0,.06,0,.1Zm2.94,2.2v.06h0s0,.05,0,.09a.22.22,0,0,1-.11,0c0-.06,0-.11,0-.15l.07,0m-.15.27c0,.09,0,.13,0,.17a.22.22,0,0,1-.07.07s0-.06,0-.08,0,0,.06,0,0-.07,0-.08a0,0,0,0,0-.06,0l0,0s0,0,.06,0m-2.06-3.15a.28.28,0,0,1,.1.13l-.13-.11s-.09-.08-.15,0a.06.06,0,0,1,0-.07s.07,0,.11,0l0,0Zm.16.25s0,0,0,.06,0,0,0,0,0-.07,0-.08-.05.07-.12,0a0,0,0,0,1,0-.06s.13,0,.16,0,0,0,0,0m.2.15a.1.1,0,0,1-.09,0,.1.1,0,0,1,0,0s0,0-.06,0a.09.09,0,0,1,0-.07s.08,0,.12,0,.07.07,0,.1m.5,3.8v0a.34.34,0,0,1-.29.08l0,0c.17.06.15-.08.29,0Zm1.41-1.58,0,0s0,.14-.06.17,0,0,0,0,0-.08,0-.08l-.09.1v-.06s.05,0,.11-.09,0-.07,0-.1a0,0,0,0,1,.05,0l0,0h0m-2-1.45s0,0,.07,0,.17.18.15.21-.07,0-.09,0-.16-.19-.13-.22m.4-.56h-.05v0l.12,0,0,0a.22.22,0,0,1-.13,0,.09.09,0,0,1,0,0s-.06,0-.07,0a.08.08,0,0,1,0,0h-.08a.08.08,0,0,0,0,0V71.3l-.08,0s0,0,0,0a.14.14,0,0,1,.11,0l0,0,.15.09Zm-3.06-2.58h-.21l-.38.41a.4.4,0,0,0-.11.27c1,.72,2,1.52,2.88,2.22,0,0,0,0,0,0l.06,0h0l.32.26.73.59c.29.22.64.56.48.76h0a.58.58,0,0,1-.14.43.79.79,0,0,1-1,.26l-.06,0a4.8,4.8,0,0,1-.52-.36l-1-.81-.15-.16c-.14-.12-.33-.22-.49-.34l-.4-.37-.47-.38a1.42,1.42,0,0,1-.31-.29,1.2,1.2,0,0,1-.24-.15l-.38-.32c-.12-.1-.3-.21-.42-.06a.15.15,0,0,0,0,.09l-.06.09-.2.22a.51.51,0,0,0-.1.24c.53.37,1,.76,1.56,1.17L77,74.19l0,0c.84.67,2,1.56,3,.25.84-1.06.17-2-1.16-3.06l-.31-.25a3.19,3.19,0,0,1-.46-.43c-.36-.26-.71-.52-1.07-.8s-.87-.72-1.28-1.11M70.48,79.61s0,0,0,.06l0,0s0,0,0,0h0a.09.09,0,0,1,.07,0m-.91-1.16s0,0-.06,0,0,0,0,0h0s0,0,.06,0,0,0,0,0m1.1,1.49s0,0,0,0,0,0-.06,0,0,0,0,0h0s.05,0,.06,0a0,0,0,0,1,0,0m.35.22a0,0,0,0,1,0,0h0s0,0-.06,0,0,0,0,0,.06,0,.08,0,0,0,0,0m0,.16a.08.08,0,0,1,0,0,0,0,0,0,1,0,0s-.1,0-.12-.07v0h0s0,0,.06,0Zm-.72-1,0,0s-.05,0-.07,0,0,0,0-.06l0,0s0,0,.05,0,0,0,0,.06m.56.86a.29.29,0,0,1-.14-.08.06.06,0,0,1,0-.08s.07,0,.1.06.06.11,0,.1M70,79a.24.24,0,0,1,.08.06.18.18,0,0,1,0,.15v0s-.07,0-.11-.08-.09-.13-.07-.15H70m-.09-.1a.78.78,0,0,1-.22-.2c-.06-.07-.09-.13-.07-.15s.1.06.17.15.14.18.12.2m1.24-1.54,1.46,1.8a.73.73,0,0,1,.11,1l0,0h0a1.56,1.56,0,0,1-.3.32.44.44,0,0,1-.22.12.87.87,0,0,1-.84-.17l0,0a.28.28,0,0,1-.08-.06L71,80.06a.19.19,0,0,0-.15-.08.18.18,0,0,0-.06-.09c-.07-.09-.19-.19-.28-.3a.85.85,0,0,1-.13-.25.91.91,0,0,1-.2-.19c-.12-.15-.19-.32-.33-.49s-.1-.19-.16-.26a.32.32,0,0,0-.16-.1l-.07-.07L69.35,78a.25.25,0,0,0-.17-.1.73.73,0,0,0-.11-.27.31.31,0,0,0-.09-.07.92.92,0,0,1-.19-.87,1.15,1.15,0,0,1,.32-.39.75.75,0,0,1,.44-.19l.11,0a1.26,1.26,0,0,1,.68.29,1.37,1.37,0,0,1,.16.18l.35.47a2,2,0,0,0,.29.29m.71-.5a1,1,0,0,0-.12-.19l-.37-.39a.86.86,0,0,1-.07-.1,2.27,2.27,0,0,0-.18-.25,1.89,1.89,0,0,0-1.6-.7l-.69.22a.49.49,0,0,0-.2.11c-.2.16-.36.44-.52.59a3.67,3.67,0,0,0-.24.61,1.3,1.3,0,0,0,0,.83,7.12,7.12,0,0,0,.77,1.08l.63.78.24.31.09.11c.06.07.13.13.18.2l.8,1v0a1.28,1.28,0,0,0,.58.38c.1.08.26,0,.33.08a1.92,1.92,0,0,0,1.44-.27.83.83,0,0,0,.15-.11,1.82,1.82,0,0,0,.6-1.59c-.15-.32-.13-.64-.37-.93l-.1-.12-.3-.44a1,1,0,0,0-.18-.17.48.48,0,0,0-.09-.16l-.2-.21-.05-.08Zm-8.67,6.86h-.06s0,0,0,0a.06.06,0,0,1,.06,0Zm-.27-.22,0,0s-.06,0-.07,0h0m.41-3.76,0,0,0,0s0,0,0,0l0,0,.08,0m-.12.1s0,0,0,0h0s0,0,0,0,0,0,0,0Zm.45,0a0,0,0,0,1,0,0,0,0,0,0,1,0,0,0,0,0,0,1,0,0s0,0,0,0Zm.89,6.33s0,0,0,0a0,0,0,0,1,0,0l0,0s0,0,0,0,0,0,0,0m-1.05-6s0,0,0,0-.06,0-.07,0,0,0,0,0h0Zm-.22,4a0,0,0,0,1,0,0h0s0,0,0,0a.08.08,0,0,1,0,0h0s0,0,0,0m.4.69a.05.05,0,0,1,0,0s0,0,0,0,0,0,0-.06,0,0,0,0Zm0-4.68h0s0,0,0,.07,0,0,0,0,0,0,0-.07m-.76-.73s-.05,0-.06,0h0s0,0,0,0,0,0,.06,0a0,0,0,0,1,0,0Zm.59.64s0,0,0,.06h0l0,0s0-.05,0-.06a0,0,0,0,1,0,0m-.37-.07s0,0,0,0,0,0,0,0h-.06a0,0,0,0,1,0-.06ZM63,79.4s0,.07,0,.09h0s0,0,0-.07,0,0,0,0ZM63.17,84s0,0,0,0v0s0-.06,0-.07h0s0,0,0,0a.39.39,0,0,1,0,.06Zm0-4.58s0,0,0,0a.08.08,0,0,1-.09,0s0,0,0,0l0,0a.06.06,0,0,1,.08,0s0,0,0,0m-.28.61s-.06,0-.07,0,0-.05,0-.07,0,0,.07,0a.07.07,0,0,1,0,.06m.46-.3a0,0,0,0,0,0,.07.08.08,0,0,0,0,0s0,0,0,0l-.06,0h0s.06,0,0-.12,0,0,0,0l0,0s0,0,0,0m0-.52h-.06c-.05,0,0,.1-.06.11a0,0,0,0,1,0,0h0s0-.14,0-.16.06,0,.1,0Zm-.21.32-.09.06.05,0s0,0,0,.07l0,0c-.06-.06-.13,0-.18,0l0-.09s0,0,.07,0l.11-.1a0,0,0,0,1,.06,0m.42,0,0,.07v0s0,0,0,.06-.09,0-.14-.08,0,0,0,0v0s-.11,0-.12,0,0,0,0,0,0,0,0,0,0,0,0,0h0s0,0,0,0h0c.17-.08.07-.13.2-.26l0,0a.25.25,0,0,1-.06.24l0,0a0,0,0,0,1,0,0s.11-.05.17,0m.06-.14s-.07,0-.1,0l0,0s0,0,0,0h0s0,0,0,0-.09-.17-.22-.14l.07,0a.12.12,0,0,0-.17,0s0,0-.07,0l0,0c-.07,0-.14,0-.2.06a.17.17,0,0,0-.08.07.08.08,0,0,0-.08,0s-.06.07-.1.09l-.07,0,0,0-.8.47a1.73,1.73,0,0,0-.31.07l-.09.06a1.56,1.56,0,0,0-.5.17,1.82,1.82,0,0,0-.62.48c0,.13,0,.2,0,.35l0,0c0,.06,0,.14,0,.22s.15.09.16.11a.08.08,0,0,1,0,0,.44.44,0,0,0,.51,0l.09,0a.91.91,0,0,0,.16-.11l.28-.12a.21.21,0,0,0,.11-.1.25.25,0,0,1,.08.1l.09.25a.24.24,0,0,0,.06.08.43.43,0,0,0,0,.19l.21.35s-.05.06,0,.1l0,0a.08.08,0,0,1,.08,0l0,.2a.12.12,0,0,0,.08,0l.17.33s0,0,0,.07l.05.07s0,0,0,0h0l.08.13.08.14a.39.39,0,0,0,.15.21.13.13,0,0,0,0,.14l.16.17s0,.08,0,.15a.07.07,0,0,1,.1,0l0,.1s0,0,0,.08l0,0s0,0,.07,0l.11.21a.35.35,0,0,1,.06.22c.05,0,.07,0,.09.06s0,.15,0,.2,0,0,.09.06,0,0,0,0a1.11,1.11,0,0,1,.12.16s0,.09,0,.16h0a0,0,0,0,1,0,0h0s.09,0,.14.08,0,.18,0,.25a.18.18,0,0,0,.12.07s0,.08,0,.1h0a.19.19,0,0,1,.17.1l0,.13a.1.1,0,0,0,0,0,.13.13,0,0,0,0,.09l.27.12v0h.21a.12.12,0,0,1,.06-.08,1.21,1.21,0,0,0,.2-.07h0a1,1,0,0,0,.2-.65c-.34-.73-.66-1.41-1-2.09L63.4,82a.86.86,0,0,0-.15-.2s0,0,0,0l0,0v0s0-.12-.06-.18L62.82,81c-.15-.29-.06-.48.11-.57s.34-.09.46-.15l0,0s0-.08,0-.09,0,0,0,0h0s.15-.13.11-.21v0c.07,0,.1,0,.15,0s0-.22,0-.27a.16.16,0,0,0-.07-.07l-.07,0-.06,0c0-.07.14-.1.09-.2ZM47.26,88.71s0,0,0,0,0,0,0,0,.05,0,.05,0a0,0,0,0,1,0,0m.58-.44a0,0,0,0,1,0,0,0,0,0,0,1,0,0s0,0,0,0a0,0,0,0,1,0,0Zm2.7-.7a0,0,0,0,1,0,0s0,0,0,0,0,0,0,0a0,0,0,0,1,0,0h0m-3.07.57h0a0,0,0,0,1,0,0,0,0,0,0,1,0,0s0,0,0,0Zm2.71-3.67a0,0,0,0,1,0,0l.07.06s-.1,0-.1,0m.26,2.92s0,0,0,0a0,0,0,0,1,0,0s0,0,0,0,0,0,0,0M46.8,83.81s0,.07,0,.08a0,0,0,0,1,0,0s0,0,.05,0,0,0,0,0m1,4.39-.06,0,0,0v-.07a0,0,0,0,1,0,0s.09,0,.09.08a0,0,0,0,1,0,0m3.12-.15s-.09-.07-.09-.07v0c0-.2-.15-.33-.16-.5a.3.3,0,0,1,0-.16.66.66,0,0,1-.29-.34c-.22-.07-.29-.31-.45-.43s-.25-.25-.4-.24h0c-.08,0-.15-.18-.2-.17h0l0,0c-.55-.41-1.5-.71-1.7-1.47.18-.28.08-.75.74-.81A1.53,1.53,0,0,1,49,84l.38.7c.06.17.15.34.32.38s.13,0,.15,0S50,85,50,85s.05,0,.07,0h0c0-.12.17,0,.22-.13v0c0-.07,0-.09.08-.15s0-.35.1-.5a.27.27,0,0,0-.16-.13c-.06-.17,0-.27-.2-.38,0,0,0,0,0,0s-.1-.08-.14-.17a0,0,0,0,0,0-.05c0-.11-.17-.12-.19-.25h0l0,0a3.67,3.67,0,0,0-.56-.39.1.1,0,0,0,0,0,3.28,3.28,0,0,0-.65-.1.59.59,0,0,1-.27.08.17.17,0,0,1-.1,0,.19.19,0,0,1-.13.06,1.78,1.78,0,0,1-.26,0,.11.11,0,0,0-.1.06l-.05-.08-.16.16c-.09,0-.15.12-.22.13a.09.09,0,0,1-.06,0c-.1.12-.21.31-.34.32h0l0,.06s0,0-.06,0a.09.09,0,0,1,0,.06c0,.06-.12.07-.18.09l0,.13s0,.09-.07.09h0l0,.23a.43.43,0,0,0-.06.27c0,.16.1.36.12.55s0,.11,0,.16a1.24,1.24,0,0,1,.28.48c.33.39.87.71,1.25,1.09h0a4.39,4.39,0,0,1,1.11.73,2.42,2.42,0,0,1,.42.81c0,.16-.15.31-.14.48l-.35.3c-.07,0-.2,0-.25.11a1.29,1.29,0,0,1-.71-.26c-.14-.26-.07-.58-.36-.79-.12,0-.22-.11-.35-.1l-.14,0h-.17a.45.45,0,0,0-.34.33.5.5,0,0,1,0,.13v.25c0,.1.11.16.12.25,0,.59.75.69.77.94l.07,0c.06.09.21,0,.22.11a3,3,0,0,0,.84.07,3.73,3.73,0,0,0,1-.26c.08-.06.19-.22.29-.23a.09.09,0,0,1,.07,0c0-.13.18-.1.17-.19a.14.14,0,0,0,0-.06c.18,0,0-.29.19-.34,0-.2.12-.4.16-.65,0,0,0,0-.05-.06s.07-.05.08-.1a.22.22,0,0,0,0-.09s0,0,.06,0Zm-10.4.73,0,0s0,0,.06,0,0,0,0,0ZM38.34,83s0,0,0,0,0,0,0,0,0,0,0,0h0Zm-.2,0h0a0,0,0,0,1,0,0l.06,0h0l0,0m2.49,5.91h0l0,0s0,0,0,0,0,0,0,0Zm.42-3.22,0,0s0,0,0-.06h0ZM40.24,89h0s0,0,0,0,0,0,0,0,0,0,0,.06m.66-2.34a0,0,0,0,1,0,0s0,0,0,0a.07.07,0,0,1,0,0h0m-3.16,2.24a0,0,0,0,1,0,0s-.07,0-.07-.06h0s0,0,0,.06m.37,0s0,0,0,0,0,0,0,0a0,0,0,0,1,0,.06h0m2.8-1.67-.08-.06,0,0s.06.06,0,.09ZM41,86.05h0a0,0,0,0,1,0,0s0,0,0,0,0,0,0,0Zm-2.8-2.72a.78.78,0,0,1,0,.07h0a.09.09,0,0,1-.07-.06,0,0,0,0,1,0,0Zm2.54,4.8-.07,0s0,0,0,0v0s0,0,0,0l0,0Zm.48-5.25a0,0,0,0,1,0,0l-.06,0s0,0,0,0,0,0,0,0Zm-1.09,6.37s0,0,0,0,0,0,0,0l.07,0s0,0,0,0a0,0,0,0,1,0,0M41,84.17h0a0,0,0,0,1,0,0s0,0,0,0,0,0,0,.06m-.42,5.13,0,0v0l0,0s0,0,0,0a0,0,0,0,1,0,0s.06.06.06.06Zm-.39-.16a.12.12,0,0,1-.1,0s0,0,0,0a.1.1,0,0,1,.08-.05.1.1,0,0,1,.05,0m-2.67-.68h0a.18.18,0,0,1-.09-.1s0,0,0,0,.07,0,.06.08Zm3.4-1.1a.08.08,0,0,0,0,.07l0,.1,0-.07,0,0,.06-.12s0,0,0,0,0,0,0,0a0,0,0,0,1,0,0Zm.58-4.42a.06.06,0,0,1-.07,0s0,0,0,0,0-.1.06-.09,0,0,0,0,0,0,0,0,0,0,0,0,0,0,0,0m-.42,3.41a1.25,1.25,0,0,0-.11.29,1.94,1.94,0,0,1,0-.34,1.5,1.5,0,0,0,0-.2c.07,0,0,.08.06.13s0,0,0,0,0,.06,0,.1m0-.79s0,0,0-.06,0,0,0,0,0-.17,0-.17v0c0-.06.05-.13.07-.12a0,0,0,0,1,0,0l0,0h0s0,.19,0,.24,0,.06,0,.06,0,0,0,0m-.26,2.17v.12c0,.08,0,.16-.09.15s-.07,0-.06-.08a0,0,0,0,1,0,0l.05,0a.08.08,0,0,1-.05-.09.16.16,0,0,1,.05-.09l0-.06s0,0,0,.08v0l0,0s0,0,0,0,.07,0,.06,0m.64-4.21a.14.14,0,0,0,0,.08.56.56,0,0,1,0,.13l-.06.17s-.07,0-.06,0l0-.08v-.12a.13.13,0,0,1,.06-.07l0-.07,0-.07s0,0,0,0h0s0-.18,0-.18,0-.14.1-.14,0,0,0,0l0,0a.37.37,0,0,1,0,.23l0,.11m-.39,1.59s0,0,0,0,0-.07,0-.06h0s0-.09,0-.12a.16.16,0,0,1,0-.07.09.09,0,0,1,0-.08c0-.06.06-.11.06-.13V84.5a.16.16,0,0,1,.05-.11.1.1,0,0,1,0-.06l0-.08a.06.06,0,0,0,0,0s0,0,0-.07V84a.09.09,0,0,1,.06-.08v0s0,0,0,0a.08.08,0,0,1,.06.09c0,.11-.09.22-.09.28v.11s0,0-.08.06l0,.32s0,0,0,0,.07,0,0,.21-.07.1-.09.1ZM41,87.87l0-.2-.05,0a.09.09,0,0,1,.05,0l0-.23.09-.57.29-2a1.36,1.36,0,0,1,0-.29c0-.27.08-.54.13-.8s.13-.37.16-.56a.56.56,0,0,0-.1-.44l-.09,0h0s0,0,0-.06c-.31,0-.6-.07-.77.27a2.44,2.44,0,0,1,0,.66l-.06.4a.35.35,0,0,0,0,.11l-.16,1.49c0,.17,0,.36,0,.51s-.09.41-.25.38-.24-.83-.34-1l-.1-.16s0,.06-.09.06-.05-.06-.05-.1,0-.06.07-.05h.06v-.18c0-.06-.15-.08-.14-.16l.07,0c0-.35-.08-.72-.11-1.08s-.06-.91-.26-1.34c-.06,0-.11-.09-.1-.13l-.12,0a.28.28,0,0,0-.14-.06c-.42-.06-1,.1-1,.51l0,.2,0,.15c0,.12.06.39,0,.53a.25.25,0,0,1-.11.17l0,.11,0,.56c0,.06-.05.13-.06.18s0,0,0,.07a.32.32,0,0,0,0,.09,1.22,1.22,0,0,0,0,.27.28.28,0,0,1-.08.2.35.35,0,0,1,0,.2l0,.18a.49.49,0,0,0,0,.12.16.16,0,0,0-.06.09l0,.22a.12.12,0,0,1,0,.09,2.64,2.64,0,0,1,0,.69.18.18,0,0,0,0,.09c0,.06,0,.12,0,.17a.14.14,0,0,1-.06.11.19.19,0,0,1,0,.14c0,.07-.06.14-.06.2a.14.14,0,0,0,0,.09.34.34,0,0,0,0,.14v.24c0,.06-.07.12-.08.17s0,0,0,.08,0,0,0,.06l.08.07a0,0,0,0,1,0,0,.29.29,0,0,0,0,.1,1,1,0,0,1,0,.18.14.14,0,0,1-.05.09l0,0s0,0,0,0,.23.17.44.2a.43.43,0,0,0,.55-.34c-.07-.54.15-1.22.13-1.82v0a.63.63,0,0,0,.07-.22v-.68c0-.13.09-.23.11-.35l0-.42a.28.28,0,0,1,.22-.27c.36.86.33,1.82.75,2.7.12,0-.06.28.14.31l-.05,0a1.83,1.83,0,0,0,.17.74.7.7,0,0,0,.31.63s0,0,0,0a0,0,0,0,0,0,0,.56.56,0,0,1,.13,0l.13,0c.24,0,.31-.13.36-.48,0-.17,0-.35,0-.53ZM30.29,79.53a0,0,0,0,1,0,0s0,0,0,0h0s0,0,0,0,.05,0,.07,0Zm-.08.33c0,.07-.05.08-.06.08l0-.07h0a.25.25,0,0,1,.13,0,0,0,0,0,1,0,0M31.8,80a.06.06,0,0,1-.07,0s-.05,0,0-.06a.07.07,0,0,1,0,0h0a.05.05,0,0,1,0,.07ZM31,86.69a.07.07,0,0,1-.08,0s-.05,0,0-.07l0,0s0,0,.05,0,0,0,0,.06M29.4,81.83a.16.16,0,0,1,0-.14h.05s0,.09,0,.13l0,0Zm4.21-1a.62.62,0,0,0-.25-.47,1.73,1.73,0,0,1-.49-.11c-.2-.08-.41-.19-.61-.28h0s-.09,0-.12,0a.07.07,0,0,1,0,0s-.07-.06-.11-.07-.06,0-.09,0a.36.36,0,0,0-.18-.12l-.36-.1a.51.51,0,0,1-.16-.11h0c-.06,0-.14,0-.18,0s0,0,0,0l-.16-.08a.79.79,0,0,0-.64,0s0,0,0,0-.08,0-.1.07v0c0,.14-.11.41-.55,1.56a.84.84,0,0,0-.16.27l-.07.2a1.33,1.33,0,0,0-.09.21l-.06.16a1.6,1.6,0,0,1-.2.39.29.29,0,0,1,0,.09l-.09.16a.25.25,0,0,0,0,.15l-.23.32a2.12,2.12,0,0,1-.14.52c-.06.15-.12.31-.17.46a2,2,0,0,0-.12.21l-.09.3c0,.06-.1.1-.12.14h0a1.81,1.81,0,0,1,0,.19l-.05.07a.12.12,0,0,0-.06.06c0,.07,0,.19,0,.28a.09.09,0,0,0,0,0c0,.11.16.2.11.33l0,0c.16,0,.33.12.5.1l.12,0c.22.09.4.25.59.32l.09,0a.7.7,0,0,0,.21.11l.81.24a.52.52,0,0,1,.15.07h0l.22.16a.15.15,0,0,0,.13,0,.09.09,0,0,0,0,.06c.05,0,.12,0,.19,0h0c.21,0,.25-.24.36-.37a.93.93,0,0,0,.05-.1.39.39,0,0,0-.07-.4c-.44-.19-.88-.39-1.33-.57a6.76,6.76,0,0,0-.93-.31A.32.32,0,0,1,29,84.8c.22-.56.41-1,.66-1.55a.36.36,0,0,1,.27-.07,3.21,3.21,0,0,0,.46.22l.66.25a2.32,2.32,0,0,1,.38.2c.19-.06.34.11.57.05l.11-.21.07-.17a.32.32,0,0,0,0-.37c-.09-.13-.34-.19-.39-.27l-.1,0c-.31-.13-.54-.27-.82-.37l-.21-.08a1,1,0,0,1-.34,0,.37.37,0,0,1-.2-.19,5.08,5.08,0,0,1,.17-.51l.39-1,.08-.15a.17.17,0,0,1,.25-.06l.14.06a.22.22,0,0,0,.11,0c.26.13.58.29.84.4s.24.08.36.12l.05,0a1.91,1.91,0,0,0,.77.17,1,1,0,0,0,.39-.47M21.06,77.71a0,0,0,0,1,0,0l0,0a.06.06,0,0,1,0,.06s0,0,0,0m-1.61.34,0,0V78s0,0,0,.07M21,77.9s0-.06,0-.07h0l0,0s0,0,0,0l0,0m.5-.92h-.06s0,0,0,0,0,0,0,0h0s0,0,0,0M19,78.61s-.06,0-.08,0a0,0,0,0,1,0,0l0,0s.05-.06.07,0,0,0,0,0m2.57-3.3h0s0,0,0,0h0s0,0,0,0h0a.09.09,0,0,1,0,.07Zm-.52,0s0,0-.05,0a0,0,0,0,1,0-.05s0,0,.05,0a.06.06,0,0,1,0,.07m-1.77,2.28a0,0,0,0,0,0,0s0,0,0,0l0,0s0,0,0,0,0,0,0,.06Zm.57,0s0,0-.06,0h0s0,0,0-.06h0s0,0,0,0ZM21.09,76s0,0,0,0,0-.09,0-.1h0l0,0s0,0,0,.06Zm.16-.25a.06.06,0,0,1-.07,0,.12.12,0,0,1,0-.1.06.06,0,0,1,.09.06Zm-.76.82s0-.08,0-.11,0,0,.05,0a.2.2,0,0,1,0,.13s0,0,0,0Zm4.9.83.36-.42a.53.53,0,0,0-.08-.81.27.27,0,0,0-.1-.06.13.13,0,0,0,0-.09L25.39,76a.12.12,0,0,1,0-.12c-.49-.18-.67.28-.84.29a2.34,2.34,0,0,1-.7.56.93.93,0,0,1,0,.1l-.34.22a.36.36,0,0,0,0,.09c-.58.28-.84.86-1.39,1.2-.15.07-.26.28-.43.16h0c-.08-.29.25-.53.29-.83l.05-.07a11.23,11.23,0,0,0,1-2.06v0c.05-.06,0-.15.07-.2s.05,0,.11,0c-.14-.17.14-.39.09-.59S23,74.23,22.8,74a1,1,0,0,0-.2-.3.19.19,0,0,0-.19,0v0a.2.2,0,0,0-.19,0,.08.08,0,0,0,0,0s0-.1,0-.12-.11,0-.12,0l-.05.15s0-.06-.06-.07a.06.06,0,0,0-.07,0s.08.12.05.16,0,0,0,0l0,0c-.05,0-.1,0-.14,0a.09.09,0,0,1,0,.09c0,.06-.16.06-.21.12a.16.16,0,0,0,0,.12.08.08,0,0,0-.09,0l0,0c.05.07,0,.11,0,.14s-.21.09-.27.17v0c0,.12,0,.18.07.28s-.2-.09-.3,0,0,.14.06.21-.12,0-.14,0,0,.19,0,.26a.13.13,0,0,1-.1,0l0,0a.58.58,0,0,0-.12.1.12.12,0,0,0,0,.15.1.1,0,0,1-.09,0l-.05,0s0,0-.08,0v0c-.09.11.11.14.1.25s-.16,0-.2.07,0,.15-.07.3l-.22.23-.08.15c-.07.09-.19.13-.25.21a.2.2,0,0,0,0,.16,3.23,3.23,0,0,1-.45.84,2.92,2.92,0,0,1-.42.44c-.12,0-.11.1-.24.11l-.1.12a.32.32,0,0,0-.08.32s0,0-.06.06c-.15.2,0,.44,0,.45a.11.11,0,0,0,.08,0l0,.07s0,0,0,0l.05.09a0,0,0,0,0,0,0c.23,0,.44.06.62-.15s.27-.31.4-.48l1.44-1.91a.8.8,0,0,1,.14-.24l.24-.31.12-.05v.08l-1.52,3.3s0,.06-.05.09l-.09.12a.27.27,0,0,0-.08.24l0,0c-.07.09.08.18.07.28a2.77,2.77,0,0,0,.66.4c.81-.61,1.43-1.54,2.28-2.1l.19-.16a1.15,1.15,0,0,1,.48-.28c.06.26-.21.45-.3.7a3,3,0,0,0-.45.48l-.4.53-.14.23-.31.35a.51.51,0,0,0-.09.16,2.38,2.38,0,0,0-.37.35.46.46,0,0,0,.14.64l0,0c.28.17.5,0,.72-.24l.5-.79.68-.8,1.25-1.66a.26.26,0,0,1,.07-.16c.22-.29.45-.55.69-.82Zm-8.54-9.58s0,0,0,0h0l0,0s0,0,0,0a0,0,0,0,1,.07,0Zm-.24.25c-.05,0-.08,0-.09,0V68l0,0a.21.21,0,0,1,.12,0,0,0,0,0,1,0,0m1.31.91s-.05,0-.06,0,0-.06,0-.07a.06.06,0,0,1,.06,0,0,0,0,0,1,0,0,.06.06,0,0,1,0,.08Zm-4,5.39a.06.06,0,0,1-.09,0s0-.06,0-.07l0,0s0,0,0,0a0,0,0,0,1,0,.07m1-5a.24.24,0,0,1,.05-.14s0,0,0,0v0s0,.09,0,.11h-.05Zm4.16,1.22a.67.67,0,0,0,0-.52,1.53,1.53,0,0,1-.37-.35c-.14-.17-.26-.36-.39-.54l0,0s-.08,0-.11-.07a.11.11,0,0,1,0-.06s0-.09-.06-.12-.05,0-.09,0a.39.39,0,0,0-.1-.19l-.26-.27a.31.31,0,0,1-.09-.17h0c0-.05-.14,0-.17-.06a.18.18,0,0,1,0-.06.78.78,0,0,0-.1-.15.75.75,0,0,0-.56-.31s0,0,0,0-.08,0-.12,0l0,0c-.11.09-.3.29-1.24,1.08a.75.75,0,0,0-.28.15l-.15.14-.19.14-.13.11a1.57,1.57,0,0,1-.37.24s0,.05-.06.07l-.15.09a.22.22,0,0,0-.08.13l-.37.17a1.65,1.65,0,0,1-.37.38c-.12.1-.26.21-.37.32a.8.8,0,0,0-.21.13,2.29,2.29,0,0,0-.23.21s-.14,0-.17.06h0a.91.91,0,0,1-.13.16l-.08,0a.06.06,0,0,0-.07,0c-.06,0-.07.18-.14.24a.08.08,0,0,0-.07,0c-.08.07,0,.25-.07.34l0,0c.15,0,.23.26.38.33a.34.34,0,0,1,.09.08c.15.19.22.41.36.57l.06.07a1.07,1.07,0,0,0,.13.19l.59.62a.38.38,0,0,1,.09.13l0,0,.11.24a.2.2,0,0,0,.12.07.06.06,0,0,0,0,.06s.12,0,.16.1l0,0c.18.11.34-.09.5-.15l.09-.06a.38.38,0,0,0,.14-.39c-.29-.38-.57-.77-.87-1.14a7.63,7.63,0,0,0-.66-.73c0-.12,0-.23.09-.31.46-.38.86-.7,1.33-1a.42.42,0,0,1,.28.08,2.42,2.42,0,0,0,.29.42l.44.54a1.88,1.88,0,0,1,.24.36c.19,0,.24.26.47.32l.2-.12.15-.12a.31.31,0,0,0,.15-.33c0-.16-.21-.33-.21-.43h-.1c-.21-.27-.34-.5-.53-.73a1.19,1.19,0,0,0-.15-.18.86.86,0,0,1-.26-.21.31.31,0,0,1-.09-.26c.13-.13.27-.24.41-.36l.82-.67.15-.09c.12-.06.18,0,.24.07l.1.13a.27.27,0,0,0,.08.07c.16.23.36.54.53.76a1.74,1.74,0,0,1,.25.29l0,0a1.73,1.73,0,0,0,.58.53.93.93,0,0,0,.58-.22M8.61,64.21a0,0,0,0,1,0,0s0,0,0,0,0,0,0,0,0,0,0,0,0,0,0,0m.1,2.48s0,0-.05,0,0,0,0,0l0,0s0,0,0,0,0,0,0,0m-.56-2.21a0,0,0,0,1,0,0s0,0,0-.06,0,0,0,0a.06.06,0,0,1,0,.06Zm1,2.81s0,0-.05,0,0,0,0,0v0l.08,0s0,0,0,0m-.2-.13s0,0,0,0v0H9a.05.05,0,0,1,0,0,0,0,0,0,1,0,0H9a0,0,0,0,1-.07,0M8.81,67s0-.12,0-.15h0c0,.06.06.09,0,.15m-.74-2.5a0,0,0,0,1,0,0,0,0,0,0,1-.06,0H8s0,0,0,0,0,0,0,0l0,0s0,0,0,0m1.55,2.81a.63.63,0,0,0,0-.76L9.24,66l-.07-.12c-.09-.16-.26-.33-.34-.5a.33.33,0,0,1,0-.45A5.92,5.92,0,0,1,10,64.36c.23-.15.46-.28.7-.41l1.91-1a.15.15,0,0,0,.15,0l.46-.27.42-.22a.42.42,0,0,0,.25-.43l0,0a.2.2,0,0,1,0-.15c-.17,0-.28-.26-.42-.37l-.09,0a.17.17,0,0,0-.06.06.57.57,0,0,0-.29.08,2,2,0,0,0-.43.35l-2,1.08-.2.09a.4.4,0,0,0-.18.13,2.38,2.38,0,0,0-.58.24l-.57.28a.22.22,0,0,1-.09.1c-.07,0-.16,0-.24.09l-.08,0a.39.39,0,0,0-.32,0l-.23.17a.08.08,0,0,0-.08,0l-.12.12s0,0-.06,0l0,.11s-.06,0-.07,0v0H7.68a0,0,0,0,0,0,0h0l0,0s0,.06,0,.11h0l-.07.06H7.56a.13.13,0,0,0,0,.12l0,0a.05.05,0,0,0,0,.08l0,.08a.06.06,0,0,1,0,.06s0,0,0,0l0,.07.1,0a.09.09,0,0,1,.07,0s0,.13,0,.18l0,0,0,0a2.6,2.6,0,0,1,.27.38c.15.29.25.63.39.93l.25.46a.51.51,0,0,0,.17.21.31.31,0,0,0,.4,0ZM5.43,56.39s0,0,0,0,0,0,0,0,0,0,0,0a0,0,0,0,1,0,0M10,54.76s0,0,0,0,0,0,0,0l0,0a0,0,0,0,1,0,0m-2.27.65,0,0s0,0,0,0,0,0,0,0,0,.06,0,.06Zm2.51,1.91s0,0,0,0l0,0s0,0,0,0a0,0,0,0,1,0,0m.12-2.61s0,0,0,0,0,.05,0,.05l0,0s0,0,0,0M6.17,55.89h0s0,0,0,0,0,0,0,0,0,0,0,0m5.13-.65s0,0,0,0,0,0,0,0,0,0-.06,0h0m-4.89.57s0,0,0,0,0,0,0,0h0v.05ZM7,55.6s0,0,0,0,0,0,0,.06,0,0,0,0,0,0-.06,0Zm1.49-.39v-.05h0s0,0,0,0,0,0,0,0a.13.13,0,0,1,0,.09m1.06-.3s0,0,0,0,0,0,0,0,0,0,.05,0,0,0,0,0H9.54M8,55.36s0,0,0,0a.06.06,0,0,1,0-.06,0,0,0,0,1,0,0s0,0,0,.06m-2.65,1a0,0,0,0,1,0,0s0,0,0,0,0,0,0,0l0,0h0m.26-.05s0,0,0,0,0,0,0,0a0,0,0,0,1,0,0l-.07,0Zm1.53,1.88.06,0a.11.11,0,0,1-.06.06s0,0,0,0h0Zm2.63-3.36s0,0,0,0v0l0,0s0,0,0,0,0,.07,0,.07m1.42.21s0,0,0,0,0,0,0,0,0,0,0,0,0,.06,0,.06Zm-1.29-.21s0,0,0,0,0,0,0,0,.05,0,.06,0,0,.06,0,.06Zm-1.64.48s0-.08,0-.09a0,0,0,0,1,.06,0c0,.05-.09.07-.09.07m1.94-.49s-.07-.05-.07-.07,0,0,0,0,.1,0,.11,0,0,.06,0,.06Zm-3.35.89c-.06,0-.07,0-.08,0a.19.19,0,0,1,.06-.07s0,0,0,0,0,.07,0,.08m-.2.13s0,0,0,0,0-.06,0-.07-.08,0-.08,0a.1.1,0,0,1,0,0,.19.19,0,0,1,.12,0l0,.06a.08.08,0,0,1,0,.07m.76-.31s0,0,0,0a.06.06,0,0,1,0-.08.05.05,0,0,1,.07,0s0,.07-.06.08h0m2.7-.75h0s-.12-.06-.13-.08h0a0,0,0,0,1,0,0s.1,0,.16,0,0,0,.06,0h0a.25.25,0,0,1-.05.08h0s0,0,0,.06M6.81,59.06,7.16,59h0a.37.37,0,0,0,.3-.33l0-.22v0c0-.13-.2-.31-.34-.28h0s0,0-.06,0,0,0-.08,0H6.72s0,0-.07,0-.21,0-.27-.09C6.2,58.16,6.19,58,6,58a1.19,1.19,0,0,1-.27-.46.73.73,0,0,1,.46-.9l.42-.12a1.25,1.25,0,0,1,.25-.09L8.41,56l.32-.08.32-.1.74-.17.22-.08a.87.87,0,0,1,.36,0c.15.17.48.09.56.38v0l0,.18.06.11,0,0a.71.71,0,0,1-.54.83h0c-.18,0-.36.1-.44.32.15.19.09.73.63.57a5.19,5.19,0,0,0,.85-.49c.14-.15.33-.31.35-.51.21-.25.1-1,.08-1s-.21-.33-.26-.5v0a.11.11,0,0,1-.1-.08v0c-.11-.11-.26-.21-.31-.36v0h-.08v0c-.07-.11-.24,0-.29-.14h0c-.12,0-.21-.11-.3-.08l0,0c0-.07-.3-.07-.31-.07h-.06a.09.09,0,0,1-.11,0s0,0-.06,0H9.78s0,0,0,.06a.15.15,0,0,0-.12,0c-.06,0-.09.07-.16.09s-.11,0-.19,0a.08.08,0,0,1,0,.06s-.09,0-.15,0H9s0,.05,0,.06-.08,0-.11,0h0a.11.11,0,0,1-.06.06H8.69a.15.15,0,0,0,0,.07s-.05,0-.07,0l-.1.08s-.1,0-.13,0,0,0,0,0a.71.71,0,0,1-.21.08.26.26,0,0,1-.15,0,.12.12,0,0,1-.09.08l-.14,0s0,0-.06,0,0,0-.07,0l-.2.08a.23.23,0,0,1-.16,0,.2.2,0,0,1-.09.07l-.12,0a.09.09,0,0,0-.07,0l-.34.06s-.08.07-.12.08a.15.15,0,0,1-.11,0,.12.12,0,0,1-.08.06l-.16,0s-.06,0-.08.09a.12.12,0,0,0-.07,0s-.08.07-.12.08h0l-.12,0a.07.07,0,0,1-.06.07H5.6s0,0,0,.08h0a.25.25,0,0,1-.15.15h0c0,.07-.14.09-.12.17v0a2,2,0,0,0-.25.57l0,0c-.12.14,0,.34-.09.51l0,.08a2.7,2.7,0,0,1,0,.28L5,58a.22.22,0,0,1,0,.16c.06,0,.09.09.11.14v.06A1.78,1.78,0,0,0,6.24,59c.17.06.36,0,.51.08ZM6.6,49.87s0,0,0,0,0-.07.05-.07h0s0,0,0,0,0,.06,0,.06Zm.2,0s0,0,0,0a.07.07,0,0,1,.06,0,.06.06,0,0,1-.06,0,0,0,0,0,1,0,0Zm-1-.7s0,0,0-.06a.05.05,0,0,1,0-.05h0s0,0,0,.05,0,0,0,.06Zm-.07-.74a.08.08,0,0,1-.08-.05h0a0,0,0,0,1,.05,0h0s0,0,0,0a.06.06,0,0,1,0,.07m1.11,1.29a.06.06,0,0,1,.06-.08s0,0,0,.06,0,.05-.06.05,0,0,0,0Zm.79-1.43s0,0,0,0a.08.08,0,0,1,0-.07h0s.08,0,.08.06v0a.07.07,0,0,1-.06,0h0m.1.94s0,0,0-.06a0,0,0,0,1,0,0,.05.05,0,0,1,.07,0,.06.06,0,0,1,0,.07ZM7.6,48s0,0,0-.07a.05.05,0,0,1,0-.07h0s0,0,0,0a.08.08,0,0,1,0,.09ZM6.14,49.71h0A.08.08,0,0,1,6,49.65v0s0-.05.07-.06a.09.09,0,0,1,.09.07.09.09,0,0,1,0,.07m-.28-.25s-.05,0-.05-.07a.09.09,0,0,1,0-.1h0a.08.08,0,0,1,.08,0v0a.1.1,0,0,1-.09.11Zm1.91,0s0,0,0-.07l0,0a.16.16,0,0,1,.13-.15s0,0,.05.07,0,.2-.1.21l0,0m-.7.51c.27-.07.57-.16.66-.41.43-.18.19-.61.29-1a.7.7,0,0,1-.14-.41,1.61,1.61,0,0,1,0-.22c-.14-.13-.2-.31-.4-.35s-.46-.13-.57-.19-.21-.06-.27-.06-.12.1-.24.11-.23,0-.31,0a.09.09,0,0,0-.1.09c0,.3-.27.14-.27.36h0a.22.22,0,0,0-.19.21c0,.06,0,.1.13.15a.33.33,0,0,0,0,.25c0,.16.08.32.1.48a.34.34,0,0,1,0,.1h0v.2a.16.16,0,0,0,.17.17.25.25,0,0,0,0,.07c0,.12.21.13.25.3a.35.35,0,0,0,.31.11l.27,0h.1c0,.06.06.08.09.08S6.91,50,7,50a.12.12,0,0,1,.1.06" transform="translate(-1.42 -1.42)"/><path class="d" d="M60.64,46.24a.68.68,0,0,0-.46-.23.39.39,0,0,0-.3.13,3.06,3.06,0,0,0-.47.61,3,3,0,0,1-.4.53,2.64,2.64,0,0,1-.85.57,5.06,5.06,0,0,1-1.24.23,6.79,6.79,0,0,0-1.61.3A6.29,6.29,0,0,0,53,49.85l-.36.39a3,3,0,0,1,.76-1.35l.28-.21.32-.24a.33.33,0,0,0,0-.48.57.57,0,0,0-.42-.13,2,2,0,0,0-1.89,1.32,4.77,4.77,0,0,1-.31.56c-.06.06-.1.08-.12.08h0c-.29-.3.5-1.8,1-2.33a4.09,4.09,0,0,1,1.68-1,2.3,2.3,0,0,1,.84.31,3.61,3.61,0,0,0,1,.4,1.27,1.27,0,0,0,.34,0,2.53,2.53,0,0,0,1.66-.72A2.14,2.14,0,0,0,58,43.54a2.72,2.72,0,0,0-1.82-.82,2.07,2.07,0,0,0-1.46.62,5.16,5.16,0,0,0-.58.9c-.21.35-.49.83-.59.94a4.31,4.31,0,0,1-.82.53,6.32,6.32,0,0,0-.74.48c-.21.17-.46.38-.69.6a5.15,5.15,0,0,0-.7.85,5.7,5.7,0,0,0-.22.65c-.07.24-.19.62-.26.85-.14-.46-.37-1.37-.56-2.08s-.43-1.67-.54-2c-.92-2.94-1.08-3.47.92-5.4a1.85,1.85,0,0,1,1.29-.57,2.16,2.16,0,0,1,1.53.74,1.75,1.75,0,0,1,0,2.46,1,1,0,0,1-.68.32.63.63,0,0,1-.46-.2l-.18.17.2-.27a2.21,2.21,0,0,1,.3-.2,2.09,2.09,0,0,0,.31-.2.85.85,0,0,0,.08-1.29,1.39,1.39,0,0,0-1-.38,1.7,1.7,0,0,0-1.17.42,1.55,1.55,0,0,0-.47,1.07,2.08,2.08,0,0,0,.68,1.48,2,2,0,0,0,1.46.66,3.28,3.28,0,0,0,2.08-1c1-.91.77-2.82-.37-4a3.17,3.17,0,0,0-2.28-1.05,3.25,3.25,0,0,0-2.17.89,10,10,0,0,0-1.83,2.7,4.57,4.57,0,0,1,.58-2.65l.52-.43c.25-.2.52-.42.61-.51.81-.78,1.14-1.3,1.15-1.8a1.29,1.29,0,0,0-.44-1,.58.58,0,0,0-.45-.21.85.85,0,0,0-.6.3,6.35,6.35,0,0,0-.73,1.11c-.23.39-.52.87-.66,1a6.6,6.6,0,0,1,.66-2.91A1.39,1.39,0,0,0,47.52,33a1.11,1.11,0,0,0-.77-.29A1.08,1.08,0,0,0,46,33a1.37,1.37,0,0,0-.27,1.5,5.89,5.89,0,0,1,.63,2.89l-.22-.22a8,8,0,0,1-.48-.68,8.33,8.33,0,0,0-.58-.8A1.67,1.67,0,0,0,44,35.13a.73.73,0,0,0-.51.2c-.36.34-.63.92.12,1.69a22.27,22.27,0,0,0,1.91,1.43l.33.22A5.07,5.07,0,0,1,46,41.31c-.15-.16-.32-.38-.49-.6a8.07,8.07,0,0,0-.51-.63,4.74,4.74,0,0,0-3.13-1.68,3.13,3.13,0,0,0-2.2,1,2.79,2.79,0,0,0-.92,2,3,3,0,0,0,.77,2,3.35,3.35,0,0,0,2.21.84,2,2,0,0,0,1.43-.53,1.58,1.58,0,0,0,.19-2.43,1.64,1.64,0,0,0-1.16-.53A1.15,1.15,0,0,0,41,42.31a1.23,1.23,0,0,0,.15.35c0,.06.07.14.09.14h0a.4.4,0,0,1-.27.09.91.91,0,0,1-.62-.28,1.45,1.45,0,0,1,0-2.16A2.31,2.31,0,0,1,42,39.8a2.46,2.46,0,0,1,1.78.76c.92.95,1,2,.4,3.49a19.08,19.08,0,0,0-.8,2.69l-.09.61c-.08.52-.23,1.5-.34,2.17a4.94,4.94,0,0,0-1.42-2.41,11.36,11.36,0,0,0-.94-.76c-.38-.29-.81-.62-.93-.74s-.11-.15-.18-.25a2.22,2.22,0,0,1-.07-.33,2.58,2.58,0,0,0-.25-.82,2.73,2.73,0,0,0-.49-.64,2.1,2.1,0,0,0-3.21-.12,2,2,0,0,0,.05,2.71,3.07,3.07,0,0,0,2,1,1.73,1.73,0,0,0,.3,0A8.54,8.54,0,0,1,39,47a2.37,2.37,0,0,1,1.88,1c.72.75,1.29,1.72,1.17,2.21a3.63,3.63,0,0,0-.84-1.33s-1.3-1.28-1.89-1.28a.39.39,0,0,0-.29.11.44.44,0,0,0-.13.25.37.37,0,0,0,.1.31l.34.32c.31.29.76.71,1,1a4.52,4.52,0,0,1,.76,1.14c-.14-.12-.36-.35-.64-.64A4.45,4.45,0,0,0,39,49a5.87,5.87,0,0,0-1.65-.41A9.7,9.7,0,0,1,36,48.31a3.52,3.52,0,0,1-1.54-.81,1,1,0,0,1-.22-.29s-.09-.25-.13-.38a2,2,0,0,0-.3-.71.48.48,0,0,0-.35-.16.65.65,0,0,0-.44.21,2,2,0,0,0-.46,1.28,3.3,3.3,0,0,0,1,2.62A5.56,5.56,0,0,0,35,51.18a19.36,19.36,0,0,1,4.3,2.71,17.23,17.23,0,0,1,3.25,4.91l.41.84a7.12,7.12,0,0,0,.47.92.54.54,0,0,0,.4.17.9.9,0,0,0,.24,0A8.21,8.21,0,0,1,46.64,60a3.41,3.41,0,0,1,1.9.7.68.68,0,0,0,.36.13.43.43,0,0,0,.31-.13,5.25,5.25,0,0,0,.62-1.13l.34-.68a42.46,42.46,0,0,1,4.31-5.38,9.34,9.34,0,0,1,2.85-1.81l.33-.14A6.22,6.22,0,0,0,60,50.07a3.63,3.63,0,0,0,1-2,2.21,2.21,0,0,0-.32-1.85M55.7,43.82a1.11,1.11,0,0,1,1.49.2,1.36,1.36,0,0,1,.07,1.78c-.22.21-.69.45-1.27-.14s-.76-1.46-.29-1.84M37.27,45.56a.82.82,0,0,1-1.22,0A1.05,1.05,0,0,1,36.23,44a.94.94,0,0,1,1.33-.16c.65.57-.08,1.49-.29,1.69m5,10.29c-.07-.06-.58-1.23-.68-1.47a.29.29,0,0,1,0-.38s3.12-2.11,3.67-1.53a5.67,5.67,0,0,1,.74,2s-.68.32-.77.23a8.5,8.5,0,0,0-.52-1.33c-.2-.21-1.64.53-1.72.61s.47,1.38.3,1.53-.93.47-1,.34m.43,1.22a.32.32,0,0,1,0-.49c.51-.49,2.87-1.6,3.4-1a.3.3,0,0,1,.06.34c-.17.22-1.47.34-1.69.43s-1.62.91-1.76.77m3.65,1.47s-2,1.31-2.28,1c-.09-.09-.85-1.24-.47-1.61a.82.82,0,0,1,1.06.15,3.4,3.4,0,0,0,.23.3.5.5,0,0,0,.79,0c.16-.15.13-.25-.12-1a.32.32,0,0,1,0-.36c.06-.06.55-.26.72-.08a2.32,2.32,0,0,1,0,1.58m2.72.59A1.41,1.41,0,0,1,47.34,59,1.64,1.64,0,0,1,47,57.41a1.33,1.33,0,0,1,.74,0,.35.35,0,0,1,.08.24,2.94,2.94,0,0,0,0,1,.63.63,0,0,0,.64,0c.11-.1.16-.86.25-.95.37-.36.76-.33.9-.19s-.07,1.15-.55,1.61m1.58-2.21a15.32,15.32,0,0,1-3.39-.76.34.34,0,0,1-.06-.44.35.35,0,0,1,.24-.08,6,6,0,0,1,3.28.88c.14.14,0,.36-.07.4m.83-1.38s-.1,0-.66-.17a2.64,2.64,0,0,1-.64-.25,2.28,2.28,0,0,1,.15-.6c.15-.42.17-.5,0-.68s-1.37-.56-1.66-.28a.72.72,0,0,0-.24.42c0,.11-.11.66-.13.67a1.07,1.07,0,0,1-.58,0c-.06-.07-.27-1.6.07-1.92.64-.62,4.16.89,4.27,1,.52.55-.17,1.46-.58,1.86m7.47-6a2.5,2.5,0,0,1-.46.36,13.83,13.83,0,0,1-2.61.82,6.3,6.3,0,0,0-1.67,1.11c-.26.25-.56.57-.78.79a.7.7,0,0,1-.71.19c-.81-.26-3.36-1-3.91-1.13a.72.72,0,0,1-.33-.18,1,1,0,0,1-.26-.56,16.1,16.1,0,0,0-1.62-5c-.12-.12-.26-.17-.39-.05-.48.46-1.21,5.43-1.4,5.61S42,52.93,41.49,53.25s-.46.16-1.2-.6a5.93,5.93,0,0,0-2.46-1.82c-.69-.24-1.07-.11-2.07-.35A4.33,4.33,0,0,1,34,49.32c-.34-.35-.9-1.51-.61-1.79,0-.05.12-.06.2,0s.6.87.74,1a3.42,3.42,0,0,0,2.29.94,5.41,5.41,0,0,1,3.68,1.73c.12.13.5.75.59.84s.33.18.62,0,2.37-1.21,2.39-1.23a20.83,20.83,0,0,0,.3-2.85,10.68,10.68,0,0,1,2-5.45c.18-.17.37-.14.58.09a23.51,23.51,0,0,1,2.18,5.64c.09.38.46,2.31.56,2.4s2.45.78,2.88,1c.21.11.32.13.51-.05a7.55,7.55,0,0,1,3.35-2.25,9.53,9.53,0,0,0,2.23-.52,4,4,0,0,0,.93-.65c.32-.31.47-.45.54-.37.27.27-.59,1.34-.95,1.69" transform="translate(-1.42 -1.42)"/></g></svg>