<svg xmlns="http://www.w3.org/2000/svg" viewBox="0 0 28.49 28.15"><defs><style>.a{fill:#fff;}</style></defs><path class="a" d="M28.11,13.56a.65.65,0,0,0-.46-.24.43.43,0,0,0-.31.13,3.88,3.88,0,0,0-.46.61,4.46,4.46,0,0,1-.4.54,2.64,2.64,0,0,1-.85.57,5.71,5.71,0,0,1-1.24.22,6.35,6.35,0,0,0-1.61.31,6.17,6.17,0,0,0-2.28,1.46,5.17,5.17,0,0,0-.36.4,3,3,0,0,1,.76-1.36l.28-.21.32-.24a.32.32,0,0,0,0-.47.57.57,0,0,0-.42-.14,2.33,2.33,0,0,0-1.57.75,2.53,2.53,0,0,0-.33.58,4.12,4.12,0,0,1-.3.55c-.06.06-.1.08-.13.08h0c-.29-.3.5-1.8,1-2.33a4.19,4.19,0,0,1,1.68-1,2.3,2.3,0,0,1,.84.31,4,4,0,0,0,1,.41,2.07,2.07,0,0,0,.35,0,2.57,2.57,0,0,0,1.66-.71,2.16,2.16,0,0,0,.07-2.92A2.72,2.72,0,0,0,23.62,10a2,2,0,0,0-1.46.63,4.78,4.78,0,0,0-.59.9,8.34,8.34,0,0,1-.59.93,4.36,4.36,0,0,1-.81.54,5.23,5.23,0,0,0-.74.47c-.21.17-.46.38-.69.6A5.15,5.15,0,0,0,18,15a6.52,6.52,0,0,0-.22.65c-.08.24-.19.62-.26.86-.14-.47-.38-1.38-.56-2.09s-.43-1.67-.54-2c-.92-2.94-1.08-3.47.92-5.4a1.84,1.84,0,0,1,1.29-.56,2.19,2.19,0,0,1,1.53.73,1.75,1.75,0,0,1,0,2.46,1,1,0,0,1-.68.32.59.59,0,0,1-.46-.2l-.18.18.2-.28a2.21,2.21,0,0,1,.3-.2,2.09,2.09,0,0,0,.31-.2.85.85,0,0,0,.08-1.29,1.38,1.38,0,0,0-1-.37A1.75,1.75,0,0,0,17.58,8a1.51,1.51,0,0,0-.47,1.08,2,2,0,0,0,.68,1.47,2,2,0,0,0,1.46.67,3.28,3.28,0,0,0,2.08-1c1-.91.77-2.82-.37-4a3.16,3.16,0,0,0-2.28-1A3.2,3.2,0,0,0,16.51,6a10,10,0,0,0-1.83,2.69,4.57,4.57,0,0,1,.58-2.65l.52-.42c.25-.21.52-.43.61-.52.81-.77,1.14-1.3,1.15-1.8a1.33,1.33,0,0,0-.44-.95.58.58,0,0,0-.45-.21.85.85,0,0,0-.6.3,6.35,6.35,0,0,0-.73,1.11,10.87,10.87,0,0,1-.66,1,6.55,6.55,0,0,1,.66-2.9A1.41,1.41,0,0,0,15,.29,1.12,1.12,0,0,0,14.21,0a1.07,1.07,0,0,0-.75.28,1.39,1.39,0,0,0-.27,1.51,5.68,5.68,0,0,1,.62,2.88l-.21-.22c-.08-.08-.3-.41-.48-.67A7.66,7.66,0,0,0,12.54,3a1.71,1.71,0,0,0-1.08-.53.73.73,0,0,0-.51.2c-.36.35-.63.92.11,1.69.23.23,1.11.86,1.92,1.43l.33.22a5.07,5.07,0,0,1,.12,2.64c-.15-.16-.32-.38-.49-.6a8.07,8.07,0,0,0-.51-.63A4.74,4.74,0,0,0,9.3,5.71a3.13,3.13,0,0,0-2.2,1,2.79,2.79,0,0,0-.92,2,3,3,0,0,0,.77,2,3.35,3.35,0,0,0,2.21.84A2,2,0,0,0,10.59,11a1.59,1.59,0,0,0,.19-2.44,1.64,1.64,0,0,0-1.16-.53,1.32,1.32,0,0,0-.91.35,1.37,1.37,0,0,0-.24,1.21,1.12,1.12,0,0,0,.15.35c0,.06.07.14.09.14h0a.36.36,0,0,1-.26.09.91.91,0,0,1-.62-.28,1.45,1.45,0,0,1,0-2.16,2.31,2.31,0,0,1,1.62-.65,2.48,2.48,0,0,1,1.78.76c.92,1,1,2,.4,3.49a18.84,18.84,0,0,0-.8,2.7l-.1.6-.33,2.17A5.06,5.06,0,0,0,9,14.42a11.36,11.36,0,0,0-.94-.76c-.38-.29-.81-.61-.93-.73L7,12.67a2,2,0,0,1-.08-.33,2.38,2.38,0,0,0-.24-.82,3,3,0,0,0-.49-.64,2.31,2.31,0,0,0-1.65-.81A2.33,2.33,0,0,0,3,10.76a2,2,0,0,0,0,2.71,3,3,0,0,0,2,1,1.73,1.73,0,0,0,.3,0,8.54,8.54,0,0,1,1.18-.12,2.4,2.4,0,0,1,1.88,1C9.08,16,9.65,17,9.53,17.48a3.63,3.63,0,0,0-.84-1.33s-1.3-1.28-1.89-1.28a.39.39,0,0,0-.29.11.44.44,0,0,0-.13.25.37.37,0,0,0,.1.31l.34.32c.31.29.76.72,1,1A4.48,4.48,0,0,1,8.59,18c-.14-.12-.36-.35-.64-.64a4.71,4.71,0,0,0-1.5-1A5.87,5.87,0,0,0,4.8,15.9a9.7,9.7,0,0,1-1.36-.28,3.42,3.42,0,0,1-1.54-.81,1,1,0,0,1-.22-.29,3.86,3.86,0,0,1-.13-.38,2.07,2.07,0,0,0-.3-.71.49.49,0,0,0-.35-.16.63.63,0,0,0-.44.21A2,2,0,0,0,0,14.76a3.31,3.31,0,0,0,1,2.62,5.91,5.91,0,0,0,1.45,1.11A19.67,19.67,0,0,1,6.79,21.2,17.15,17.15,0,0,1,10,26.12c.05.09.23.46.41.83a7.12,7.12,0,0,0,.47.92.54.54,0,0,0,.4.17.9.9,0,0,0,.24,0,8.15,8.15,0,0,1,2.55-.68A3.49,3.49,0,0,1,16,28a.68.68,0,0,0,.36.13.43.43,0,0,0,.31-.13,5.86,5.86,0,0,0,.62-1.13c.14-.29.28-.56.34-.67A41.77,41.77,0,0,1,22,20.84,9.09,9.09,0,0,1,24.8,19l.33-.14a6.1,6.1,0,0,0,2.34-1.5,3.63,3.63,0,0,0,1-2,2.19,2.19,0,0,0-.32-1.85m-4.94-2.43a1.12,1.12,0,0,1,1.49.2,1.36,1.36,0,0,1,.07,1.78c-.22.21-.69.46-1.27-.14s-.76-1.45-.29-1.84M4.74,12.87a.81.81,0,0,1-1.22,0,1.05,1.05,0,0,1,.18-1.54A1,1,0,0,1,5,11.18c.65.57-.08,1.49-.29,1.69m5,10.29c-.07-.06-.58-1.23-.69-1.47a.31.31,0,0,1,0-.38c.05,0,3.12-2.11,3.67-1.53a5.65,5.65,0,0,1,.74,2s-.69.31-.77.22a8.5,8.5,0,0,0-.52-1.33c-.2-.21-1.64.54-1.72.61s.46,1.38.3,1.53-.93.47-1.05.34m.43,1.22a.32.32,0,0,1,0-.49c.51-.49,2.87-1.59,3.4-1.05a.3.3,0,0,1,.06.34c-.17.22-1.47.34-1.7.43s-1.61.91-1.75.77m3.65,1.48s-2,1.3-2.28,1c-.09-.09-.86-1.24-.47-1.6a.8.8,0,0,1,1.06.14,3.4,3.4,0,0,0,.23.3.5.5,0,0,0,.79.05c.16-.16.13-.25-.12-1a.32.32,0,0,1,.05-.36c.06-.06.55-.25.72-.08a2.41,2.41,0,0,1,0,1.59m2.72.58a1.41,1.41,0,0,1-1.74-.14,1.64,1.64,0,0,1-.35-1.58,1.33,1.33,0,0,1,.74,0,.31.31,0,0,1,.07.24,3.2,3.2,0,0,0,0,1A.64.64,0,0,0,16,26c.11-.11.15-.87.25-1,.37-.36.76-.33.9-.19S17,26,16.55,26.44m1.58-2.2a15.93,15.93,0,0,1-3.39-.77.34.34,0,0,1-.06-.44.3.3,0,0,1,.24-.07,6.13,6.13,0,0,1,3.28.87c.14.14,0,.36-.07.41M19,22.85s-.1,0-.66-.17a2.71,2.71,0,0,1-.64-.24c-.05-.05.12-.52.15-.61.15-.42.17-.5,0-.68s-1.38-.56-1.66-.28a.72.72,0,0,0-.24.42c-.05.11-.11.66-.13.67a1.07,1.07,0,0,1-.58-.05c-.06-.07-.27-1.59.07-1.92.64-.61,4.16.89,4.27,1,.52.55-.17,1.46-.58,1.86m7.47-6a2.14,2.14,0,0,1-.46.36,13.83,13.83,0,0,1-2.61.82,6.15,6.15,0,0,0-1.67,1.12c-.26.24-.56.57-.78.78a.73.73,0,0,1-.71.2c-.81-.27-3.36-1-3.91-1.14a.72.72,0,0,1-.33-.18,1,1,0,0,1-.26-.56,16,16,0,0,0-1.62-5c-.12-.13-.26-.18-.39-.06-.48.47-1.21,5.43-1.4,5.62S9.45,20.24,9,20.56s-.46.17-1.2-.6A5.93,5.93,0,0,0,5.3,18.14c-.69-.23-1.07-.11-2.07-.35a4.33,4.33,0,0,1-1.77-1.16c-.34-.35-.9-1.51-.61-1.79,0-.05.12-.06.2,0s.6.88.74,1a3.52,3.52,0,0,0,2.29.94,5.34,5.34,0,0,1,3.68,1.72c.12.13.5.75.59.85s.33.17.61,0,2.38-1.21,2.4-1.23a22.53,22.53,0,0,0,.3-2.85,10.73,10.73,0,0,1,2-5.45c.18-.17.37-.13.58.09a23.62,23.62,0,0,1,2.18,5.65c.09.38.46,2.3.56,2.4s2.45.77,2.88,1c.21.11.32.13.51-.05a7.55,7.55,0,0,1,3.35-2.25,10.11,10.11,0,0,0,2.23-.51,4,4,0,0,0,.93-.66c.32-.31.47-.45.54-.37.27.27-.59,1.34-.95,1.69"/></svg>