<svg xmlns="http://www.w3.org/2000/svg" viewBox="0 0 90.71 90.71"><defs><style>.a,.b{fill:none;stroke:#fff;}.a{stroke-width:4px;}.b{stroke-width:2px;}.c{fill:#fff;}</style></defs><path class="a" d="M46.77,69.87a23.1,23.1,0,1,0-23.09-23.1A23.1,23.1,0,0,0,46.77,69.87Z" transform="translate(-1.42 -1.42)"/><circle class="b" cx="45.35" cy="45.35" r="17.42"/><path class="c" d="M15.61,22.35l.05,0s0,0,0,0l0,0h0s0,.1,0,.08Z" transform="translate(-1.42 -1.42)"/><path class="c" d="M15.82,22.54s0,0,0-.05h0s0,0,0,0,0,.05,0,.05h0S15.82,22.54,15.82,22.54Z" transform="translate(-1.42 -1.42)"/><path class="c" d="M16.85,23.41h0s0,0,0,0,.05,0,.05,0S16.86,23.41,16.85,23.41Z" transform="translate(-1.42 -1.42)"/><path class="c" d="M15.12,21.93h0a0,0,0,0,0,0,0s-.05,0-.05,0h0a0,0,0,0,0,0,0Z" transform="translate(-1.42 -1.42)"/><path class="c" d="M15.2,22h0s0,0,0,0h0a0,0,0,0,0,0,0s-.06,0-.08,0,0,0,0,0h0Z" transform="translate(-1.42 -1.42)"/><path class="c" d="M15.4,22.17l0,0v0s0,0,0,0a.06.06,0,0,0-.09,0v0l0,0S15.38,22.17,15.4,22.17Z" transform="translate(-1.42 -1.42)"/><path class="c" d="M16.67,23.35l0,0s0,0,0,0a.21.21,0,0,0,0-.11h-.09l0,0v0A.07.07,0,0,1,16.67,23.35Z" transform="translate(-1.42 -1.42)"/><path class="c" d="M34.64,6.29l.08,0s0,0,0-.09h0a.35.35,0,0,0-.11.09Z" transform="translate(-1.42 -1.42)"/><path class="c" d="M16.54,23.18s0,0,0,0h0v-.05a.06.06,0,0,0-.06,0s0,0,0,.05S16.52,23.2,16.54,23.18Z" transform="translate(-1.42 -1.42)"/><path class="c" d="M16,22.78l.06,0s0-.07,0-.07l-.05,0a.07.07,0,0,0-.06,0s0,0,0,.07Z" transform="translate(-1.42 -1.42)"/><path class="c" d="M15.5,18.48h0a0,0,0,0,0,0,0s0,0,0,0,0,0,0,0,0,0,0,0v0A.05.05,0,0,0,15.5,18.48Z" transform="translate(-1.42 -1.42)"/><path class="c" d="M14.27,30.73s0-.05,0-.07-.06,0-.08,0-.05.13,0,.14S14.26,30.75,14.27,30.73Z" transform="translate(-1.42 -1.42)"/><path class="c" d="M13.39,20.39l0,0v0h-.06a.07.07,0,0,0,0,.06Z" transform="translate(-1.42 -1.42)"/><path class="c" d="M12.86,28.94c.05,0,.12.06.15,0a2,2,0,0,0,.32-.44l.26-.44c0-.08.05-.13,0-.17l0,0a1.92,1.92,0,0,1-.33-.14.25.25,0,0,0-.16-.06l-.08,0-.09,0c-.5-.27-1.1-.29-1.6-.52-.07,0-.13,0-.17,0a.14.14,0,0,0,0,.2C11.25,27.47,12.76,28.88,12.86,28.94Z" transform="translate(-1.42 -1.42)"/><path class="c" d="M19.17,14.41l0,0v0l-.05,0s0,0,0,.07Z" transform="translate(-1.42 -1.42)"/><path class="c" d="M11.68,37s0,0,0,0l-.06,0,0,0Z" transform="translate(-1.42 -1.42)"/><path class="c" d="M11.92,37s0,0,0-.05l0,.06S11.92,37.06,11.92,37Z" transform="translate(-1.42 -1.42)"/><path class="c" d="M15.28,18.4a0,0,0,0,0,0,0h0s0,0,0,0S15.27,18.42,15.28,18.4Z" transform="translate(-1.42 -1.42)"/><path class="c" d="M15.43,18.35s0,0,.05,0,0,.05,0,.06l.06,0h0s0-.09,0-.14h-.09l0,0s0,0,0,0Z" transform="translate(-1.42 -1.42)"/><path class="c" d="M14.15,21a0,0,0,0,0,0,0,0,0,0,0,0-.07,0h0s0,0,0,0S14.14,21.06,14.15,21Z" transform="translate(-1.42 -1.42)"/><path class="c" d="M14.16,21.11s0,0,0,0l0,0,0,0s0,0,0,0v0a0,0,0,0,0-.07,0Z" transform="translate(-1.42 -1.42)"/><path class="c" d="M14.18,19.26h0s0-.05,0-.05,0,0-.05,0,0,0,0,0Z" transform="translate(-1.42 -1.42)"/><path class="c" d="M21,16.74s0,0,0,0v0h0s0,.09,0,.07h0Z" transform="translate(-1.42 -1.42)"/><path class="c" d="M22,18h0a.1.1,0,0,0,0,0s0,0,.05,0S22,18,22,18Z" transform="translate(-1.42 -1.42)"/><path class="c" d="M21.81,18l0,0h0a.39.39,0,0,0,.06-.11h-.09l-.05,0v0A.09.09,0,0,1,21.81,18Z" transform="translate(-1.42 -1.42)"/><path class="c" d="M26.19,9.51s0,0,0,0l0,0h0s0,.05,0,.07,0,0,0,0Z" transform="translate(-1.42 -1.42)"/><path class="c" d="M21.74,17.73h0v-.05a.06.06,0,0,0-.06,0s0,0,0,0a0,0,0,0,0,.06,0Z" transform="translate(-1.42 -1.42)"/><path class="c" d="M21.28,17.26h.07a.16.16,0,0,0,0-.07l-.05,0s0,0-.05,0,0,.05,0,.07S21.27,17.26,21.28,17.26Z" transform="translate(-1.42 -1.42)"/><path class="c" d="M31.75,14s0-.06,0-.08a0,0,0,0,0-.07,0s-.05,0,0,0v0A.07.07,0,0,0,31.75,14Z" transform="translate(-1.42 -1.42)"/><path class="c" d="M34.62,6s0,0,0,0,0,0,0,0h0s0,.05,0,.07,0,0,0,0Z" transform="translate(-1.42 -1.42)"/><path class="c" d="M21.14,17a0,0,0,0,0,0,0h0s0,0,0,0,0,0,0,0h0S21.13,17,21.14,17Z" transform="translate(-1.42 -1.42)"/><path class="c" d="M26.36,9.83a.19.19,0,0,0,0-.1h0s-.09.09-.08.1h.11Z" transform="translate(-1.42 -1.42)"/><path class="c" d="M27.56,8.69h0a.08.08,0,0,0-.08,0,0,0,0,0,0,0,0,0,0,0,0,0,0,.06s.05,0,.07,0S27.57,8.71,27.56,8.69Z" transform="translate(-1.42 -1.42)"/><path class="c" d="M27.21,11.68s0,0,0,0-.07-.08-.1-.07h0s0,0,0,0,.1.07.12.08Z" transform="translate(-1.42 -1.42)"/><path class="c" d="M21.61,12.8s0,0,0,.06l.06,0h0s0-.09,0-.14l0,0s0,0-.05,0l0,0v0h0S21.61,12.79,21.61,12.8Z" transform="translate(-1.42 -1.42)"/><path class="c" d="M21.4,12.82s0,0,0,0h0s0,0,0,0Z" transform="translate(-1.42 -1.42)"/><path class="c" d="M19.79,15.19a.08.08,0,0,0,0,0,.06.06,0,0,0-.07,0h0s0,0,0,0S19.77,15.2,19.79,15.19Z" transform="translate(-1.42 -1.42)"/><path class="c" d="M20.16,13.45h0s0,0,0,0h-.05a0,0,0,0,0,0,0Z" transform="translate(-1.42 -1.42)"/><path class="c" d="M20,15.44v0l0,0h0s0,.09,0,.06H20Z" transform="translate(-1.42 -1.42)"/><path class="c" d="M19.78,15.26s0,0,0,.05h0s0,0,0,0,0,0,0,0v0a0,0,0,0,0-.06,0Z" transform="translate(-1.42 -1.42)"/><path class="c" d="M20.59,16.36h0v0s0,0,0,0h0v0l-.09,0a0,0,0,0,0,0,0Z" transform="translate(-1.42 -1.42)"/><path class="c" d="M21.6,12.94h0s0,0,0,0a0,0,0,0,0,0,0l0,0s0,0,0,0v0S21.63,12.92,21.6,12.94Z" transform="translate(-1.42 -1.42)"/><path class="c" d="M20.79,16.54l0,0,0,0s0,0,0,0a.06.06,0,0,0-.09,0v0l0,0S20.78,16.54,20.79,16.54Z" transform="translate(-1.42 -1.42)"/><path class="c" d="M11.14,37.79s-.05,0-.08-.06h0v0s0,0,0,0A.15.15,0,0,0,11.14,37.79Z" transform="translate(-1.42 -1.42)"/><path class="c" d="M20.56,16.25h0s0,0,0,0a.06.06,0,0,0-.05,0l0,0s0,0,0,0S20.55,16.25,20.56,16.25Z" transform="translate(-1.42 -1.42)"/><path class="c" d="M14.36,21.26s0,0,0,0,0,0,0,0l0,0h0s0,.09,0,.07Z" transform="translate(-1.42 -1.42)"/><path class="c" d="M5.88,49.29h0a.09.09,0,0,0,0,.1s0,.07.05.07h0A.1.1,0,0,0,6,49.35v0A.08.08,0,0,0,5.88,49.29Z" transform="translate(-1.42 -1.42)"/><path class="c" d="M6,49.63v0a.08.08,0,0,0,.09.07h0a.09.09,0,0,0,0-.07.09.09,0,0,0-.09-.07S6,49.6,6,49.63Z" transform="translate(-1.42 -1.42)"/><path class="c" d="M6.61,49.79s-.06.05-.05.07,0,0,0,0h0s0,0,0-.06,0,0,0,0Z" transform="translate(-1.42 -1.42)"/><path class="c" d="M6.8,49.86h0a0,0,0,0,0,0,0,.06.06,0,0,0,.06,0,.07.07,0,0,0-.06,0S6.81,49.84,6.8,49.86Z" transform="translate(-1.42 -1.42)"/><path class="c" d="M6.87,49.71h0s0,0,0,0,.07,0,.06-.05,0-.06,0-.06A.06.06,0,0,0,6.87,49.71Z" transform="translate(-1.42 -1.42)"/><path class="c" d="M5.84,49.16s0,0,0-.06,0-.05,0-.05h0a.05.05,0,0,0,0,.05s0,.07,0,.06Z" transform="translate(-1.42 -1.42)"/><path class="c" d="M7,35.6s0-.06,0-.07h0s0,0,0,.05Z" transform="translate(-1.42 -1.42)"/><path class="c" d="M6.62,36.19s0,0,0,0h0s0,0,0,0S6.62,36.2,6.62,36.19Z" transform="translate(-1.42 -1.42)"/><path class="c" d="M7.65,47.93s0,0,0,0h0a.05.05,0,0,0,0,.07s0,.07,0,.07h0A.08.08,0,0,0,7.65,47.93Z" transform="translate(-1.42 -1.42)"/><path class="c" d="M6.46,35.36s0,0,0,0,0,0,0,0a0,0,0,0,0,0,0Z" transform="translate(-1.42 -1.42)"/><path class="c" d="M5.75,48.31h0a0,0,0,0,0-.05,0h0a.08.08,0,0,0,.08.05.06.06,0,0,0,0-.07S5.77,48.31,5.75,48.31Z" transform="translate(-1.42 -1.42)"/><path class="c" d="M10,54.77s-.05,0,0,0a0,0,0,0,0,0,0l0,0S10,54.78,10,54.77Z" transform="translate(-1.42 -1.42)"/><path class="c" d="M10.11,54.74s0,0,.07.07h0s0,0,0-.06-.1,0-.11,0S10.11,54.73,10.11,54.74Z" transform="translate(-1.42 -1.42)"/><path class="c" d="M10.07,54.78h0s0-.05,0-.06h0a.25.25,0,0,0,.05-.08h0s0,0-.06,0-.13,0-.16,0a0,0,0,0,0,0,0h0S10,54.79,10.07,54.78Z" transform="translate(-1.42 -1.42)"/><path class="c" d="M9.89,54.82s0,0,0-.06,0,0-.06,0,0,0,0,0,0,0,0,0Z" transform="translate(-1.42 -1.42)"/><path class="c" d="M7.43,36.62s0,0,0-.06h0s0,.07,0,.07Z" transform="translate(-1.42 -1.42)"/><path class="c" d="M7.76,48.23s0-.06-.08-.06h0a.08.08,0,0,0,0,.07s0,0,0,0h0a.07.07,0,0,0,.06,0Z" transform="translate(-1.42 -1.42)"/><path class="c" d="M10.32,54.73s0,0,0,0,0,.06,0,0l0,0S10.33,54.75,10.32,54.73Z" transform="translate(-1.42 -1.42)"/><path class="c" d="M7.72,49.39l0,0s0,0,0,.07l0,0c.06,0,.1-.14.1-.21s0-.07-.05-.07A.16.16,0,0,0,7.72,49.39Z" transform="translate(-1.42 -1.42)"/><path class="c" d="M7.79,49.23a.06.06,0,0,0,0-.07.05.05,0,0,0-.07,0,0,0,0,0,0,0,0s0,0,0,.06Z" transform="translate(-1.42 -1.42)"/><path class="c" d="M10.15,57.29s0,0,0,0a0,0,0,0,0,0,0s0,0,0,0Z" transform="translate(-1.42 -1.42)"/><path class="c" d="M11.18,55s0,0,0-.06,0,0,0,0,0,0,0,0,0,0,0,0Z" transform="translate(-1.42 -1.42)"/><path class="c" d="M11.38,55.21s0,0,0,0-.05,0,0,0h0S11.39,55.22,11.38,55.21Z" transform="translate(-1.42 -1.42)"/><path class="c" d="M8.06,36s0,0,0,0a.05.05,0,0,0,0,0,0,0,0,0,0,0,0S8.06,36,8.06,36Z" transform="translate(-1.42 -1.42)"/><path class="c" d="M9.46,34.67s0,0,0,0v0l0,0h0s0,0,0,0a0,0,0,0,0,0,0Z" transform="translate(-1.42 -1.42)"/><path class="c" d="M9.94,34.67s0,0,0,0h0s0,0,0,0S9.93,34.69,9.94,34.67Z" transform="translate(-1.42 -1.42)"/><path class="c" d="M7.54,35.71s0,0,0,0-.08,0-.12,0l0,0A.11.11,0,0,0,7.54,35.71Z" transform="translate(-1.42 -1.42)"/><path class="c" d="M10.51,34.56h0s0,0-.07,0l.05,0A.18.18,0,0,0,10.51,34.56Z" transform="translate(-1.42 -1.42)"/><path class="c" d="M7.1,32.92s0,.06,0,.07v-.08Z" transform="translate(-1.42 -1.42)"/><path class="c" d="M11.9,34.65a0,0,0,0,0,0,0h0s0,0,0,0Z" transform="translate(-1.42 -1.42)"/><path class="c" d="M10.2,37.51v0s0,0,0,0,0,0,0,0,0,0,0,0S10.19,37.54,10.2,37.51Z" transform="translate(-1.42 -1.42)"/><path class="c" d="M12,34.77s0,0,0,0h0s0,0-.06,0,0,0,0,0h0S12,34.8,12,34.77Z" transform="translate(-1.42 -1.42)"/><path class="c" d="M10.67,34.64h0s0-.05,0-.06h0l0,0,0,0s0,0,0,0Z" transform="translate(-1.42 -1.42)"/><path class="c" d="M7.84,34s0,.08,0,.1v0S8,34,8,34a.12.12,0,0,0,0-.07C7.89,33.87,7.86,33.92,7.84,34Z" transform="translate(-1.42 -1.42)"/><path class="c" d="M11.83,34.66s0,0,0,0h0s0,0,0,0A0,0,0,0,0,11.83,34.66Z" transform="translate(-1.42 -1.42)"/><path class="c" d="M7.31,33h0a.08.08,0,0,0,0,0,0,0,0,0,0,0,0,0,0,0,0,0,0,0Z" transform="translate(-1.42 -1.42)"/><path class="c" d="M8.39,36.05s0,0,0,0,0,0,0,0,.07,0,.07,0Z" transform="translate(-1.42 -1.42)"/><path class="c" d="M8.83,34.69s.09-.06.1-.1a.11.11,0,0,0,0-.06l-.06,0s0,0,0,0l-.05,0s0,0,0,0,0,0,0,0S8.82,34.68,8.83,34.69Z" transform="translate(-1.42 -1.42)"/><path class="c" d="M8.22,36s0,0,0,0,0,0,0,0,0,0,0,0S8.22,36,8.22,36Z" transform="translate(-1.42 -1.42)"/><path class="c" d="M8,34l0,0,0,0s0,0,0,0Z" transform="translate(-1.42 -1.42)"/><path class="c" d="M7.69,35.94s0,0,0,0h0s0,0,0,0,0,0,0,0Z" transform="translate(-1.42 -1.42)"/><path class="c" d="M10.64,36.52a0,0,0,0,0,0-.05h0a.11.11,0,0,0,0,.09S10.63,36.54,10.64,36.52Z" transform="translate(-1.42 -1.42)"/><path class="c" d="M9.05,35.14a0,0,0,0,0,0,0l0,0h.05Z" transform="translate(-1.42 -1.42)"/><path class="c" d="M8.41,34.41h0s0,0,.05,0v0H8.45S8.42,34.39,8.41,34.41Z" transform="translate(-1.42 -1.42)"/><path class="c" d="M8.16,34.2s0,0,0,0a.15.15,0,0,0,0-.07.07.07,0,0,0,0,0S8.15,34.2,8.16,34.2Z" transform="translate(-1.42 -1.42)"/><path class="c" d="M8.52,34.46a.16.16,0,0,0,0,.07h0c.05,0,.06,0,.09-.07h0A0,0,0,0,0,8.52,34.46Z" transform="translate(-1.42 -1.42)"/><path class="c" d="M65.86,16.34a0,0,0,0,0,0,0h0v0a0,0,0,0,0,0,0A0,0,0,0,0,65.86,16.34Z" transform="translate(-1.42 -1.42)"/><path class="c" d="M81.67,24.55v0s0,0,0,0h.06s0,0,0,0S81.7,24.53,81.67,24.55Z" transform="translate(-1.42 -1.42)"/><path class="c" d="M77.85,28l0,0s0,0,0,0a0,0,0,0,0,0,0S77.83,28,77.85,28Z" transform="translate(-1.42 -1.42)"/><path class="c" d="M80.45,22.59s0,0,0,0a0,0,0,0,0,0,0s0,0,0,0-.08,0-.11,0h0a.11.11,0,0,0,0,0A.05.05,0,0,0,80.45,22.59Z" transform="translate(-1.42 -1.42)"/><path class="c" d="M80.22,24.94a1.13,1.13,0,0,0,1.14-.07l.17-.11c.06-.08,0-.2.13-.25l0,0a1.1,1.1,0,0,0,0-1c-.05-.09-.1-.24-.17-.35a.4.4,0,0,0-.26-.2.21.21,0,0,0-.19,0,.38.38,0,0,0-.11.11l-.47.23h0s0,0,0,.08l-.41.24c-.33.2-.43.3-.49.41l.27.44A1,1,0,0,0,80.22,24.94Zm1-1.89s0,0,0,0,0,0,0,0,0,0,0,0S81.18,23,81.2,23.05Z" transform="translate(-1.42 -1.42)"/><path class="c" d="M80.4,23.4s0,0,0,0h0s0,0,0,0,0,0,0,0,0,0,0,0S80.4,23.41,80.4,23.4Z" transform="translate(-1.42 -1.42)"/><path class="c" d="M77.75,28s0,.08-.06.13l0,0s0,0,0,.05,0,0,0,0,0,0,0,0,.15-.15.13-.19h-.06Z" transform="translate(-1.42 -1.42)"/><path class="c" d="M76.37,25.93l-.06,0-.07,0s-.08-.06-.1,0,0,0,0,0,.07.06.11.07l0,0,.16-.12c.05,0,.09,0,.07-.07s0,0,0,0Z" transform="translate(-1.42 -1.42)"/><path class="c" d="M77.46,27.31h0a.09.09,0,0,0,0,.09h.06a.12.12,0,0,0,0-.1Z" transform="translate(-1.42 -1.42)"/><path class="c" d="M76,25.72s0,0,0,0a0,0,0,0,0,0,0h0l0,0a0,0,0,0,0,0,0Z" transform="translate(-1.42 -1.42)"/><path class="c" d="M77.61,28.07a0,0,0,0,0-.07,0h0s0,0,0,.06a0,0,0,0,0,0,0,0,0,0,0,0,0-.06Z" transform="translate(-1.42 -1.42)"/><path class="c" d="M73.07,22a0,0,0,0,0,0-.07s0,0,0,0h0a.06.06,0,0,0,.09.08Z" transform="translate(-1.42 -1.42)"/><path class="c" d="M77.63,28v0a0,0,0,0,0,0,0s0,0,0,0v0a0,0,0,0,0-.06,0s0,0,0,0S77.62,28,77.63,28Z" transform="translate(-1.42 -1.42)"/><path class="c" d="M71,12.5a0,0,0,0,0,0,.05s0,0,0,0h0s0,0,0,0A0,0,0,0,0,71,12.5Z" transform="translate(-1.42 -1.42)"/><path class="c" d="M70.86,12.13s0,0,0,0l0,0s0,0,0,0l-.05-.06S70.86,12.12,70.86,12.13Z" transform="translate(-1.42 -1.42)"/><path class="c" d="M71.33,11.94l0,.05h0a.13.13,0,0,0,0-.11s-.14,0-.16.05h0v0S71.28,11.91,71.33,11.94Z" transform="translate(-1.42 -1.42)"/><path class="c" d="M70.8,12.12a0,0,0,0,0,0,0h0s0,0,0,.05h0Z" transform="translate(-1.42 -1.42)"/><path class="c" d="M35.14,8.31h0s0,0,0,0-.06-.1-.08-.09h0a0,0,0,0,0,0,0A.19.19,0,0,0,35.14,8.31Z" transform="translate(-1.42 -1.42)"/><path class="c" d="M75.16,15.56s0,0,.09,0a0,0,0,0,0,0,0,.24.24,0,0,0-.13,0l0,0Z" transform="translate(-1.42 -1.42)"/><path class="c" d="M71.07,11.87s0,.08,0,.09h0l0,0s0-.06,0-.08h-.05Z" transform="translate(-1.42 -1.42)"/><path class="c" d="M76.63,16.32h0a.08.08,0,0,0,0-.08h0a.06.06,0,0,0-.06,0s0,.05,0,.08S76.62,16.33,76.63,16.32Z" transform="translate(-1.42 -1.42)"/><path class="c" d="M73.73,17s.06-.1,0-.12l0,0h0a.18.18,0,0,0,0,.14h0Z" transform="translate(-1.42 -1.42)"/><path class="c" d="M70.87,12.23s0,0,0,0-.1,0-.12,0h0s0,0,0,0l.06,0,0,0s0,0,0,0a.08.08,0,0,1,.08,0l0,0Z" transform="translate(-1.42 -1.42)"/><path class="c" d="M75.45,15.28s0,0,0,0h-.07s0,0,0,0l0,0Z" transform="translate(-1.42 -1.42)"/><path class="c" d="M85.87,48.11a.09.09,0,0,0,0-.06l0,0s0,0-.06.06a.07.07,0,0,0,.07.06S85.87,48.14,85.87,48.11Z" transform="translate(-1.42 -1.42)"/><path class="c" d="M85.83,49.26s0,0,0,.07a.07.07,0,0,0,0,.06h0a.07.07,0,0,0,.06-.07s0-.07,0-.07Z" transform="translate(-1.42 -1.42)"/><path class="c" d="M85.86,47.77s0,0,0,0-.12.13-.12.2,0,.07,0,.07a.13.13,0,0,0,.14-.13v0S85.89,47.79,85.86,47.77Z" transform="translate(-1.42 -1.42)"/><path class="c" d="M85.79,49.1a.1.1,0,0,0,0-.07s0,0,0,0l0,0a.09.09,0,0,0-.07,0v0a.08.08,0,0,0,.07.07Z" transform="translate(-1.42 -1.42)"/><path class="c" d="M86.67,47.67a.07.07,0,0,0,0,.07.07.07,0,0,0,.07-.07h0s0,0,0,0S86.67,47.65,86.67,47.67Z" transform="translate(-1.42 -1.42)"/><path class="c" d="M88.48,37.91s0,0,0,0h0s0,0-.06,0h0v0l0,0Z" transform="translate(-1.42 -1.42)"/><path class="c" d="M84.29,38.49h0l0,0,0-.05h0S84.3,38.48,84.29,38.49Z" transform="translate(-1.42 -1.42)"/><path class="c" d="M82.5,38.9a.11.11,0,0,0-.1,0,0,0,0,0,0-.05,0,.12.12,0,0,0,.07,0h.09Z" transform="translate(-1.42 -1.42)"/><path class="c" d="M85.19,38.38h0l.06-.09h0S85.19,38.36,85.19,38.38Z" transform="translate(-1.42 -1.42)"/><path class="c" d="M84.85,38.44h0a.07.07,0,0,0,0-.06s0,0,0,0S84.85,38.44,84.85,38.44Z" transform="translate(-1.42 -1.42)"/><path class="c" d="M86.76,47.53s0,0,0,0a.06.06,0,0,0,.06,0h0a0,0,0,0,0-.05,0A.06.06,0,0,0,86.76,47.53Z" transform="translate(-1.42 -1.42)"/><path class="c" d="M87.75,48h0a.1.1,0,0,0-.11.09v0a.1.1,0,0,0,.08.05h0a.09.09,0,0,0,.05-.09S87.78,48,87.75,48Z" transform="translate(-1.42 -1.42)"/><path class="c" d="M86.44,31.05s0,0,0-.07,0,0,0,0h-.06a.08.08,0,0,0,0,.07.08.08,0,0,0,.05,0Z" transform="translate(-1.42 -1.42)"/><path class="c" d="M85.79,29.62l0,0v0a.08.08,0,0,0-.08,0s0,0,0,0v0Z" transform="translate(-1.42 -1.42)"/><path class="c" d="M85.51,29.75v0a.27.27,0,0,0-.1-.09v.11S85.45,29.77,85.51,29.75Z" transform="translate(-1.42 -1.42)"/><path class="c" d="M80.73,34.71a.07.07,0,0,0,.08,0s0,0,0-.07,0,0,0,0h0A.05.05,0,0,0,80.73,34.71Z" transform="translate(-1.42 -1.42)"/><path class="c" d="M83.53,30.43s.09-.07.08-.1v0s0,0,0,0a.28.28,0,0,0-.08.12h0S83.51,30.44,83.53,30.43Z" transform="translate(-1.42 -1.42)"/><path class="c" d="M87.75,48.45s0,0,0,0,0-.07,0-.07h0a.07.07,0,0,0,0,.06s0,.05,0,.05Z" transform="translate(-1.42 -1.42)"/><path class="c" d="M87.63,47.83a.1.1,0,0,0-.09-.08h0a.09.09,0,0,0,0,.07s0,.07.07.07a.08.08,0,0,0,.08,0Z" transform="translate(-1.42 -1.42)"/><path class="c" d="M75.91,25.52s0,.05,0,.06h0a0,0,0,0,0,0,0,.06.06,0,0,0,0-.07h0Z" transform="translate(-1.42 -1.42)"/><path class="c" d="M87.69,49.15s0,.05,0,.05h0a0,0,0,0,0,.05-.05h0s0,0-.07,0S87.69,49.12,87.69,49.15Z" transform="translate(-1.42 -1.42)"/><path class="c" d="M87.05,47.54a.06.06,0,0,0,0,.06l0,0h0s.07,0,.07-.06,0,0,0,0Z" transform="translate(-1.42 -1.42)"/><path class="c" d="M71,12h0s0,0,0,0h.06s0,0,0,0h0s0,.09,0,.12h0l0,0c-.07.1,0,.09,0,.17s0,0,.06,0l0,0h.09c0-.06-.13-.09-.1-.14h0v-.05a.28.28,0,0,0,.25-.06s0,0,0,0C71.16,12,71.16,12.08,71,12Z" transform="translate(-1.42 -1.42)"/><path class="c" d="M51.73,9c0-.05,0-.1,0-.11s-.05,0-.06.05a.3.3,0,0,0,0,.16S51.72,9,51.73,9Z" transform="translate(-1.42 -1.42)"/><path class="c" d="M52.19,7.27c0-.1,0-.21,0-.22s-.06.06-.08.15a1,1,0,0,0,0,.29S52.17,7.38,52.19,7.27Z" transform="translate(-1.42 -1.42)"/><path class="c" d="M46.66,10.54s.06.06.08.12v.06s0,.06,0,.06,0,0,0,0,0,0,0,0,0-.21-.09-.21,0,0,0,0Z" transform="translate(-1.42 -1.42)"/><path class="c" d="M46.7,10.41l0,0s0,0,0,0,0,0,.05,0Z" transform="translate(-1.42 -1.42)"/><path class="c" d="M46.64,10.69s0,0,0,.05h0a.05.05,0,0,0,0,0s.05,0,.05,0a.06.06,0,0,0-.05-.06Z" transform="translate(-1.42 -1.42)"/><path class="c" d="M51.76,8.78a0,0,0,0,0,0,0s0-.05,0-.06h0s0,0,0,0,0,.06,0,.06Z" transform="translate(-1.42 -1.42)"/><path class="c" d="M52,8.09A0,0,0,0,0,52,8,.06.06,0,0,0,52,8h0s0,0,0,0,0,.06,0,.06Z" transform="translate(-1.42 -1.42)"/><path class="c" d="M51.78,9.18h0s0,0,0,0a.08.08,0,0,0,0-.08s0,0,0,0S51.76,9.17,51.78,9.18Z" transform="translate(-1.42 -1.42)"/><path class="c" d="M52,7.85a.22.22,0,0,0,.1-.12.34.34,0,0,0,0-.1l0,0h0s-.06.06-.07.14,0,.14,0,.14Z" transform="translate(-1.42 -1.42)"/><path class="c" d="M51.91,9.14l-.15.33a.17.17,0,0,0,0,.1v0c-.06.31.2.59.41.76a.6.6,0,0,0,.23.1,1.94,1.94,0,0,0,.44,0h.06c.55,0,.68-.47.73-.74l.47-2.27a2,2,0,0,1,0-.41l.14-.57a1.85,1.85,0,0,0,0-.23,1.31,1.31,0,0,0-.2-.72L54,5.49a.77.77,0,0,0-.43-.22,1.2,1.2,0,0,0-.5,0,.92.92,0,0,0-.55.7.19.19,0,0,1,0,.11.58.58,0,0,1-.13.26.21.21,0,0,1,0,.2l-.07.24s0,.07,0,.1a.22.22,0,0,1,0,.19c0,.09-.07.18-.09.29s-.14.38-.17.57a.78.78,0,0,0,0,.27.6.6,0,0,0-.11.26c0,.14,0,.29-.06.41a.12.12,0,0,1,0,.09A.25.25,0,0,1,51.91,9.14Z" transform="translate(-1.42 -1.42)"/><path class="c" d="M51.89,8.42s0-.05,0-.05h0s0,0,0,0,0,0,0,0S51.89,8.44,51.89,8.42Z" transform="translate(-1.42 -1.42)"/><path class="c" d="M51.65,9.31s0,0,0,0v0s0,0,0-.06h0s0,0,0,0,0,.13,0,.14Z" transform="translate(-1.42 -1.42)"/><path class="c" d="M43.65,10.9v0a.06.06,0,0,0,0-.05s0,0,0,0v0s0,0,.06,0Z" transform="translate(-1.42 -1.42)"/><path class="c" d="M46.62,10.66h0s0,0,0,0,0,0,0,0h0a.05.05,0,0,0,0,.05h0Z" transform="translate(-1.42 -1.42)"/><path class="c" d="M43.87,10.92a0,0,0,0,0,0,0,.08.08,0,0,0,0,0h0l0,0s0,0,0,0Z" transform="translate(-1.42 -1.42)"/><path class="c" d="M39.14,11.49a.05.05,0,0,0-.07,0s0,0,0,0v0a.06.06,0,0,0,.07,0A.08.08,0,0,0,39.14,11.49Z" transform="translate(-1.42 -1.42)"/><path class="c" d="M71.06,11.68h0s0,0,0-.06h0s0,0,0,0Z" transform="translate(-1.42 -1.42)"/><path class="c" d="M44,6s0,0,0,0,0,0,0,0h0s0,0,0,0a0,0,0,0,0,0,0S44,6,44,6Z" transform="translate(-1.42 -1.42)"/><path class="c" d="M44,5.82h0s0,0,.05.07v.48c0,.39,0,.52.12.63h.5a1,1,0,0,0,.57-.14,1.13,1.13,0,0,0,.52-1,1.34,1.34,0,0,0,0-.2c0-.09-.15-.15-.15-.24a.09.09,0,0,1,0-.05,1.11,1.11,0,0,0-.85-.47l-.39,0a.36.36,0,0,0-.31.12.2.2,0,0,0-.06.17.32.32,0,0,0,0,.16C44,5.45,44,5.68,44,5.82Zm.1-.76s0,0,0,0,0,0,0,0,0,0,0,0S44.09,5.06,44.11,5.06Z" transform="translate(-1.42 -1.42)"/><path class="c" d="M46,10.54h0a.09.09,0,0,0,0,0s0-.05-.08-.05h0s0,0,0,0S45.94,10.54,46,10.54Z" transform="translate(-1.42 -1.42)"/><path class="c" d="M44.09,10.9a.17.17,0,0,0,.11-.06.09.09,0,0,0,0-.05l0-.2c0-.06,0-.1,0-.1s0,0,0,0,0,.13,0,.15v.07s0,.06,0,.07-.1,0-.1.07Z" transform="translate(-1.42 -1.42)"/><path class="c" d="M45.69,5.47a.07.07,0,0,0,0,0s0,0,0,0-.06,0-.06,0l0,0S45.67,5.46,45.69,5.47Z" transform="translate(-1.42 -1.42)"/><path class="c" d="M43.24,5.48l0,0,.05,0a.05.05,0,0,0,0-.08h0s-.07.05-.07.08Z" transform="translate(-1.42 -1.42)"/><path class="c" d="M70.51,12s0,0,0-.06a.08.08,0,0,0-.08,0s0,.05,0,.07A.08.08,0,0,0,70.51,12Z" transform="translate(-1.42 -1.42)"/><path class="c" d="M67.44,13.63s0,0,0,0h0s0,.07,0,.08Z" transform="translate(-1.42 -1.42)"/><path class="c" d="M67.38,14v0a0,0,0,0,0,0-.05h0s0,0,0,.05Z" transform="translate(-1.42 -1.42)"/><path class="c" d="M67,14.24h0s0-.05,0-.06h0s0,0,0,0,0,0,0,0Z" transform="translate(-1.42 -1.42)"/><path class="c" d="M67.08,14.14l0-.06,0,0v0s0,0,0,0l0,0s0,0,0,.05Z" transform="translate(-1.42 -1.42)"/><path class="c" d="M70.77,12.5a0,0,0,0,0,0-.05s0,0-.06,0,0,0,0,0h0S70.76,12.52,70.77,12.5Z" transform="translate(-1.42 -1.42)"/><path class="c" d="M70.81,12l.06,0s0-.05,0-.07L71,12s0,0,0-.06l-.14,0s0,0,0-.08l-.09,0c0,.07.07.11,0,.19Z" transform="translate(-1.42 -1.42)"/><path class="c" d="M70.6,12.19s0,0,0,0a0,0,0,0,0,0,0h0s-.07,0-.08,0h0Z" transform="translate(-1.42 -1.42)"/><path class="c" d="M71,11.77h0l0,0a.06.06,0,0,0-.07,0,0,0,0,0,0,0,0S71,11.79,71,11.77Z" transform="translate(-1.42 -1.42)"/><path class="c" d="M70.64,12.55h0l0,0,0,0h0S70.62,12.54,70.64,12.55Z" transform="translate(-1.42 -1.42)"/><path class="c" d="M66.65,14.92h0a.07.07,0,0,0,0-.06s0,0-.06,0l0,0S66.64,14.92,66.65,14.92Z" transform="translate(-1.42 -1.42)"/><path class="c" d="M52.24,7a.09.09,0,0,0,0-.07h0a0,0,0,0,0,0,0,0,0,0,0,0,0,.05S52.24,7,52.24,7Z" transform="translate(-1.42 -1.42)"/><path class="c" d="M59.41,11.23h.08s-.05-.1-.05-.1v0l0,0S59.4,11.23,59.41,11.23Z" transform="translate(-1.42 -1.42)"/><path class="c" d="M59.23,11.05v0s0,0,0,0,0,0,0,0a0,0,0,0,0,0,0Z" transform="translate(-1.42 -1.42)"/><path class="c" d="M53.33,2.94s0,0,0,0h0s0,0,0,0a0,0,0,0,0,0,0Z" transform="translate(-1.42 -1.42)"/><path class="c" d="M59.5,11.33h0s0-.05,0-.05,0,0,0,0A0,0,0,0,0,59.5,11.33Z" transform="translate(-1.42 -1.42)"/><path class="c" d="M58.77,11.45l0,0s0,0,0,0h0S58.77,11.45,58.77,11.45Z" transform="translate(-1.42 -1.42)"/><path class="c" d="M9.75,54.82s.05,0,0-.07,0,0,0,0l0,0v0S9.74,54.82,9.75,54.82Z" transform="translate(-1.42 -1.42)"/><path class="c" d="M62.21,12v0s0,0,0,0a.05.05,0,0,0,0,0s0,0,0,0S62.2,12,62.21,12Z" transform="translate(-1.42 -1.42)"/><path class="c" d="M62.21,11.77a0,0,0,0,0,0,0,0,0,0,0,0,0,0,0,0,0,0,0,0,.05S62.2,11.78,62.21,11.77Z" transform="translate(-1.42 -1.42)"/><path class="c" d="M63.42,9.12l0-.09a.05.05,0,0,0-.06,0S63.39,9.11,63.42,9.12Z" transform="translate(-1.42 -1.42)"/><path class="c" d="M60.57,6.9a0,0,0,0,0,0,0s.06,0,.06,0,0,0,0,0A.06.06,0,0,0,60.57,6.9Z" transform="translate(-1.42 -1.42)"/><path class="c" d="M36.14,5.46h0s0,0-.07,0h0a.07.07,0,0,0,0,.06s0,0,.07,0A.05.05,0,0,0,36.14,5.46Z" transform="translate(-1.42 -1.42)"/><path class="c" d="M70.94,80.11s0,0,0,0,0,0,.06,0h0a0,0,0,0,0,0,0s0,0,0,0S71,80.1,70.94,80.11Z" transform="translate(-1.42 -1.42)"/><path class="c" d="M71.14,77.32a2,2,0,0,1-.29-.29l-.35-.47a1.37,1.37,0,0,0-.16-.18,1.26,1.26,0,0,0-.68-.29l-.11,0a.75.75,0,0,0-.44.19,1.15,1.15,0,0,0-.32.39.92.92,0,0,0,.19.87.31.31,0,0,1,.09.07.73.73,0,0,1,.11.27.25.25,0,0,1,.17.1l.15.21.07.07a.32.32,0,0,1,.16.1c.06.07.09.18.16.26s.21.34.33.49a.91.91,0,0,0,.2.19.85.85,0,0,0,.13.25c.09.11.21.21.28.3a.18.18,0,0,1,.06.09.19.19,0,0,1,.15.08l.17.33a.28.28,0,0,0,.08.06l0,0a.87.87,0,0,0,.84.17.44.44,0,0,0,.22-.12,1.56,1.56,0,0,0,.3-.32h0l0,0a.73.73,0,0,0-.11-1Z" transform="translate(-1.42 -1.42)"/><path class="c" d="M77.66,70.49v0s0,0-.05,0,0,0,0,.06.05,0,.07,0a.16.16,0,0,0,0-.12Z" transform="translate(-1.42 -1.42)"/><path class="c" d="M78.39,71.09s-.1-.06-.12,0a.09.09,0,0,0,0,.07s0,0,.06,0a.1.1,0,0,0,0,0,.1.1,0,0,0,.09,0S78.45,71.14,78.39,71.09Z" transform="translate(-1.42 -1.42)"/><path class="c" d="M78.08,70.79h0l0,0s-.08,0-.11,0a.06.06,0,0,0,0,.07c.06-.08.1,0,.15,0l.13.11A.28.28,0,0,0,78.08,70.79Z" transform="translate(-1.42 -1.42)"/><path class="c" d="M78.06,71a0,0,0,0,0,0,.06c.07,0,.1,0,.12,0s0,.07,0,.08,0,0,0,0,0,0,0-.06,0,0,0,0S78.08,71,78.06,71Z" transform="translate(-1.42 -1.42)"/><path class="c" d="M71,80.3s0,0-.06,0h0v0s.1.08.12.07a0,0,0,0,0,0,0,.08.08,0,0,0,0,0Z" transform="translate(-1.42 -1.42)"/><path class="c" d="M70.21,79.25l0,0s0,0,0,.06,0,0,.07,0l0,0s0,0,0-.06S70.22,79.24,70.21,79.25Z" transform="translate(-1.42 -1.42)"/><path class="c" d="M70,79h-.08s0,.08.07.15.09.1.11.08v0a.18.18,0,0,0,0-.15A.24.24,0,0,0,70,79Z" transform="translate(-1.42 -1.42)"/><path class="c" d="M70.7,80a.06.06,0,0,0,0,.08.29.29,0,0,0,.14.08s0-.06,0-.1S70.73,80,70.7,80Z" transform="translate(-1.42 -1.42)"/><path class="c" d="M70.6,79.89h0s0,0,0,0,0,0,.06,0,0,0,0,0a0,0,0,0,0,0,0S70.62,79.88,70.6,79.89Z" transform="translate(-1.42 -1.42)"/><path class="c" d="M70.41,79.62s0,0,0,0l0,0s0,0,0-.06a.09.09,0,0,0-.07,0Z" transform="translate(-1.42 -1.42)"/><path class="c" d="M78.46,72s-.06,0-.07,0,0,.14.13.22.06,0,.09,0S78.5,72,78.46,72Z" transform="translate(-1.42 -1.42)"/><path class="c" d="M80.05,74a0,0,0,0,1,.06,0s0,.06,0,.08,0,0-.06,0,0,0,0,.08a.22.22,0,0,0,.07-.07s0-.08,0-.17,0,0-.06,0Z" transform="translate(-1.42 -1.42)"/><path class="c" d="M80.09,73.79s0,0,0-.06l-.06,0,0,0Z" transform="translate(-1.42 -1.42)"/><path class="c" d="M80.17,73.85a.22.22,0,0,0,.11,0s0-.07,0-.09h0v-.06l-.07,0S80.22,73.79,80.17,73.85Z" transform="translate(-1.42 -1.42)"/><path class="c" d="M79.73,73.81l0,0s0,0,0,0,0,0,0,0A.06.06,0,0,0,79.73,73.81Z" transform="translate(-1.42 -1.42)"/><path class="c" d="M80.14,73.63l.09-.1s0,.08,0,.08,0,0,0,0,0-.12.06-.17l0,0h0l0,0a0,0,0,0,0-.05,0s0,.07,0,.1-.08,0-.11.09Z" transform="translate(-1.42 -1.42)"/><path class="c" d="M63.65,79.81v0s0,0,0,0a0,0,0,0,0,0,0,0,0,0,0,0,0,0A0,0,0,0,0,63.65,79.81Z" transform="translate(-1.42 -1.42)"/><path class="c" d="M78.75,71.42v0h.05l0,0-.15-.09,0,0a.14.14,0,0,0-.11,0s0,0,0,0l.08,0v.06a.08.08,0,0,1,0,0h.08a.08.08,0,0,0,0,0s0,0,.07,0a.09.09,0,0,0,0,0,.22.22,0,0,0,.13,0l0,0Z" transform="translate(-1.42 -1.42)"/><path class="c" d="M79.5,74.71h0s0,0,0,.06,0,0,.06,0a.06.06,0,0,0,0-.07S79.51,74.7,79.5,74.71Z" transform="translate(-1.42 -1.42)"/><path class="c" d="M79,75s.09,0,.11,0,0,0,0,0h0a0,0,0,0,1,0,0,0,0,0,0,0,0,0,0,0,0,0,0,0,0C79.09,74.94,79.05,75,79,75Z" transform="translate(-1.42 -1.42)"/><path class="c" d="M63.38,79.75s0,0,0,0l0,0s0,0,0,0,0,.09,0,.12h0l.06,0s0,0,0,0a.08.08,0,0,1,0,0A0,0,0,0,1,63.38,79.75Z" transform="translate(-1.42 -1.42)"/><path class="c" d="M63.44,80.09s0,0,0,0,0,0,.07,0,0,0,0,0l0,0Z" transform="translate(-1.42 -1.42)"/><path class="c" d="M63.16,79.53h0s0,0,0,0h0s0,0,0,0,0,0,0,0,0,0,0,0,.1,0,.12,0v0s0,0,0,0,.09,0,.14.08,0,0,0-.06v0l0-.07c-.06,0-.13.07-.17,0a0,0,0,0,0,0,0l0,0a.25.25,0,0,0,.06-.24l0,0C63.23,79.4,63.33,79.45,63.16,79.53Z" transform="translate(-1.42 -1.42)"/><path class="c" d="M63.45,80l0,0h0s0,0,0-.06a0,0,0,0,0,0,0S63.44,80,63.45,80Z" transform="translate(-1.42 -1.42)"/><path class="c" d="M63.19,79.45s0,0,0,0,0,0,0,0a.06.06,0,0,0-.08,0l0,0s0,0,0,0A.08.08,0,0,0,63.19,79.45Z" transform="translate(-1.42 -1.42)"/><path class="c" d="M63.2,79.35a0,0,0,0,0,0,0s0-.08.06-.11h0s-.08-.06-.1,0,0,.13,0,.16Z" transform="translate(-1.42 -1.42)"/><path class="c" d="M63.12,79.94a0,0,0,0,0,0,.06h.06s0,0,0,0,0,0,0,0Z" transform="translate(-1.42 -1.42)"/><path class="c" d="M63.15,79.78s0,0,0,0h0s0,0,0,0h0S63.17,79.77,63.15,79.78Z" transform="translate(-1.42 -1.42)"/><path class="c" d="M79.78,73h0l0,0s0,0,0,0a.06.06,0,0,0,.06,0Z" transform="translate(-1.42 -1.42)"/><path class="c" d="M62.89,79.61l0,.09c.05,0,.12,0,.18,0l0,0s0-.06,0-.07l-.05,0,.09-.06a0,0,0,0,0-.06,0l-.11.1S62.91,79.65,62.89,79.61Z" transform="translate(-1.42 -1.42)"/><path class="c" d="M63.32,79.7l-.08,0,0,0s0,0,0,0l0,0Z" transform="translate(-1.42 -1.42)"/><path class="c" d="M64.53,86.19s0,0,0,0,0,0,0,0,0,0,0,0l0,0A0,0,0,0,0,64.53,86.19Z" transform="translate(-1.42 -1.42)"/><path class="c" d="M63.13,83.92h0s0,0,0,.07v0s0,0,0,0h0a.39.39,0,0,0,0-.06S63.15,83.92,63.13,83.92Z" transform="translate(-1.42 -1.42)"/><path class="c" d="M63.61,84.74s0,0,0,.06,0,0,0,0a.05.05,0,0,0,0,0h0S63.62,84.73,63.61,84.74Z" transform="translate(-1.42 -1.42)"/><path class="c" d="M63.22,84.05a.08.08,0,0,0,0,0s0,0,0,0h0a0,0,0,0,0,0,0s0,0,0,0Z" transform="translate(-1.42 -1.42)"/><path class="c" d="M69.61,78.51s0,.08.07.15a.78.78,0,0,0,.22.2s-.05-.12-.12-.2S69.63,78.49,69.61,78.51Z" transform="translate(-1.42 -1.42)"/><path class="c" d="M69.51,78.39h0s0,0,0,0,0,0,.06,0,0,0,0,0S69.53,78.38,69.51,78.39Z" transform="translate(-1.42 -1.42)"/><path class="c" d="M62.92,79.36h0a0,0,0,0,0,0,0s0,0-.06,0,0,0,0,0h0S62.89,79.37,62.92,79.36Z" transform="translate(-1.42 -1.42)"/><path class="c" d="M63.18,83.68h0a.06.06,0,0,0-.06,0s0,0,0,0h.06Z" transform="translate(-1.42 -1.42)"/><path class="c" d="M63,79.49s.06-.07,0-.09h0s0,0,0,0,0,0,0,.07Z" transform="translate(-1.42 -1.42)"/><path class="c" d="M63,80s0,0-.07,0,0,0,0,.07,0,0,.07,0A.07.07,0,0,0,63,80Z" transform="translate(-1.42 -1.42)"/><path class="c" d="M62.87,83.46h0s.06.05.07,0l0,0Z" transform="translate(-1.42 -1.42)"/><path class="c" d="M78.91,75c-.14,0-.12.1-.29,0l0,0A.34.34,0,0,0,79,75v0Z" transform="translate(-1.42 -1.42)"/><path class="c" d="M85.14,56.32h0s0,0,0,0,0,0,0,0Z" transform="translate(-1.42 -1.42)"/><path class="c" d="M84.94,55.77l0,0s0,0,0,0l0,0s0,0,0,0,.06.1.07.1.08-.07.09-.1a.11.11,0,0,0,0-.07Z" transform="translate(-1.42 -1.42)"/><path class="c" d="M85.52,55.75h0s0,0,0,0,0,0,0,0h0s0,0,0,0,0,0,0,0Z" transform="translate(-1.42 -1.42)"/><path class="c" d="M88.23,57.85l0,.06s0,0,0,0A0,0,0,0,0,88.23,57.85Z" transform="translate(-1.42 -1.42)"/><path class="c" d="M84.6,57.31h0s.08,0,.08,0l0-.06Z" transform="translate(-1.42 -1.42)"/><path class="c" d="M80.64,63.32h0a.07.07,0,0,0,0-.06s0,0,0,0,0,.06,0,.07Z" transform="translate(-1.42 -1.42)"/><path class="c" d="M83.9,57.23s0,0,0,0,0,0,0,0h0s0-.05,0-.05Z" transform="translate(-1.42 -1.42)"/><path class="c" d="M83.61,57.08l0,0a.08.08,0,0,0,.09-.06,0,0,0,0,0,0,0S83.65,57.08,83.61,57.08Z" transform="translate(-1.42 -1.42)"/><path class="c" d="M88,57.9s0,0,0,0l-.06,0,0,0Z" transform="translate(-1.42 -1.42)"/><path class="c" d="M84.24,57.32s0,0,0,0,0,0,0,0a0,0,0,0,0,0,0S84.24,57.3,84.24,57.32Z" transform="translate(-1.42 -1.42)"/><path class="c" d="M86.59,58.56v0h0s0,0,0,0,0,0,0,0A0,0,0,0,0,86.59,58.56Z" transform="translate(-1.42 -1.42)"/><path class="c" d="M87.85,55.53s0,0,0,0a0,0,0,0,0,0,0s0,0,0,0Z" transform="translate(-1.42 -1.42)"/><path class="c" d="M87.92,55.51a0,0,0,0,0,0,0h0s0,0,0,0Z" transform="translate(-1.42 -1.42)"/><path class="c" d="M88.08,55.61s0,0,0,0v0h0s.06,0,.07,0a0,0,0,0,0,0,0Z" transform="translate(-1.42 -1.42)"/><path class="c" d="M86.72,55.58l0,0,0,0,0,0h0s0,0,0-.06Z" transform="translate(-1.42 -1.42)"/><path class="c" d="M46.77,1.42A45.36,45.36,0,1,0,92.13,46.77,45.35,45.35,0,0,0,46.77,1.42ZM88.92,38.2a.64.64,0,0,1-.47.4h-.16l0,0-.06.05a.51.51,0,0,0-.18,0l-.18,0a.34.34,0,0,1-.2,0,2.13,2.13,0,0,0-.25,0l-.76.22a.82.82,0,0,1-.38,0,.25.25,0,0,1-.09,0,1.15,1.15,0,0,1-.37,0s0,.07-.07.08h0s0,.06,0,.07H85.5s0,0,0,0l-.33.07-.12,0-.26,0a.51.51,0,0,1-.24.1l-.42.07-.13,0-.32,0a.6.6,0,0,0-.16.08s0,0-.06,0a.34.34,0,0,1-.18.07l-.23,0a.77.77,0,0,0-.19.08c-.33,0-.55.11-.83,0a.43.43,0,0,1-.1-.23,1.09,1.09,0,0,1,0-.51.7.7,0,0,1,.43-.26l.72-.09.15-.05a.11.11,0,0,0,.06,0l.06,0,.32-.07c.22,0,.45-.07.67-.08a4.13,4.13,0,0,1,.5-.15c.51-.11,1.07-.14,1.52-.24l2-.43C88.63,37.6,88.81,37.91,88.92,38.2ZM87.92,49a.43.43,0,0,1-.08.24.22.22,0,0,1,.1.17.21.21,0,0,1-.21.18h0c0,.22-.25,0-.31.32a.12.12,0,0,1-.12.08c-.08,0-.2-.06-.29-.06s-.17.08-.26.08,0-.08-.26-.1-.49-.13-.54-.25c-.2-.07-.23-.25-.36-.41a.82.82,0,0,0,0-.21.7.7,0,0,0-.09-.43c.15-.35,0-.8.41-.93.12-.24.43-.29.71-.32a.09.09,0,0,0,.09.06c.06,0,.13,0,.18,0s0,0,.07.08l.1,0h.28a.37.37,0,0,1,.3.15c0,.17.21.21.2.33a.25.25,0,0,1,0,.07.16.16,0,0,1,.14.19,1.62,1.62,0,0,1,0,.2h0a.34.34,0,0,0,0,.1C87.87,48.65,87.92,48.83,87.92,49ZM83.2,30.3l.17-.06.22-.07.19-.07a.78.78,0,0,1,.31-.06c1.16-.41,1.4-.54,1.54-.59h0s.08,0,.12,0,0,0,0,0a.76.76,0,0,1,.42.48.85.85,0,0,1,0,.17s0,0,0,0,.11.06.13.12h0a.44.44,0,0,0,0,.2l.16.33a.41.41,0,0,1,0,.22c.05,0,.08,0,.09,0s0,.1,0,.13a.08.08,0,0,0,0,.06s.07,0,.08.1v0c.06.21.11.44.18.64a1.76,1.76,0,0,0,.24.45A.65.65,0,0,1,87,33a.91.91,0,0,1-.61,0,1.65,1.65,0,0,1-.37-.69l0-.06a3.68,3.68,0,0,0-.15-.35c-.08-.27-.16-.62-.24-.9a.26.26,0,0,1,0-.09l0-.15c0-.1-.08-.17-.21-.15l-.17,0-1,.35a5.38,5.38,0,0,0-.51.2.34.34,0,0,0,0,.28,1,1,0,0,0,.17.29,1.89,1.89,0,0,1,.09.21c.09.28.14.54.24.87l.09,0c0,.09.09.32.06.48a.33.33,0,0,1-.26.26l-.18.06-.23.05c-.2-.14-.16-.36-.33-.47a1.85,1.85,0,0,0-.11-.42l-.22-.66a2.75,2.75,0,0,1-.14-.49c0-.09-.13-.12-.23-.16-.55.14-1,.3-1.61.5-.12.05-.14.16-.18.27a6.66,6.66,0,0,1,.37.91c.16.45.29.91.43,1.37a.38.38,0,0,1-.26.32l-.11,0c-.17,0-.39.14-.52,0v0c0-.06-.1-.1-.11-.15a.06.06,0,0,1,0-.06.15.15,0,0,1-.08-.1l0-.27v0a.44.44,0,0,0,0-.15l-.34-.78a1,1,0,0,1-.06-.23L80,33c-.07-.2-.06-.43-.14-.66a1.17,1.17,0,0,1,0-.11c-.13-.11-.13-.33-.25-.44h0c.13,0,.08-.26.18-.29a.08.08,0,0,1,.07,0c.09,0,.14-.15.21-.18s.06,0,.08,0h.09c.07,0,.12-.08.17-.1h0s.12,0,.18,0l.28-.12a1.29,1.29,0,0,1,.24,0l.46-.17a1.65,1.65,0,0,0,.48-.23l.4,0a.26.26,0,0,1,.12-.09l.18,0,.08,0A1.84,1.84,0,0,0,83.2,30.3Zm-36.43,50A33.52,33.52,0,1,1,80.29,46.77,33.51,33.51,0,0,1,46.77,80.29ZM79.33,63a.06.06,0,0,1,0,.06s0,0,0,0h0s0,0,0-.06,0,0-.07,0h0s.07,0,.1,0Zm-60,14.5s0,0,0,0a0,0,0,0,1,0,0h0s0,0,0-.06,0,0,0,0ZM45.76,10.29s0,0,0,0h0s0,0,0,0,0,0,0,0A0,0,0,0,1,45.76,10.29Zm34,16,0,0h0s0,0,0,0h-.06Zm.17-.2s0,0,0,0a0,0,0,0,1,0,0,.06.06,0,0,1,0,0h0S79.93,26.06,79.93,26ZM80,26s0,0,0-.06,0,0,0,0a0,0,0,0,1,0,.06h0s0,0,0,0Zm.17-.11s0,0,0,0a.17.17,0,0,1,.1,0h0s0,0,0,0a0,0,0,0,1,0,0A0,0,0,0,1,80.18,25.87Zm.2.06a.06.06,0,0,1,0-.05s0,0,0,0,0,0,0,0S80.38,25.94,80.38,25.93Zm2.24-2.32s0,0,0,0,0-.05,0-.06h0a.11.11,0,0,1,0,.1h0l0,0s0,0,0,0ZM79.52,23c.25-.15.5-.31.77-.45a.12.12,0,0,1,0-.08l.25-.09c.3-.21.66-.41,1-.62l.09,0,.09.16.11.16.38.63a3.38,3.38,0,0,1,.38.79s0,.07,0,.08A2.08,2.08,0,0,1,82.43,25a2,2,0,0,1-.61.59,1.86,1.86,0,0,1-1.36.25.58.58,0,0,0-.43,0,.2.2,0,0,0-.07.06l-.85.89c-.43.43-.85.85-1.29,1.33a.6.6,0,0,1-.14.13s-.09,0-.15,0a2.77,2.77,0,0,0-.21-.29c-.08-.08-.21-.24-.21-.24a.69.69,0,0,1,.2-.28l0,0c0-.11.25-.15.3-.34a13.83,13.83,0,0,0,1-1c.23-.23.46-.47.7-.69,0,0,0-.06,0-.09l-.1-.08-.3-.53a1.2,1.2,0,0,0-.17-.21.36.36,0,0,0-.19.07l-.25.17a.31.31,0,0,1-.1.05l-.2.12c-.48.3-.89.61-1.33.89l-.49.31a.6.6,0,0,1-.21-.18h0a.79.79,0,0,0-.08-.16l-.2-.31a2,2,0,0,1,.43-.33l.42-.23.22-.16.05,0,.32-.19c.13-.08.26-.18.38-.27Zm-2,4.11s0,0,0,0h0s0,0,0,0Zm-5.76-8.61c.1-.12.23-.24.34-.35a1.61,1.61,0,0,0,.34-.41l.35-.2a.21.21,0,0,1,.07-.13l.14-.11.06-.07a1.34,1.34,0,0,0,.34-.28l.13-.11a.87.87,0,0,1,.17-.16l.14-.15a.86.86,0,0,1,.26-.18c.88-.86,1-1.08,1.15-1.18h0s.09,0,.12,0,0,0,0,0a.78.78,0,0,1,.59.26,1.71,1.71,0,0,1,.11.14s0,.05,0,.06.12,0,.17.05h0a.44.44,0,0,0,.1.16l.29.24a.5.5,0,0,1,.11.19.07.07,0,0,1,.1,0,1.09,1.09,0,0,0,.06.11s0,0,0,.06.08,0,.11.06l0,0c.15.16.29.35.44.51a1.9,1.9,0,0,0,.39.31.63.63,0,0,1,0,.52.93.93,0,0,1-.55.27,1.74,1.74,0,0,1-.63-.48l0,0a2.33,2.33,0,0,0-.28-.26c-.19-.21-.41-.5-.59-.72a.24.24,0,0,1-.09-.06l-.1-.12a.18.18,0,0,0-.26,0l-.13.1-.77.73c-.12.13-.25.25-.37.39a.36.36,0,0,0,.11.26.87.87,0,0,0,.28.19l.17.16c.2.21.36.43.58.68h.1c0,.1.22.25.25.42a.31.31,0,0,1-.13.34l-.13.13-.19.14c-.24-.05-.3-.25-.5-.28a1.84,1.84,0,0,0-.27-.34l-.48-.51a3.09,3.09,0,0,1-.33-.39.42.42,0,0,0-.28,0c-.44.37-.81.72-1.24,1.13-.1.09-.07.21-.06.32a7.61,7.61,0,0,1,.72.67c.33.35.64.71,1,1.07a.38.38,0,0,1-.1.4l-.09.07c-.15.07-.29.28-.48.18l0,0c0-.05-.14-.05-.17-.09s0,0,0-.06a.15.15,0,0,1-.12-.05l-.13-.24,0,0-.11-.12L71.78,21a1.1,1.1,0,0,1-.14-.18l-.07-.06c-.15-.15-.24-.37-.41-.54l-.09-.08c-.16-.05-.26-.25-.41-.29l0,0c.1-.09,0-.27,0-.34s0,0,.07,0,.06-.2.11-.26l.07,0,.08-.05a.76.76,0,0,0,.11-.16h0s.12,0,.16-.08l.21-.22A.87.87,0,0,1,71.74,18.53Zm-1-5.83s0,0,0,0,0,0,.06,0,0,0,0,0S70.7,12.71,70.69,12.7Zm-5,3.24a.09.09,0,0,1,0-.06l.08-.11a.16.16,0,0,0,0-.19h0s.06,0,.09,0a.17.17,0,0,1,0-.14c0-.06.15-.08.2-.15s0-.13,0-.16h0c.08,0,.11,0,.14,0s.06-.14.09-.18l0,0a.28.28,0,0,1,0-.1c0-.05.12-.07.16-.13a.12.12,0,0,0,0-.11.33.33,0,0,0,.16-.15l.13-.19s0-.05,0-.08v0s.06,0,.09,0l.07-.09a.06.06,0,0,0,0-.09.17.17,0,0,0,.14,0l.07-.22a.14.14,0,0,1,.13,0,.7.7,0,0,1,.11-.23l.09-.13a.71.71,0,0,0,.08-.15h0l0-.08,0-.05.21-.3a.08.08,0,0,1,0-.1l.16-.11a.16.16,0,0,0,0-.1v0s.06,0,.1,0l.21-.35a.31.31,0,0,1,.14-.12l0-.1.19-.19a.28.28,0,0,0,0-.12.34.34,0,0,1-.14,0l-.24-.19L68.37,11,68.28,11a.42.42,0,0,1-.23-.45h0s0-.12,0-.19.14-.07.18-.13a.11.11,0,0,0,0-.06c.14-.07.18-.14.3-.19a1.94,1.94,0,0,1,.72.32,1.31,1.31,0,0,1,.38.36l.11.05c.09.06.13.16.2.24l.79.47h0s0,0,0,0,.1,0,.13.05a.07.07,0,0,1,0,.07.17.17,0,0,1,.1,0c.06,0,.07.1.15.15l.05,0,.07,0a.13.13,0,0,1,.07.15l-.07,0c.09.1,0,.17,0,.26s0,0-.05,0l0,0h0v0s.06.07,0,.1h0c-.07.09-.16,0-.22,0l.07,0v.07a.29.29,0,0,1,0,.1s-.17.19-.22.16,0-.07-.07-.13h0c-.05.08-.2,0-.24,0h0s0,0,0,0a.13.13,0,0,0-.11,0l0,0c-.11-.07-.22-.23-.35-.33s-.37-.09-.56.18l-.36.66c0,.06-.1.1-.13.14v0h0a0,0,0,0,1,0,0,.84.84,0,0,1-.1.23l-.88,1.27c-.43.62-.88,1.24-1.36,1.88a1,1,0,0,1-.66.13l0,0c-.07,0-.11-.11-.15-.14a.16.16,0,0,0-.1,0l-.11-.17v0l0-.3A.13.13,0,0,1,65.7,15.94Zm-7.22-4.37c0-.08,0-.18,0-.27l.12-.23a.27.27,0,0,0,0-.13.49.49,0,0,1,.46-.13l.15.08.14,0c.12.06.16.18.26.26.16.32,0,.57,0,.87a1.25,1.25,0,0,0,.51.55c.08,0,.19,0,.27,0l.45-.1c.07-.15.28-.2.34-.35a2.31,2.31,0,0,0,0-.91,4.06,4.06,0,0,0-.64-1.17h0c-.16-.52-.49-1.05-.6-1.55a1.07,1.07,0,0,0,0-.56A.64.64,0,0,0,60,7.84c.08-.17.09-.38.16-.54a.44.44,0,0,1,.17-.21l.09-.21h0s.08,0,.11,0l0-.14c.06,0,.17.06.2,0a.16.16,0,0,0,0-.07c.05,0,.06,0,.07,0l0-.06h0c.12,0,.3-.07.44-.13a.1.1,0,0,0,0,.06c.06,0,.17,0,.25,0l.21-.06v.08a.17.17,0,0,1,.12,0c.07,0,.12.12.21.16a.32.32,0,0,0,.14,0l.09,0a.57.57,0,0,0,.27,0,4.87,4.87,0,0,1,.53.39h.07a3.82,3.82,0,0,1,.31.6h0c0,.12.09.22,0,.32a.05.05,0,0,1,0,0c0,.1.08.15,0,.22a.05.05,0,0,1,0,0c.12.18,0,.25,0,.43a.23.23,0,0,1,.08.19c-.15.09-.14.3-.32.4s-.11,0-.14.09v0c-.09.06-.2-.1-.25,0h0a.1.1,0,0,0,0-.07s-.12,0-.18,0-.06-.09-.11-.11a.53.53,0,0,1-.11-.48v-.8A1.59,1.59,0,0,0,62,7.59c-.61-.26-.74.2-1,.37-.17.77.52,1.48.82,2.1l0,0h0s0,.18.1.25h0c.14.06.09.32.24.4s0,.42.2.58a.76.76,0,0,0,.09.44.35.35,0,0,0-.08.13c-.07.16,0,.34-.1.52v0s.06.06,0,.1h0s-.07,0-.07,0a.23.23,0,0,1,0,.09s-.09,0-.12.05a.09.09,0,0,1,0,.08c-.15.2-.35.32-.44.5-.17,0-.15.25-.33.21a.15.15,0,0,1,0,.07c0,.08-.19,0-.24.08A.1.1,0,0,0,61,13.6c-.09,0-.26.05-.36.07a3.71,3.71,0,0,1-1-.24A2.55,2.55,0,0,1,59,13c0-.12-.14-.09-.15-.19l-.08,0C58.82,12.53,58.25,12.12,58.48,11.57ZM54.4,3.31a.15.15,0,0,1,.13-.1s.06,0,.12,0a.33.33,0,0,1,.14,0,.31.31,0,0,1,.13.06c.06,0,.1,0,.09.11v0l0,0c0,.11.08.12.06.23v0a.76.76,0,0,1,0,.16s0,0,0,0-.14.12-.23.19a.25.25,0,0,1-.21,0,.19.19,0,0,1-.11,0l-.08-.07a.39.39,0,0,1-.13-.25,1.05,1.05,0,0,0-.05-.19s0,0,0,0Zm-.14.25h0s0,0,0,.05h0s0,0,0,0Zm-1.5-.39a1,1,0,0,1,.16-.27c.07-.08.15,0,.22-.08h0s0,.05.06.06h.1l0,0s0,0,0,.06h0s0,0,0,.06.09.05.08.1,0,0,0,.13,0,.1,0,.14v0c-.11.24-.16.17-.28.28a.11.11,0,0,1-.09,0l0,0-.07,0a.34.34,0,0,1-.24-.13.44.44,0,0,1-.08-.25v0h0v0s0,0,0,0S52.75,3.2,52.76,3.17ZM50.82,9.41l0,0,.26-1.24,0-.27,0-.14.09-.39.2-1a7.42,7.42,0,0,1,.35-1.27c.21-.35.37-.36.64-.52a3.27,3.27,0,0,1,.63-.21,7.41,7.41,0,0,1,.79,0,.5.5,0,0,1,.2.08l.62.4a1.9,1.9,0,0,1,.47,1.68c0,.1,0,.2-.08.3a.76.76,0,0,0,0,.11L55,7.49a.71.71,0,0,1-.07.22l-.15.81,0,.09,0,.28a.51.51,0,0,1-.07.17,1,1,0,0,1,0,.25l-.15.51,0,.16c-.07.37-.33.56-.48.87a1.83,1.83,0,0,1-1.61.55l-.18-.05a1.86,1.86,0,0,1-1.12-.94c0-.11-.15-.18-.15-.31A1.36,1.36,0,0,1,50.82,9.41ZM45.31,4h0s.07,0,.07.08a0,0,0,0,1,0,0l0,0h0s0,0,0,0,0,0,0-.06Zm-2,.07h.19l.19,0h.74a3.65,3.65,0,0,1,.87.07s.06,0,.07,0a2.13,2.13,0,0,1,1.1.81,2,2,0,0,1,.2.82,1.82,1.82,0,0,1-.47,1.3.53.53,0,0,0-.21.37.28.28,0,0,0,0,.09c.13.41.24.81.34,1.19.16.59.31,1.16.5,1.79a.78.78,0,0,1,.05.18s0,.1-.11.11a3.29,3.29,0,0,0-.36,0l-.31.06a.87.87,0,0,1-.15-.31v0c-.09-.06,0-.29-.14-.43-.08-.48-.2-.94-.32-1.4-.08-.31-.17-.63-.25-.95,0,0,0-.05-.07-.05a.41.41,0,0,0-.12,0h-.61l-.27,0a.49.49,0,0,0,0,.2l0,.3a.41.41,0,0,1,0,.11v.24c0,.56.07,1.07.1,1.6,0,.18,0,.58,0,.58A.77.77,0,0,1,44,11h-.2l-.37,0a2,2,0,0,1-.06-.54c0-.16,0-.32,0-.48a1.24,1.24,0,0,0,0-.27V9.25a3.59,3.59,0,0,0-.05-.46l0-2.29a8.81,8.81,0,0,1,0-.89.16.16,0,0,1-.06-.08l0-.26c0-.36,0-.77,0-1.13Zm2.89,3.1s0,0,.05,0,0,0,0,0,0,.06,0,0A.05.05,0,0,1,46.16,7.18Zm0,.68s0,0,0,0h0s0,0,0,0a0,0,0,0,1,0,0Zm-.11-.3h0s0,0,0-.06,0,0,0,0a0,0,0,0,1,.05,0h0A0,0,0,0,1,46.06,7.56Zm0,.05v0s0,0,0,0a0,0,0,0,1,0,0s0,0,0,0Zm0-.27a.06.06,0,0,1-.05,0s0,0,0,0,0-.08.06-.08h0a0,0,0,0,1,0,0A.08.08,0,0,1,46.09,7.34ZM34.47,5.91A.73.73,0,0,1,35,5.55l.18,0s0,0,0,0,.07-.11.13-.12h.21l.35-.12a.41.41,0,0,1,.22,0c0-.05,0-.08,0-.08h.13l.06,0s.06-.06.11-.07h0c.21,0,.45-.06.66-.11a1.47,1.47,0,0,0,.47-.17.68.68,0,0,1,.47.24,1,1,0,0,1-.06.61,1.67,1.67,0,0,1-.74.28l-.06,0a1.7,1.7,0,0,0-.37.1c-.27,0-.63.09-.92.13l-.09,0-.16,0c-.1,0-.17.06-.17.2v.16l.23,1c0,.18.08.35.13.52a.35.35,0,0,0,.28.05,1.09,1.09,0,0,0,.31-.14.9.9,0,0,1,.22-.06c.29-.06.56-.08.89-.14l0-.09c.09,0,.33,0,.49,0a.31.31,0,0,1,.22.29l0,.18,0,.23c-.16.18-.37.13-.5.28a2,2,0,0,0-.43,0l-.68.15a4.46,4.46,0,0,1-.51.07c-.09,0-.14.12-.19.21.09.57.18,1.07.31,1.66,0,.12.14.16.25.21a7.7,7.7,0,0,1,.94-.26c.47-.1.94-.17,1.42-.26a.38.38,0,0,1,.28.3.41.41,0,0,1,0,.11c0,.17.09.4-.09.51h0c-.07,0-.11.08-.16.09s0,0-.07,0a.2.2,0,0,1-.1.07h-.3l-.16,0-.82.25a.91.91,0,0,1-.23,0l-.08,0c-.21,0-.44,0-.67.06l-.12,0c-.13.11-.35.09-.47.19v0c0-.13-.25-.11-.27-.21a.08.08,0,0,1,0-.07c0-.09-.14-.16-.15-.24a.09.09,0,0,1,0-.07.27.27,0,0,0,0-.09.75.75,0,0,0-.08-.18h0s0-.12,0-.18-.06-.2-.08-.3a1.12,1.12,0,0,1,0-.24c0-.15-.08-.32-.11-.48a1.84,1.84,0,0,0-.17-.5v-.4a.2.2,0,0,1-.08-.13l0-.18a.16.16,0,0,0,0-.09,1.49,1.49,0,0,0,0-.43l0-.17c0-.08,0-.15,0-.22L34.87,8a1.06,1.06,0,0,1,0-.31c-.27-1.2-.37-1.46-.4-1.6v0s.06-.08.05-.11S34.49,5.91,34.47,5.91ZM26.46,9,26.63,9s0,0,.05,0,.05-.12.11-.15h0a.58.58,0,0,0,.19,0l.32-.19a.36.36,0,0,1,.21,0,.09.09,0,0,1,0-.1s.11,0,.13,0h.06s.05-.06.1-.09h0c.21-.08.43-.15.63-.24a1.68,1.68,0,0,0,.42-.27.64.64,0,0,1,.51.14,1,1,0,0,1,.07.6,1.7,1.7,0,0,1-.66.44l-.06,0-.33.18c-.26.11-.6.22-.88.33l-.08.06-.15.05a.2.2,0,0,0-.13.23l.06.16.44,1a4.44,4.44,0,0,0,.24.49.39.39,0,0,0,.28,0,.9.9,0,0,0,.27-.2l.21-.11c.27-.12.52-.2.83-.33l0-.09c.1,0,.31-.12.47-.1a.32.32,0,0,1,.28.23l.08.18.07.22c-.12.21-.33.2-.43.37a2.48,2.48,0,0,0-.41.15l-.63.29a4.68,4.68,0,0,1-.48.18c-.08,0-.11.14-.14.25.2.53.4,1,.65,1.55a.36.36,0,0,0,.29.15,7.84,7.84,0,0,1,.86-.45c.44-.2.89-.38,1.33-.56a.36.36,0,0,1,.34.23.42.42,0,0,1,0,.1c0,.17.17.38,0,.52l0,0c-.06,0-.09.1-.14.13h-.06a.22.22,0,0,1-.09.1l-.27,0,0,0-.15.05-.74.42a.58.58,0,0,1-.22.08l-.07,0c-.2.09-.43.11-.65.2l-.1.06c-.1.14-.32.16-.42.29v0c-.06-.13-.27-.06-.31-.16s0,0,0-.07-.17-.12-.2-.19a.11.11,0,0,1,0-.08s0-.06,0-.09-.09-.1-.12-.15h0s0-.13,0-.18-.11-.19-.15-.28A.75.75,0,0,1,28,14a3.55,3.55,0,0,1-.21-.44,2.09,2.09,0,0,0-.28-.46l-.07-.39a.2.2,0,0,1-.11-.11l-.05-.17,0-.08a1.66,1.66,0,0,0-.15-.41L27,11.82a1.31,1.31,0,0,1-.08-.21l-.1-.19a.88.88,0,0,1-.09-.3C26.25,10,26.1,9.78,26,9.64v0s0-.08,0-.12l0,0A.79.79,0,0,1,26.46,9ZM19,14.16c.06-.05.1-.13.17-.18l0,0c.3-.2.58-.4.85-.6l.19-.17.95-.72.26-.23a.18.18,0,0,1,.23,0,.59.59,0,0,0,.1.17l.26.31,0,0a.53.53,0,0,1-.19.23l-.35.26-.11.09-.14.1-.39.32a1.61,1.61,0,0,1-.33.2l-.08.08-.25.15a.23.23,0,0,0-.1.26,1.27,1.27,0,0,1,.22.25l.11.14a2.32,2.32,0,0,0,.21.25.47.47,0,0,0,.07.12l.19.22a.41.41,0,0,1,.08.19l.05.05.12.2a.25.25,0,0,0,.2.09c.54-.45,1.11-.87,1.63-1.32.21.07.33.33.53.45a.25.25,0,0,0,0,.11l0,0a.1.1,0,0,1,0,.14l-1.67,1.27a.14.14,0,0,0,0,.19l.15.16a.2.2,0,0,1,0,.08l0,.05c.3.4.63.75.92,1.12a1.17,1.17,0,0,1,.21.23l.09.13a1,1,0,0,0,.29.28.21.21,0,0,1,0,.26s-.07,0-.08,0a.06.06,0,0,0,0,.06h0l-.11.05c-.11.08-.13.25-.23.32a.21.21,0,0,1-.18,0c-.08,0-.18,0-.25-.07l0-.07L22.42,19a.93.93,0,0,0-.13-.15.29.29,0,0,0,0-.08l-.1-.12a.21.21,0,0,1,0-.13l-.08,0c0-.06-.05-.14-.1-.21s-.05-.05-.09-.05a.3.3,0,0,0-.06-.14c-.08-.1-.22-.17-.3-.26a.2.2,0,0,1,0-.13v0l-.16-.16-.59-.78c-.25-.33-.49-.65-.76-1a4.8,4.8,0,0,0-.36-.52c-.22-.3-.46-.58-.71-.86,0-.05-.05-.07,0-.12A.16.16,0,0,0,19,14.16Zm-5.82,6c0-.06.08-.14.14-.21l0,0c.25-.25.49-.5.71-.75.06-.06.1-.13.16-.2L15,18.1l.21-.28a.17.17,0,0,1,.22-.05.62.62,0,0,0,.14.14l.31.26,0,0a.51.51,0,0,1-.14.26l-.3.33-.08.11-.12.12-.33.39a1.37,1.37,0,0,1-.28.26.53.53,0,0,1-.06.1l-.22.19a.24.24,0,0,0,0,.27,1.94,1.94,0,0,1,.27.21l.13.11a1.33,1.33,0,0,0,.26.21.31.31,0,0,0,.09.11l.23.17a.39.39,0,0,1,.11.17.13.13,0,0,1,.06,0l.16.17a.23.23,0,0,0,.21.06c.44-.55.92-1.08,1.35-1.62.21,0,.38.27.6.34a.18.18,0,0,0,.07.1l0,0a.12.12,0,0,1,0,.14L16.51,22a.15.15,0,0,0,0,.19l.17.12a.24.24,0,0,1,.06.08l.06,0c.37.34.77.61,1.12.93a1.05,1.05,0,0,1,.25.18l.12.11a.83.83,0,0,0,.34.22.24.24,0,0,1,.08.25l-.07,0s0,0,0,.07h0a.26.26,0,0,0-.1.07c-.1.1-.09.27-.17.36a.18.18,0,0,1-.17.06c-.07.06-.18,0-.26,0l-.06-.06-.43-.45a1,1,0,0,0-.17-.12s0-.06-.05-.08L17.13,24a.36.36,0,0,1-.08-.12.11.11,0,0,1-.07,0c-.06-.05-.09-.13-.15-.19a.18.18,0,0,0-.1,0,.32.32,0,0,0-.08-.12c-.1-.08-.25-.12-.34-.2a.16.16,0,0,1-.07-.11.09.09,0,0,0,0-.05L16,23l-.73-.65c-.3-.27-.61-.55-.93-.79q-.22-.24-.45-.45c-.28-.25-.57-.48-.86-.7,0-.05-.07-.06-.05-.11A.21.21,0,0,0,13.13,20.19ZM8.88,26.38h0l0,0a0,0,0,0,0,0,0s-.09-.09-.08-.1v0l.06,0a.17.17,0,0,0,0-.12.11.11,0,0,0,.06,0,.7.7,0,0,0,0-.12l.07,0a.42.42,0,0,1,0-.06l.09-.12s0,0,0,0c.47-.2.94.2,1.39.31a24.45,24.45,0,0,1,2.38.77c.94.32,1.9.62,2.84.95l.06,0c.2.12.07.4,0,.56-.34.56-.6.1-.89.13s-.52-.3-.64-.1l-.38.75a1.93,1.93,0,0,1-.28.36c0,.45.67.51.75.95h0s0,.12.08.16a.25.25,0,0,1,0,.17l-.13.19a.2.2,0,0,0,0,.15.21.21,0,0,0-.06.08.11.11,0,0,0,0,.09.21.21,0,0,0-.19.05L14,31.23l0,0c-.26-.15-.38-.44-.63-.59l-.22-.24-.07,0c-.06-.1-.17-.16-.25-.25h0l-.22-.2h0a5.5,5.5,0,0,0-.47-.49.16.16,0,0,0-.08-.1.15.15,0,0,0-.07,0,1.47,1.47,0,0,0-.21-.22.2.2,0,0,0-.13,0c-.06-.09-.07-.18-.16-.24l-.06,0a6.69,6.69,0,0,1-.6-.57l-.07,0L10.55,28c-.38-.28-.69-.63-1.05-.91l-.06,0c-.07,0-.08-.12-.14-.16H9.22c-.07,0-.1-.12-.16-.15a.11.11,0,0,0-.08,0s0,0,0,0,0,0,0,0v-.1c-.05-.05,0-.1-.1-.15h0A0,0,0,0,1,8.88,26.38Zm-3.61,9v0A.54.54,0,0,1,5.61,35l0-.12a.65.65,0,0,1,.39,0c.28.1.54.34.85.45l.16,0s0,0,0,0h.15a4,4,0,0,1,.79.41l.22,0,.42.18S8.7,36,8.71,36s0,0,0-.06c-.89-.78-1.78-1.6-2.62-2.46a1.25,1.25,0,0,1,0-.57.65.65,0,0,1,.56-.49c.12.23.41.31.54.53l.12,0s0,0,0,.06.15.21.2.33h0s0,.09.08.11v0c0,.08.1.08.12.14h0c.1,0,.09.15.16.21a7,7,0,0,1,.56.52.13.13,0,0,1,.12,0,.29.29,0,0,1,.15.12h0c.06,0,.15-.08.2-.06s0,0,0,0h0s.06-.05.09-.07a.13.13,0,0,0,.08.07c.08,0,.19-.09.29-.06s0,0,.06,0,.38.08.51-.08l.07,0,.13.05a.15.15,0,0,0,.16,0s0,0,0,0,.12,0,.17,0a.13.13,0,0,1,0,.07l.07,0c.56-.14,1,.13,1.48-.08a.07.07,0,0,0,0,0l.29-.06a.13.13,0,0,1,.06.05,1.22,1.22,0,0,1,.27.41l0,.1-.09.33a.64.64,0,0,1-.19.28,17.47,17.47,0,0,1-1.78,0c-.12.1-.21-.07-.43,0s-.41-.07-.63,0v0c-.08.22.24.21.27.4l.11,0a.74.74,0,0,1,.41.44h0c.06,0,.11.08.18.11a.12.12,0,0,0,.1,0,.29.29,0,0,0,.12.07.53.53,0,0,0,.33,0s0,.05,0,.08.32,0,.47.1a.34.34,0,0,1,.24.21h0c.1,0,0,.21.09.31a.89.89,0,0,0-.05.13,1.9,1.9,0,0,0-.08.37c-.15,0-.08.13-.23.11V38a.83.83,0,0,1-.44-.06l-.09,0a.23.23,0,0,1-.18,0L11,37.85c-.35-.07-.64-.21-1-.27,0,0,0,0,0,0s-.1-.1-.15-.14-.11.05-.2,0l-.17-.1a.14.14,0,0,0-.12,0,.2.2,0,0,0-.12-.09l-.07,0-.07,0L9,37.22h-.1l-.11-.06a.25.25,0,0,1-.15,0l-.2-.09a.33.33,0,0,0-.14,0c-.09,0-.18-.07-.27-.11a1.67,1.67,0,0,0-.3-.08l-1.6-.54-.39-.09-.1,0H5.53a.09.09,0,0,1-.06-.06l0,0H5.43l0,0c0-.06-.08-.11-.11-.16H5.25s0,0,0,0,0-.06,0-.07-.06-.15-.06-.24ZM7.73,49.6c-.09.25-.39.34-.66.41A.12.12,0,0,0,7,50c-.06,0-.12.06-.17.07s-.06,0-.09-.08h-.1l-.27,0A.35.35,0,0,1,6,49.87c0-.17-.24-.18-.25-.3a.25.25,0,0,1,0-.07.16.16,0,0,1-.17-.17v-.2h0a.34.34,0,0,0,0-.1c0-.16-.09-.32-.1-.48a.33.33,0,0,1,0-.25c-.09,0-.12-.09-.13-.15a.22.22,0,0,1,.19-.21h0c0-.22.24-.06.27-.36a.09.09,0,0,1,.1-.09c.08,0,.21,0,.31,0s.15-.1.24-.11,0,.07.27.06.5.07.57.19.26.22.4.35a1.61,1.61,0,0,0,0,.22.7.7,0,0,0,.14.41C7.92,49,8.16,49.42,7.73,49.6ZM7.2,59h0l-.35.08-.06,0c-.15-.1-.34,0-.51-.08a1.78,1.78,0,0,1-1.08-.66v-.06c0-.05-.05-.12-.11-.14A.22.22,0,0,0,5,58l0-.14a2.7,2.7,0,0,0,0-.28l0-.08c0-.17,0-.37.09-.51l0,0a2,2,0,0,1,.25-.57v0c0-.08.08-.1.12-.17h0A.25.25,0,0,0,5.52,56h0c0-.06,0-.07,0-.08h.09a.07.07,0,0,0,.06-.07l.12,0h0s.07-.07.12-.08a.12.12,0,0,1,.07,0c0-.06,0-.08.08-.09l.16,0a.12.12,0,0,0,.08-.06.15.15,0,0,0,.11,0s.07-.05.12-.08L7,55.46a.09.09,0,0,1,.07,0l.12,0a.2.2,0,0,0,.09-.07.23.23,0,0,0,.16,0l.2-.08s0,0,.07,0,0,0,.06,0l.14,0A.12.12,0,0,0,8,55.12a.26.26,0,0,0,.15,0A.71.71,0,0,0,8.34,55s0,0,0,0,.09,0,.13,0l.1-.08s0,0,.07,0a.15.15,0,0,1,0-.07h.13a.11.11,0,0,0,.06-.06h0s.07,0,.11,0,0,0,0-.06h0c.06,0,.11,0,.15,0a.08.08,0,0,0,0-.06c.08,0,.12,0,.19,0s.1-.07.16-.09a.15.15,0,0,1,.12,0s0-.06,0-.06h.16s0,0,.06,0a.09.09,0,0,0,.11,0h.06s.28,0,.31.07l0,0c.09,0,.18.11.3.08h0c.05.15.22,0,.29.14v0h.08v0c0,.15.2.25.31.36v0a.11.11,0,0,0,.1.08v0c0,.17.21.31.26.5s.13.79-.08,1c0,.2-.21.36-.35.51a5.19,5.19,0,0,1-.85.49c-.54.16-.48-.38-.63-.57.08-.22.26-.27.44-.32h0a.71.71,0,0,0,.54-.83l0,0L11,56.08l0-.18v0c-.08-.29-.41-.21-.56-.38a.87.87,0,0,0-.36,0l-.22.08-.74.17-.32.1L8.41,56l-1.52.43a1.25,1.25,0,0,0-.25.09l-.42.12a.73.73,0,0,0-.46.9A1.19,1.19,0,0,0,6,58c.16,0,.17.2.35.16.06.12.19,0,.27.09s0,0,.07,0h.22s.06,0,.08,0,0,0,.06,0h0c.14,0,.3.15.34.28v0l0,.22A.37.37,0,0,1,7.2,59ZM10,64.36a5.92,5.92,0,0,0-1.16.52.33.33,0,0,0,0,.45c.08.17.25.34.34.5l.07.12.38.62a.63.63,0,0,1,0,.76l-.25.16a.31.31,0,0,1-.4,0,.51.51,0,0,1-.17-.21l-.25-.46c-.14-.3-.24-.64-.39-.93a2.6,2.6,0,0,0-.27-.38l0,0,0,0c0-.05,0-.13,0-.18a.09.09,0,0,0-.07,0l-.1,0,0-.07s0,0,0,0a.06.06,0,0,0,0-.06l0-.08a.05.05,0,0,1,0-.08l0,0a.13.13,0,0,1,0-.12h.05l.07-.06h0s0-.08,0-.11l0,0h0a0,0,0,0,1,0,0h.07v0s0,0,.07,0l0-.11s0,0,.06,0L8,64.24a.08.08,0,0,1,.08,0l.23-.17a.39.39,0,0,1,.32,0l.08,0c.08,0,.17,0,.24-.09a.22.22,0,0,0,.09-.1l.57-.28a2.38,2.38,0,0,1,.58-.24.4.4,0,0,1,.18-.13l.2-.09,2-1.08a2,2,0,0,1,.43-.35.57.57,0,0,1,.29-.08.17.17,0,0,1,.06-.06l.09,0c.14.11.25.33.42.37a.2.2,0,0,0,0,.15l0,0a.42.42,0,0,1-.25.43l-.42.22-.46.27a.15.15,0,0,1-.15,0l-1.91,1C10.49,64.08,10.26,64.21,10,64.36Zm7.86,5.91a1.74,1.74,0,0,0-.25-.29c-.17-.22-.37-.53-.53-.76a.27.27,0,0,1-.08-.07l-.1-.13c-.06-.08-.12-.13-.24-.07l-.15.09-.82.67c-.14.12-.28.23-.41.36a.31.31,0,0,0,.09.26.86.86,0,0,0,.26.21,1.19,1.19,0,0,1,.15.18c.19.23.32.46.53.73h.1c0,.1.19.27.21.43a.31.31,0,0,1-.15.33l-.15.12-.2.12c-.23-.06-.28-.27-.47-.32a1.88,1.88,0,0,0-.24-.36L15,71.24a2.42,2.42,0,0,1-.29-.42.42.42,0,0,0-.28-.08c-.47.33-.87.65-1.33,1-.11.08-.09.19-.09.31a7.63,7.63,0,0,1,.66.73c.3.37.58.76.87,1.14a.38.38,0,0,1-.14.39l-.09.06c-.16.06-.32.26-.5.15l0,0s-.13-.06-.16-.1a.06.06,0,0,1,0-.06.2.2,0,0,1-.12-.07l-.11-.24,0,0a.38.38,0,0,0-.09-.13l-.59-.62a1.07,1.07,0,0,1-.13-.19L12.5,73c-.14-.16-.21-.38-.36-.57a.34.34,0,0,0-.09-.08c-.15-.07-.23-.28-.38-.33l0,0c.11-.09,0-.27.07-.34a.08.08,0,0,1,.07,0c.07-.06.08-.19.14-.24a.06.06,0,0,1,.07,0l.08,0a.91.91,0,0,0,.13-.16h0s.13,0,.17-.06a2.29,2.29,0,0,1,.23-.21.8.8,0,0,1,.21-.13c.11-.11.25-.22.37-.32a1.65,1.65,0,0,0,.37-.38l.37-.17a.22.22,0,0,1,.08-.13l.15-.09s.05,0,.06-.07a1.57,1.57,0,0,0,.37-.24l.13-.11.19-.14L15.1,69a.75.75,0,0,1,.28-.15c.94-.79,1.13-1,1.24-1.08l0,0s.09,0,.12,0,0,0,0,0a.75.75,0,0,1,.56.31.78.78,0,0,1,.1.15.18.18,0,0,0,0,.06s.13,0,.17.06h0a.31.31,0,0,0,.09.17l.26.27a.39.39,0,0,1,.1.19s.08,0,.09,0,0,.1.06.12a.11.11,0,0,0,0,.06s.08,0,.11.07l0,0c.13.18.25.37.39.54a1.53,1.53,0,0,0,.37.35.67.67,0,0,1,0,.52.93.93,0,0,1-.58.22,1.73,1.73,0,0,1-.58-.53ZM25.75,77l-.36.42,0,0c-.24.27-.47.53-.69.82a.26.26,0,0,0-.07.16L23.35,80.1l-.68.8-.5.79c-.22.29-.44.41-.72.24l0,0a.46.46,0,0,1-.14-.64,2.38,2.38,0,0,1,.37-.35.51.51,0,0,1,.09-.16l.31-.35.14-.23.4-.53a3,3,0,0,1,.45-.48c.09-.25.36-.44.3-.7a1.15,1.15,0,0,0-.48.28l-.19.16c-.85.56-1.47,1.49-2.28,2.1a2.77,2.77,0,0,1-.66-.4c0-.1-.14-.19-.07-.28l0,0a.27.27,0,0,1,.08-.24l.09-.12s0-.06.05-.09l1.52-3.3v-.08l-.12.05-.24.31a.8.8,0,0,0-.14.24L19.49,79c-.13.17-.26.33-.4.48s-.39.14-.62.15a0,0,0,0,1,0,0l-.05-.09s0,0,0,0l0-.07a.11.11,0,0,1-.08,0s-.17-.25,0-.45c0,0,0-.05.06-.06a.32.32,0,0,1,.08-.32l.1-.12c.13,0,.12-.14.24-.11a2.92,2.92,0,0,0,.42-.44,3.23,3.23,0,0,0,.45-.84.2.2,0,0,1,0-.16c.06-.08.18-.12.25-.21l.08-.15.22-.23c.11-.15,0-.24.07-.3s.13,0,.2-.07-.19-.14-.1-.25v0s.05,0,.08,0l.05,0a.1.1,0,0,0,.09,0,.12.12,0,0,1,0-.15.58.58,0,0,1,.12-.1l0,0a.13.13,0,0,0,.1,0c0-.07,0-.21,0-.26s.06,0,.14,0-.12-.13-.06-.21.2.09.3,0-.11-.16-.07-.28v0c.06-.08.23-.1.27-.17s0-.07,0-.14l0,0a.08.08,0,0,1,.09,0,.16.16,0,0,1,0-.12c0-.06.16-.06.21-.12a.09.09,0,0,0,0-.09s.09,0,.14,0l0,0s0,0,0,0-.08-.12-.05-.16a.06.06,0,0,1,.07,0s0,.05.06.07l.05-.15s.09,0,.12,0,0,.08,0,.12a.08.08,0,0,1,0,0,.2.2,0,0,1,.19,0v0a.19.19,0,0,1,.19,0,1,1,0,0,1,.2.3c.2.2.43.34.38.64s-.23.42-.09.59c-.06,0-.09,0-.11,0s0,.14-.07.2v0a11.23,11.23,0,0,1-1,2.06l-.05.07c0,.3-.37.54-.29.83h0c.17.12.28-.09.43-.16.55-.34.81-.92,1.39-1.2a.36.36,0,0,1,0-.09l.34-.22a.93.93,0,0,0,0-.1,2.34,2.34,0,0,0,.7-.56c.17,0,.35-.47.84-.29a.12.12,0,0,0,0,.12l.14.06a.13.13,0,0,1,0,.09.27.27,0,0,1,.1.06A.53.53,0,0,1,25.75,77Zm7.47,4.32a1.91,1.91,0,0,1-.77-.17l-.05,0c-.12,0-.23-.09-.36-.12s-.58-.27-.84-.4a.22.22,0,0,1-.11,0L31,80.52a.17.17,0,0,0-.25.06l-.08.15-.39,1a5.08,5.08,0,0,0-.17.51.37.37,0,0,0,.2.19,1,1,0,0,0,.34,0l.21.08c.28.1.51.24.82.37l.1,0c.05.08.3.14.39.27a.32.32,0,0,1,0,.37l-.07.17L32,83.9c-.23.06-.38-.11-.57-.05a2.32,2.32,0,0,0-.38-.2l-.66-.25a3.21,3.21,0,0,1-.46-.22.36.36,0,0,0-.27.07c-.25.52-.44,1-.66,1.55a.32.32,0,0,0,.08.31,6.76,6.76,0,0,1,.93.31c.45.18.89.38,1.33.57a.39.39,0,0,1,.07.4.93.93,0,0,1-.05.1c-.11.13-.15.38-.36.37h0c-.07,0-.14,0-.19,0a.09.09,0,0,1,0-.06.15.15,0,0,1-.13,0l-.22-.16h0a.52.52,0,0,0-.15-.07l-.81-.24a.7.7,0,0,1-.21-.11l-.09,0c-.19-.07-.37-.23-.59-.32l-.12,0c-.17,0-.34-.12-.5-.1l0,0c.05-.13-.15-.22-.11-.33a.09.09,0,0,1,0,0c0-.09,0-.21,0-.28a.12.12,0,0,1,.06-.06l.05-.07a1.81,1.81,0,0,0,0-.19h0s.1-.08.12-.14l.09-.3a2,2,0,0,1,.12-.21c0-.15.11-.31.17-.46a2.12,2.12,0,0,0,.14-.52l.23-.32a.25.25,0,0,1,0-.15l.09-.16a.29.29,0,0,0,0-.09,1.6,1.6,0,0,0,.2-.39l.06-.16a1.33,1.33,0,0,1,.09-.21l.07-.2a.84.84,0,0,1,.16-.27c.44-1.15.5-1.42.55-1.56v0s.08,0,.1-.07,0,0,0,0a.79.79,0,0,1,.64,0l.16.08s0,0,0,0,.12,0,.18,0h0a.51.51,0,0,0,.16.11l.36.1a.36.36,0,0,1,.18.12s.06,0,.09,0,.08.06.11.07a.07.07,0,0,0,0,0s.08,0,.12,0h0c.2.09.41.2.61.28a1.73,1.73,0,0,0,.49.11.62.62,0,0,1,.25.47A1,1,0,0,1,33.22,81.32Zm8.43,2.43c0,.26-.09.53-.13.8a1.36,1.36,0,0,0,0,.29l-.29,2-.09.57,0,.23a.09.09,0,0,0-.05,0l.05,0,0,.2L41,88.5c0,.18,0,.36,0,.53-.05.35-.12.51-.36.48l-.13,0a.56.56,0,0,0-.13,0,0,0,0,0,1,0,0s0,0,0,0a.7.7,0,0,1-.31-.63,1.83,1.83,0,0,1-.17-.74l.05,0c-.2,0,0-.28-.14-.31-.42-.88-.39-1.84-.75-2.7a.28.28,0,0,0-.22.27l0,.42c0,.12-.09.22-.11.35v.68a.63.63,0,0,1-.07.22v0c0,.6-.2,1.28-.13,1.82a.43.43,0,0,1-.55.34c-.21,0-.3-.18-.44-.2s0,0,0,0l0,0a.14.14,0,0,0,.05-.09,1,1,0,0,0,0-.18.29.29,0,0,1,0-.1,0,0,0,0,0,0,0l-.08-.07s0,0,0-.06,0-.06,0-.08.07-.11.08-.17v-.24a.34.34,0,0,1,0-.14.14.14,0,0,1,0-.09c0-.06,0-.13.06-.2a.19.19,0,0,0,0-.14.14.14,0,0,0,.06-.11s0-.11,0-.17a.18.18,0,0,1,0-.09,2.64,2.64,0,0,0,0-.69.12.12,0,0,0,0-.09l0-.22a.16.16,0,0,1,.06-.09.49.49,0,0,1,0-.12l0-.18a.35.35,0,0,0,0-.2.28.28,0,0,0,.08-.2,1.22,1.22,0,0,1,0-.27.32.32,0,0,1,0-.09s0,0,0-.07.05-.12.06-.18l0-.56,0-.11a.25.25,0,0,0,.11-.17c0-.14,0-.41,0-.53l0-.15,0-.2c.06-.41.61-.57,1-.51a.28.28,0,0,1,.14.06l.12,0s0,.13.1.13c.2.43.09.93.26,1.34s.08.73.11,1.08l-.07,0c0,.08.1.1.14.16v.18h-.06s-.06,0-.07.05,0,.09.05.1.09-.06.09-.06l.1.16c.1.18.15,1,.34,1s.24-.26.25-.38,0-.34,0-.51l.16-1.49a.35.35,0,0,1,0-.11l.06-.4a2.44,2.44,0,0,0,0-.66c.17-.34.46-.22.77-.27,0,0,0,.06,0,.06h0l.09,0a.56.56,0,0,1,.1.44C41.78,83.38,41.69,83.58,41.65,83.75Zm9.25,4.31s-.06,0-.06,0a.22.22,0,0,1,0,.09s-.08.06-.08.1.05,0,.05.06c0,.25-.15.45-.16.65-.16,0,0,.29-.19.34a.14.14,0,0,1,0,.06c0,.09-.18.06-.17.19a.09.09,0,0,0-.07,0c-.1,0-.21.17-.29.23a3.73,3.73,0,0,1-1,.26,3,3,0,0,1-.84-.07c0-.13-.16,0-.22-.11l-.07,0c0-.25-.72-.35-.77-.94,0-.09-.11-.15-.12-.25v-.25a.5.5,0,0,0,0-.13.45.45,0,0,1,.34-.33h.17l.14,0c.13,0,.23.07.35.1.29.21.22.53.36.79a1.29,1.29,0,0,0,.71.26c.05-.09.18-.06.25-.11l.35-.3c0-.17.15-.32.14-.48a2.42,2.42,0,0,0-.42-.81,4.39,4.39,0,0,0-1.11-.73h0c-.38-.38-.92-.7-1.25-1.09a1.24,1.24,0,0,0-.28-.48c0-.05,0-.11,0-.16s-.11-.39-.12-.55a.43.43,0,0,1,.06-.27l0-.23h0s.06,0,.07-.09l0-.13c.06,0,.18,0,.18-.09a.09.09,0,0,0,0-.06s.06,0,.06,0l0-.06h0c.13,0,.24-.2.34-.32a.09.09,0,0,0,.06,0c.07,0,.13-.12.22-.13l.16-.16.05.08a.11.11,0,0,1,.1-.06,1.78,1.78,0,0,0,.26,0,.19.19,0,0,0,.13-.06.17.17,0,0,0,.1,0,.59.59,0,0,0,.27-.08,3.28,3.28,0,0,1,.65.1.1.1,0,0,1,0,0,3.67,3.67,0,0,1,.56.39l0,0h0c0,.13.19.14.19.25a0,0,0,0,1,0,.05c0,.09.14.1.14.17s0,0,0,0c.19.11.14.21.2.38a.27.27,0,0,1,.16.13c-.1.15,0,.33-.1.5s-.08.08-.08.15v0c0,.1-.23,0-.22.13h0s0,0-.07,0-.11.06-.16.08-.1,0-.15,0-.26-.21-.32-.38L49,84a1.53,1.53,0,0,0-.73-.16c-.66.06-.56.53-.74.81.2.76,1.15,1.06,1.7,1.47l0,0h0s.12.14.2.17h0c.15,0,.23.24.4.24s.23.36.45.43a.66.66,0,0,0,.29.34.3.3,0,0,0,0,.16c0,.17.14.3.16.5v0s.08,0,.09.07Zm14-1.91h0a1.21,1.21,0,0,1-.2.07.12.12,0,0,0-.06.08H64.4v0l-.27-.12a.13.13,0,0,1,0-.09.1.1,0,0,1,0,0l0-.13a.19.19,0,0,0-.17-.1h0s0-.06,0-.1a.18.18,0,0,1-.12-.07c0-.07,0-.17,0-.25s-.13,0-.14-.08h0a0,0,0,0,0,0,0h0c.06-.07,0-.11,0-.16a1.11,1.11,0,0,0-.12-.16s0,0,0,0-.08,0-.09-.06,0-.14,0-.2,0-.06-.09-.06a.35.35,0,0,0-.06-.22l-.11-.21s-.06,0-.07,0l0,0s0,0,0-.08l0-.1a.07.07,0,0,0-.1,0c0-.07,0-.11,0-.15l-.16-.17a.13.13,0,0,1,0-.14.39.39,0,0,1-.15-.21l-.08-.14L62.51,83h0s0,0,0,0l-.05-.07s0-.05,0-.07l-.17-.33a.12.12,0,0,1-.08,0l0-.2a.08.08,0,0,0-.08,0l0,0s0-.07,0-.1l-.21-.35a.43.43,0,0,1,0-.19.24.24,0,0,1-.06-.08l-.09-.25a.25.25,0,0,0-.08-.1.21.21,0,0,1-.11.1l-.28.12a.91.91,0,0,1-.16.11l-.09,0a.44.44,0,0,1-.51,0,.08.08,0,0,0,0,0s-.12,0-.16-.11,0-.16,0-.22l0,0c0-.15,0-.22,0-.35a1.82,1.82,0,0,1,.62-.48,1.56,1.56,0,0,1,.5-.17l.09-.06a1.73,1.73,0,0,1,.31-.07l.8-.47,0,0,.07,0s.07-.08.1-.09a.08.08,0,0,1,.08,0,.17.17,0,0,1,.08-.07c.06,0,.13,0,.2-.06l0,0s0,0,.07,0a.12.12,0,0,1,.17,0l-.07,0c.13,0,.16.07.22.14s0,0,0,0h0s0,0,0,0l0,0s.09,0,.1,0v0c.05.1-.08.13-.09.2l.06,0,.07,0a.16.16,0,0,1,.07.07s.09.25,0,.27-.08,0-.15,0v0c0,.08-.07.18-.11.21h0s0,0,0,0-.06.08,0,.09l0,0c-.12.06-.31.08-.46.15s-.26.28-.11.57l.41.64c0,.06,0,.14.06.18v0l0,0s0,0,0,0a.86.86,0,0,1,.15.2l.7,1.38c.34.68.66,1.36,1,2.09A1,1,0,0,1,64.9,86.15Zm-1.22-6.06c0,.06,0,.07,0,.07s0,0,0,0,0-.06,0-.07Zm9.39,1.06a.83.83,0,0,1-.15.11,1.92,1.92,0,0,1-1.44.27c-.07-.09-.23,0-.33-.08a1.28,1.28,0,0,1-.58-.38v0l-.8-1c0-.07-.12-.13-.18-.2l-.09-.11-.24-.31-.63-.78a7.12,7.12,0,0,1-.77-1.08,1.3,1.3,0,0,1,0-.83,3.67,3.67,0,0,1,.24-.61c.16-.15.32-.43.52-.59a.49.49,0,0,1,.2-.11l.69-.22a1.89,1.89,0,0,1,1.6.7,2.27,2.27,0,0,1,.18.25.86.86,0,0,0,.07.1l.37.39a1,1,0,0,1,.12.19l.53.63.05.08.2.21a.48.48,0,0,1,.09.16,1,1,0,0,1,.18.17l.3.44.1.12c.24.29.22.61.37.93A1.82,1.82,0,0,1,73.07,81.15ZM80,74.47c-1,1.31-2.18.42-3-.25l0,0L75,72.65c-.52-.41-1-.8-1.56-1.17a.51.51,0,0,1,.1-.24l.2-.22.06-.09a.15.15,0,0,1,0-.09c.12-.15.3,0,.42.06l.38.32a1.2,1.2,0,0,0,.24.15,1.42,1.42,0,0,0,.31.29l.47.38.4.37c.16.12.35.22.49.34l.15.16,1,.81a4.8,4.8,0,0,0,.52.36l.06,0a.79.79,0,0,0,1-.26.58.58,0,0,0,.14-.43h0c.16-.2-.19-.54-.48-.76l-.73-.59L78,71.79h0l-.06,0s0,0,0,0C77,71,76,70.23,75,69.51a.4.4,0,0,1,.11-.27l.38-.41h.21c.41.39.84.75,1.28,1.11s.71.54,1.07.8a3.19,3.19,0,0,0,.46.43l.31.25C80.18,72.46,80.85,73.41,80,74.47Zm-2.69-3.12s0,0,0,0l0,0s.07.1.06.12a0,0,0,0,1-.07,0v0S77.3,71.37,77.32,71.35ZM85,65.44s0,0,0,0h0s0,0,0,0,0,0,0,0S85,65.45,85,65.44Zm.93-.63a2.92,2.92,0,0,0-.13.34c0,.11-.08.3-.08.3a.83.83,0,0,1-.35,0h0c-.1,0-.27-.13-.45-.07A11.57,11.57,0,0,0,83.53,65l-1-.21s-.06,0-.07,0a.24.24,0,0,0,0,.13l-.28.54a1.06,1.06,0,0,0-.09.25.61.61,0,0,0,.16.13l.28.11.1,0,.21.11c.51.24,1,.41,1.47.64l.53.24a.68.68,0,0,1,0,.27h0a1.46,1.46,0,0,0-.09.16c0,.1-.08.19-.15.34a2,2,0,0,1-.51-.19l-.42-.23-.25-.09,0,0L83,67.12,82.57,67,80.5,66l-.79-.4a.18.18,0,0,1-.1,0l-.21-.16c-.33-.14-.69-.33-1-.46l0-.1.09-.16.07-.18.32-.67a3.8,3.8,0,0,1,.46-.74s.06,0,.07,0a2.2,2.2,0,0,1,1.23-.62,2.15,2.15,0,0,1,.82.2,1.78,1.78,0,0,1,.94,1,.61.61,0,0,0,.24.36.16.16,0,0,0,.09,0l1.21.23c.59.13,1.17.25,1.82.36l.18,0A.11.11,0,0,1,85.94,64.81Zm-3.52-1.14s0,0,0-.05h0s0,0,0,0S82.42,63.68,82.42,63.67Zm.07.1s0,0,0,0a0,0,0,0,1,0,0h0s-.06-.07-.05-.09h0Zm.13.13a0,0,0,0,1,.06,0h0s0,0,0,0h-.07A0,0,0,0,1,82.62,63.9Zm.12.06,0,0h0a0,0,0,0,1,0,.05h0S82.74,64,82.74,64ZM83,64s0,0,0,0,0,0,0,0v0s0,0,0,0A0,0,0,0,1,83,64Zm6-8a.52.52,0,0,1-.16.3,16,16,0,0,1-1.76.22c-.1.12-.21,0-.42.08s-.42,0-.63,0v0c0,.23.26.18.32.37h.11a.76.76,0,0,1,.45.38h0c.06,0,.12.07.19.08a.1.1,0,0,0,.1,0,.31.31,0,0,0,.13.06.5.5,0,0,0,.32,0s0,.05,0,.09.33,0,.49,0a.39.39,0,0,1,.25.19h0c.11,0,0,.21.13.3a.4.4,0,0,0,0,.13,1.29,1.29,0,0,0,0,.38c-.16,0-.08.14-.23.14l0,.06a1,1,0,0,1-.45,0l-.09,0a.23.23,0,0,1-.18,0l-.19,0c-.35,0-.65-.15-1-.17h0c-.06,0-.11-.08-.17-.12s-.1.06-.19,0l-.19-.08a.09.09,0,0,0-.11,0,.19.19,0,0,0-.13-.09h-.07l-.07.06-.07-.09h-.09a.33.33,0,0,1-.12,0,.26.26,0,0,1-.15,0l-.21-.07h-.14l-.28-.07a1.67,1.67,0,0,0-.31,0l-1.65-.37-.4-.05a.19.19,0,0,1-.1,0,.49.49,0,0,1-.13,0,.06.06,0,0,1-.06-.05v0h-.06a0,0,0,0,0,0,0c0-.06-.09-.1-.12-.14h-.09s0,0,0,0l0-.07c0-.06-.08-.14-.09-.23l0-.16v0a.58.58,0,0,1,.29-.4v-.12a.69.69,0,0,1,.4,0c.29.06.57.28.89.35l.16,0,0,0,.13,0,0,0a3.84,3.84,0,0,1,.83.32.6.6,0,0,1,.23,0l.43.12a.44.44,0,0,0,.06-.1s0,0,0,0c-1-.68-2-1.4-2.87-2.16a1.12,1.12,0,0,1,0-.58.64.64,0,0,1,.5-.54c.15.22.45.26.59.47h.13s0,0,0,0,.17.19.23.31h0s0,.08.09.09v0c0,.09.11.07.14.12h0c.1,0,.1.15.18.2s.43.29.62.45a.14.14,0,0,1,.11,0,.31.31,0,0,1,.16.1h0c.06,0,.15-.09.2-.08l0,0,0,0s0-.06.09-.08a.1.1,0,0,0,.08,0c.08,0,.18-.11.28-.08a.08.08,0,0,1,.07,0c.15-.13.38,0,.5-.13h.07l.13,0a.18.18,0,0,0,.16,0h0c.06,0,.12,0,.17,0s0,0,.06.06l.07,0c.53-.2,1,0,1.45-.24l.06,0,.28-.09a.17.17,0,0,1,.07,0c.14.08.21.26.31.38l0,.1Z" transform="translate(-1.42 -1.42)"/><path class="c" d="M86,55.74a.08.08,0,0,0,0,0l0,0a0,0,0,0,0,0,0S86,55.74,86,55.74Z" transform="translate(-1.42 -1.42)"/><path class="c" d="M86.92,57.52s0,0,0,0a0,0,0,0,0,0,0,.12.12,0,0,0,0,.08S86.91,57.54,86.92,57.52Z" transform="translate(-1.42 -1.42)"/><path class="c" d="M83.67,57.94a.06.06,0,0,0,0,.06s0,0,0,0,0,0,0-.06Z" transform="translate(-1.42 -1.42)"/><path class="c" d="M87.55,58.74s0-.05-.08-.06h0v0s0,0,0,0A.15.15,0,0,0,87.55,58.74Z" transform="translate(-1.42 -1.42)"/><path class="c" d="M86.48,55.63l0,0s0,0,0-.06h0S86.51,55.62,86.48,55.63Z" transform="translate(-1.42 -1.42)"/><path class="c" d="M84.4,57.27s0,0,0,0,0,0,0,0,0,0,0,0S84.41,57.24,84.4,57.27Z" transform="translate(-1.42 -1.42)"/><path class="c" d="M84.67,67.38h0a0,0,0,0,0,0,0h.07s0,0,0,0Z" transform="translate(-1.42 -1.42)"/><path class="c" d="M85.77,64.82h0a0,0,0,0,0,0,.06h0a.07.07,0,0,0,0,0,0,0,0,0,0,0,0A0,0,0,0,0,85.77,64.82Z" transform="translate(-1.42 -1.42)"/><path class="c" d="M84.64,67l.06,0s.06,0,.06,0,0,.1,0,.11,0,0,0,0a.17.17,0,0,0,0-.12s0,0,0,0L84.57,67s-.09,0-.1,0l0,0Z" transform="translate(-1.42 -1.42)"/><path class="c" d="M85.7,64.78s0,0,0,0,0,0,0,0,0,0,0,0,0,0,0,0v0s0,0,0,0S85.7,64.77,85.7,64.78Z" transform="translate(-1.42 -1.42)"/><path class="c" d="M85.5,64.66a0,0,0,0,0,0,0,.06.06,0,0,0,.06,0l0,0Z" transform="translate(-1.42 -1.42)"/><path class="c" d="M9.59,54.92s0,0,0,0,0,0-.05,0,0,0,0,0,0,0,0,0Z" transform="translate(-1.42 -1.42)"/><path class="c" d="M80.29,65v0s0,0,0,0,0,0,0,0,0,0,0,0,0,0,0,0S80.3,65,80.29,65Z" transform="translate(-1.42 -1.42)"/><path class="c" d="M79.56,65.39s0,0,0,0,0,.08,0,.1h0s0,0,0,0,0,0,0,0,0,0,0,0S79.57,65.38,79.56,65.39Z" transform="translate(-1.42 -1.42)"/><path class="c" d="M83.12,57h0a0,0,0,0,0,0,0h0s0,0,0-.06Z" transform="translate(-1.42 -1.42)"/><path class="c" d="M81,63.42l-.18-.08c-.1,0-.2.06-.28,0s0,0,0,0a1.09,1.09,0,0,0-.8.55c0,.1-.14.22-.2.33a.39.39,0,0,0,0,.33.2.2,0,0,0,.13.14.24.24,0,0,0,.15,0l.45.27h0s0,0,.08,0l.43.22c.35.17.48.2.61.18l.22-.46a1,1,0,0,0,.13-.57A1.13,1.13,0,0,0,81,63.42ZM79.61,64.6s0,0,0-.06h0s0,0,0,0S79.63,64.61,79.61,64.6Z" transform="translate(-1.42 -1.42)"/><path class="c" d="M84.53,67.6s0,0,0,0v0s0,0,0,0h0l0,0S84.53,67.58,84.53,67.6Z" transform="translate(-1.42 -1.42)"/><path class="c" d="M84.59,55.71s0,.06,0,.07h0c.06,0,.07,0,.08-.08h0S84.59,55.69,84.59,55.71Z" transform="translate(-1.42 -1.42)"/><path class="c" d="M84.51,55.61s0,0,0,.06h0s0,0,0,0v0Z" transform="translate(-1.42 -1.42)"/><path class="c" d="M82.85,57.61s0,0,0,0h0a0,0,0,0,0,0,0Z" transform="translate(-1.42 -1.42)"/><path class="c" d="M84.18,55.44a0,0,0,0,0,0,.05s0,0,0,0a.11.11,0,0,0,0-.06S84.18,55.42,84.18,55.44Z" transform="translate(-1.42 -1.42)"/><path class="c" d="M82.59,56.8s0,0,0,0l0,0s0,0,0,0S82.59,56.79,82.59,56.8Z" transform="translate(-1.42 -1.42)"/><path class="c" d="M84,55.33l0,.06a.21.21,0,0,1,0-.06s0,0,0,0Z" transform="translate(-1.42 -1.42)"/><path class="c" d="M83.22,54.38l0,0s0,0,0,0,0,0,0,0v0Z" transform="translate(-1.42 -1.42)"/><path class="c" d="M83,54.34s0,0,0,.06l0-.08A0,0,0,0,0,83,54.34Z" transform="translate(-1.42 -1.42)"/><path class="c" d="M85.85,64.7c-.06,0-.21,0-.23,0s0,0,0,0h0s.08,0,.14,0l0,0s.06,0,.07,0a0,0,0,0,0,0,0S85.87,64.71,85.85,64.7Z" transform="translate(-1.42 -1.42)"/><path class="c" d="M83.94,55.2s-.07,0-.08.1,0,.08.06.1,0,0,0,0,0-.06,0-.09A.08.08,0,0,0,83.94,55.2Z" transform="translate(-1.42 -1.42)"/><path class="c" d="M85.21,65.36h0s0,0,0,0a.15.15,0,0,0,.1,0h0a.06.06,0,0,0,0,0S85.23,65.33,85.21,65.36Z" transform="translate(-1.42 -1.42)"/><path class="c" d="M21.05,75.9h0s0,.08,0,.1,0,0,0,0l0,0s0,0,0-.06Z" transform="translate(-1.42 -1.42)"/><path class="c" d="M21,75.2s0,0-.05,0a0,0,0,0,0,0,.05s0,0,.05,0A.06.06,0,0,0,21,75.2Z" transform="translate(-1.42 -1.42)"/><path class="c" d="M21,77.83s0,0,0,.07l0,0s0,0,0,0l0,0Z" transform="translate(-1.42 -1.42)"/><path class="c" d="M20.5,76.48s0,.09,0,.11h0s0,0,0,0a.2.2,0,0,0,0-.13S20.51,76.46,20.5,76.48Z" transform="translate(-1.42 -1.42)"/><path class="c" d="M21.06,77.68a0,0,0,0,0,0,0s0,0,0,0a.06.06,0,0,0,0-.06Z" transform="translate(-1.42 -1.42)"/><path class="c" d="M16.51,68v.08s0,0,.09,0a0,0,0,0,0,0,0,.21.21,0,0,0-.12,0Z" transform="translate(-1.42 -1.42)"/><path class="c" d="M19.79,77.51s0,0,0,.06h0s.05,0,.06,0h0s0,0,0,0Z" transform="translate(-1.42 -1.42)"/><path class="c" d="M16.77,67.85l0,0h0s0,0,0,0h0a0,0,0,0,0-.07,0S16.76,67.84,16.77,67.85Z" transform="translate(-1.42 -1.42)"/><path class="c" d="M17.85,68.91s0,0,0,.07.05,0,.06,0h0a.06.06,0,0,0,0-.08,0,0,0,0,0,0,0A.06.06,0,0,0,17.85,68.91Z" transform="translate(-1.42 -1.42)"/><path class="c" d="M18.9,78.6l0,0a0,0,0,0,0,0,0s.07,0,.08,0,0,0,0,0S18.91,78.59,18.9,78.6Z" transform="translate(-1.42 -1.42)"/><path class="c" d="M19.41,78.07l0,0s0,0,0-.07Z" transform="translate(-1.42 -1.42)"/><path class="c" d="M21.17,75.7a.12.12,0,0,0,0,.1.06.06,0,0,0,.07,0h0a.06.06,0,0,0-.09-.06Z" transform="translate(-1.42 -1.42)"/><path class="c" d="M37.7,88.88h0s.07.06.07.06a0,0,0,0,0,0,0S37.75,88.89,37.7,88.88Z" transform="translate(-1.42 -1.42)"/><path class="c" d="M37.4,88.37a.18.18,0,0,0,.09.1h0v0c0-.05,0-.07-.06-.08S37.4,88.36,37.4,88.37Z" transform="translate(-1.42 -1.42)"/><path class="c" d="M31.74,79.93a.07.07,0,0,0,0,0s0,0,0,.06a.06.06,0,0,0,.07,0h0a.05.05,0,0,0,0-.07Z" transform="translate(-1.42 -1.42)"/><path class="c" d="M38.07,88.93s0,0,0,0h0a0,0,0,0,0,0-.06S38.07,88.91,38.07,88.93Z" transform="translate(-1.42 -1.42)"/><path class="c" d="M38.1,83a0,0,0,0,0,0,0h0l0,0h0Z" transform="translate(-1.42 -1.42)"/><path class="c" d="M30.22,79.56s0,0,0,0h0s0,0,0,0a0,0,0,0,0,0,0h0S30.23,79.54,30.22,79.56Z" transform="translate(-1.42 -1.42)"/><path class="c" d="M21.58,75.3a.09.09,0,0,0,0-.07h0s0,0,0,0h0s0,0,0,0h0Z" transform="translate(-1.42 -1.42)"/><path class="c" d="M31,86.69s0,0,0-.06-.05,0-.05,0l0,0s0,0,0,.07A.07.07,0,0,0,31,86.69Z" transform="translate(-1.42 -1.42)"/><path class="c" d="M29.39,81.68h0a.16.16,0,0,0,0,.14h0l0,0s0-.12,0-.13Z" transform="translate(-1.42 -1.42)"/><path class="c" d="M21.44,76.92s0,0,0,0,0,0,0,0h.06s0,0,0,0Z" transform="translate(-1.42 -1.42)"/><path class="c" d="M30.07,79.86h0l0,.07s0,0,.06-.08a0,0,0,0,0,0,0A.25.25,0,0,0,30.07,79.86Z" transform="translate(-1.42 -1.42)"/><path class="c" d="M6.42,55.79v0h0s0,0,0,0,0,0,0,0Z" transform="translate(-1.42 -1.42)"/><path class="c" d="M6.59,55.8s0,0,0,0a.08.08,0,0,0,0-.07l0-.06a.19.19,0,0,0-.12,0,.1.1,0,0,0,0,0s.08,0,.08,0S6.58,55.77,6.59,55.8Z" transform="translate(-1.42 -1.42)"/><path class="c" d="M6.83,55.7s0-.05,0-.08,0,0,0,0a.19.19,0,0,0-.06.07S6.77,55.7,6.83,55.7Z" transform="translate(-1.42 -1.42)"/><path class="c" d="M7.06,55.63s0,0,0,0,0-.06,0-.06,0,0,0,0H7S7.05,55.64,7.06,55.63Z" transform="translate(-1.42 -1.42)"/><path class="c" d="M38.22,83.33a0,0,0,0,0,0,0,.09.09,0,0,0,.07.06h0a.78.78,0,0,0,0-.07Z" transform="translate(-1.42 -1.42)"/><path class="c" d="M6.17,55.89s0,0,0,0,0,0,0,0,0,0,0,0h0Z" transform="translate(-1.42 -1.42)"/><path class="c" d="M8.33,55.23a0,0,0,0,0-.06,0s0,0,0,.09S8.33,55.28,8.33,55.23Z" transform="translate(-1.42 -1.42)"/><path class="c" d="M7.43,55.52s.07,0,.06-.08a.05.05,0,0,0-.07,0,.06.06,0,0,0,0,.08s0,0,0,0Z" transform="translate(-1.42 -1.42)"/><path class="c" d="M5.31,56.33a0,0,0,0,0,0,0h0l0,0s0,0,0,0S5.31,56.32,5.31,56.33Z" transform="translate(-1.42 -1.42)"/><path class="c" d="M15,69.26a.24.24,0,0,0-.05.14H15s.06-.09,0-.11v0S15,69.25,15,69.26Z" transform="translate(-1.42 -1.42)"/><path class="c" d="M7.69,55.4s0-.06,0-.06,0,0,0,0,0,0,0,0l0,0Z" transform="translate(-1.42 -1.42)"/><path class="c" d="M8,55.3a0,0,0,0,0,0,0,.06.06,0,0,0,0,.06s0,0,0,0S8,55.32,8,55.3Z" transform="translate(-1.42 -1.42)"/><path class="c" d="M8.47,55.19v0a.13.13,0,0,0,0-.09s0,0,0,0,0,0,0,0h0Z" transform="translate(-1.42 -1.42)"/><path class="c" d="M5.42,56.38s0,0,0,0a0,0,0,0,0,0,0s0,0,0,0S5.41,56.36,5.42,56.38Z" transform="translate(-1.42 -1.42)"/><path class="c" d="M9,67.17H9a0,0,0,0,0,0,0,.05.05,0,0,0,0,0H9v0s0,0,0,0A0,0,0,0,0,9,67.17Z" transform="translate(-1.42 -1.42)"/><path class="c" d="M8.85,66.87h0c-.05,0,0,.1,0,.15S8.8,66.93,8.85,66.87Z" transform="translate(-1.42 -1.42)"/><path class="c" d="M13.88,74.32s0,0,0,0l0,0s0,0,0,.07a.06.06,0,0,0,.09,0A0,0,0,0,0,13.88,74.32Z" transform="translate(-1.42 -1.42)"/><path class="c" d="M8.66,66.65s0,0,0,0,0,0,.05,0,0,0,0,0,0,0,0,0Z" transform="translate(-1.42 -1.42)"/><path class="c" d="M9.09,67.3s0,0,.05,0,0,0,0,0l-.08,0v0S9.08,67.29,9.09,67.3Z" transform="translate(-1.42 -1.42)"/><path class="c" d="M5.63,56.25s0,0,0,0h0l.07,0a0,0,0,0,0,0,0S5.64,56.24,5.63,56.25Z" transform="translate(-1.42 -1.42)"/><path class="c" d="M7.09,58.2h0s0,0,0,0a.11.11,0,0,0,.06-.06l-.06,0Z" transform="translate(-1.42 -1.42)"/><path class="c" d="M8.57,64.21s0,0,0,0a0,0,0,0,0,0,0s0,0,0,0,0,0,0,0S8.57,64.19,8.57,64.21Z" transform="translate(-1.42 -1.42)"/><path class="c" d="M8.05,64.47s0,0,0,0,0,0,0,0H8a0,0,0,0,0,.06,0,0,0,0,0,0,0,0s0,0,0,0Z" transform="translate(-1.42 -1.42)"/><path class="c" d="M8.16,64.4s0,0,0,.06a0,0,0,0,0,0,0l0,0a.06.06,0,0,0,0-.06S8.17,64.39,8.16,64.4Z" transform="translate(-1.42 -1.42)"/><path class="c" d="M38.3,82.94s0,0,0,0,0,0,0,0l0,0h0S38.3,82.93,38.3,82.94Z" transform="translate(-1.42 -1.42)"/><path class="c" d="M41.05,86.23s0-.12-.06-.13a1.5,1.5,0,0,1,0,.2,1.94,1.94,0,0,0,0,.34,1.25,1.25,0,0,1,.11-.29s-.05-.07,0-.1S41,86.23,41.05,86.23Z" transform="translate(-1.42 -1.42)"/><path class="c" d="M40.83,87.23l.08.06h0s0,0,0-.09Z" transform="translate(-1.42 -1.42)"/><path class="c" d="M40.87,86.67a0,0,0,0,0,0,0h0a.07.07,0,0,0,0,0S40.87,86.65,40.87,86.67Z" transform="translate(-1.42 -1.42)"/><path class="c" d="M41.05,85.64h0s0,.06,0,.06l0,0Z" transform="translate(-1.42 -1.42)"/><path class="c" d="M41,86a0,0,0,0,0,0,0h0l0,0s0,0,0,0S41,86,41,86Z" transform="translate(-1.42 -1.42)"/><path class="c" d="M41.27,82.9a0,0,0,0,0,0,0h0s0,0,0,0,0,0,0,0Z" transform="translate(-1.42 -1.42)"/><path class="c" d="M40.74,88v0s0,0,0,0l.07,0v0l0,0S40.75,88,40.74,88Z" transform="translate(-1.42 -1.42)"/><path class="c" d="M41,84.17s0-.06,0-.06,0,0,0,0a0,0,0,0,0,0,0Z" transform="translate(-1.42 -1.42)"/><path class="c" d="M41.35,83.91s0,0,0,0v0a.09.09,0,0,0-.06.08v.09s0,.05,0,.07a.06.06,0,0,1,0,0l0,.08a.1.1,0,0,0,0,.06.16.16,0,0,0-.05.11v.14s0,.07-.06.13a.09.09,0,0,0,0,.08.16.16,0,0,0,0,.07s0,.08,0,.12h0s0,0,0,.06,0,0,0,0h0s.08-.06.09-.1,0-.21,0-.21,0,0,0,0l0-.32c.06,0,.08,0,.08-.06v-.11c0-.06.07-.17.09-.28A.08.08,0,0,0,41.35,83.91Z" transform="translate(-1.42 -1.42)"/><path class="c" d="M40.84,87.69v0s0-.08,0-.08l0,.06a.16.16,0,0,0-.05.09.08.08,0,0,0,.05.09l-.05,0a0,0,0,0,0,0,0s0,.08.06.08.08-.07.09-.15v-.12s-.06,0-.06,0,0,0,0,0Z" transform="translate(-1.42 -1.42)"/><path class="c" d="M40.83,87.34s0,0,0,0l-.06.12,0,0,0,.07,0-.1a.08.08,0,0,1,0-.07h0a0,0,0,0,0,0,0S40.83,87.32,40.83,87.34Z" transform="translate(-1.42 -1.42)"/><path class="c" d="M41.5,83.15s0,0,0,0-.08,0-.1.14,0,.18,0,.18h0s0,0,0,0l0,.07,0,.07a.13.13,0,0,0-.06.07v.12l0,.08s0,0,.06,0l.06-.17a.56.56,0,0,0,0-.13.14.14,0,0,1,0-.08l0-.11a.37.37,0,0,0,0-.23Z" transform="translate(-1.42 -1.42)"/><path class="c" d="M50.37,87.41a0,0,0,0,0,0,0s0,0,0,0,0,0,0,0S50.37,87.39,50.37,87.41Z" transform="translate(-1.42 -1.42)"/><path class="c" d="M47.7,88.11a0,0,0,0,0,0,0v.07l0,0,.06,0a0,0,0,0,0,0,0S47.7,88.11,47.7,88.11Z" transform="translate(-1.42 -1.42)"/><path class="c" d="M50.52,87.57a0,0,0,0,0,0,0s0,0,0,0,0,0,0,0a0,0,0,0,0,0,0Z" transform="translate(-1.42 -1.42)"/><path class="c" d="M47.81,88.24a0,0,0,0,0,0,0h0a0,0,0,0,0,0,0s0,0,0,0A0,0,0,0,0,47.81,88.24Z" transform="translate(-1.42 -1.42)"/><path class="c" d="M50.28,84.48l-.07-.06a0,0,0,0,0,0,0S50.25,84.49,50.28,84.48Z" transform="translate(-1.42 -1.42)"/><path class="c" d="M47.44,88.08a0,0,0,0,0,0,0,0,0,0,0,0,0,0h0v0S47.47,88.07,47.44,88.08Z" transform="translate(-1.42 -1.42)"/><path class="c" d="M46.73,83.85a0,0,0,0,0,0,0s0-.07,0-.08,0,0,0,0S46.73,83.83,46.73,83.85Z" transform="translate(-1.42 -1.42)"/><path class="c" d="M47.21,88.68s0,0,0,0a0,0,0,0,0,0,0s0,0-.05,0S47.21,88.67,47.21,88.68Z" transform="translate(-1.42 -1.42)"/><path class="c" d="M41.1,85.27l0,0a0,0,0,0,0,0,0s-.06.06-.07.12v0s0,.17,0,.17,0,0,0,0,0,0,0,.06,0,0,0,0,0,0,0-.06,0-.24,0-.24Z" transform="translate(-1.42 -1.42)"/><path class="c" d="M40.12,89.1a.1.1,0,0,0-.08.05s0,0,0,0a.12.12,0,0,0,.1,0A.1.1,0,0,0,40.12,89.1Z" transform="translate(-1.42 -1.42)"/><path class="c" d="M41.48,82.94s0,0,0,0,0,0,0,0,0,0,0,0,0,0,0,0-.06.08-.06.09,0,0,0,0A.06.06,0,0,0,41.48,82.94Z" transform="translate(-1.42 -1.42)"/><path class="c" d="M40.54,88.76s0,0,0,0-.05,0-.06,0l0,0Z" transform="translate(-1.42 -1.42)"/><path class="c" d="M40.6,88.89s0,0,0,0,0,0,0,0l0,0h0Z" transform="translate(-1.42 -1.42)"/><path class="c" d="M40.19,89s0,0,0,0h0s0-.05,0-.06S40.19,89,40.19,89Z" transform="translate(-1.42 -1.42)"/><path class="c" d="M40.1,89.22s0,0,0,0,0,0,0,0a0,0,0,0,0,0,0s0,0,0,0Z" transform="translate(-1.42 -1.42)"/><path class="c" d="M40.51,89.24a0,0,0,0,0,0,0s0,0,0,0l0,0v0l0,0h0S40.53,89.24,40.51,89.24Z" transform="translate(-1.42 -1.42)"/><path class="c" d="M60.64,46.24a.68.68,0,0,0-.46-.23.39.39,0,0,0-.3.13,3.06,3.06,0,0,0-.47.61,3,3,0,0,1-.4.53,2.64,2.64,0,0,1-.85.57,5.06,5.06,0,0,1-1.24.23,6.79,6.79,0,0,0-1.61.3A6.29,6.29,0,0,0,53,49.85l-.36.39a3,3,0,0,1,.76-1.35l.28-.21.32-.24a.33.33,0,0,0,0-.48.57.57,0,0,0-.42-.13,2,2,0,0,0-1.89,1.32,4.77,4.77,0,0,1-.31.56c-.06.06-.1.08-.12.08h0c-.29-.3.5-1.8,1-2.33a4.09,4.09,0,0,1,1.68-1,2.3,2.3,0,0,1,.84.31,3.61,3.61,0,0,0,1,.4,1.27,1.27,0,0,0,.34,0,2.53,2.53,0,0,0,1.66-.72A2.14,2.14,0,0,0,58,43.54a2.72,2.72,0,0,0-1.82-.82,2.07,2.07,0,0,0-1.46.62,5.16,5.16,0,0,0-.58.9c-.21.35-.49.83-.59.94a4.31,4.31,0,0,1-.82.53,6.32,6.32,0,0,0-.74.48c-.21.17-.46.38-.69.6a5.15,5.15,0,0,0-.7.85,5.7,5.7,0,0,0-.22.65c-.07.24-.19.62-.26.85-.14-.46-.37-1.37-.56-2.08s-.43-1.67-.54-2c-.92-2.94-1.08-3.47.92-5.4a1.85,1.85,0,0,1,1.29-.57,2.16,2.16,0,0,1,1.53.74,1.75,1.75,0,0,1,0,2.46,1,1,0,0,1-.68.32.63.63,0,0,1-.46-.2l-.18.17.2-.27a2.21,2.21,0,0,1,.3-.2,2.09,2.09,0,0,0,.31-.2.85.85,0,0,0,.08-1.29,1.39,1.39,0,0,0-1-.38,1.7,1.7,0,0,0-1.17.42,1.55,1.55,0,0,0-.47,1.07,2.08,2.08,0,0,0,.68,1.48,2,2,0,0,0,1.46.66,3.28,3.28,0,0,0,2.08-1c1-.91.77-2.82-.37-4a3.17,3.17,0,0,0-2.28-1.05,3.25,3.25,0,0,0-2.17.89,10,10,0,0,0-1.83,2.7,4.57,4.57,0,0,1,.58-2.65l.52-.43c.25-.2.52-.42.61-.51.81-.78,1.14-1.3,1.15-1.8a1.29,1.29,0,0,0-.44-1,.58.58,0,0,0-.45-.21.85.85,0,0,0-.6.3,6.35,6.35,0,0,0-.73,1.11c-.23.39-.52.87-.66,1a6.6,6.6,0,0,1,.66-2.91A1.39,1.39,0,0,0,47.52,33a1.11,1.11,0,0,0-.77-.29A1.08,1.08,0,0,0,46,33a1.37,1.37,0,0,0-.27,1.5,5.89,5.89,0,0,1,.63,2.89l-.22-.22a8,8,0,0,1-.48-.68,8.33,8.33,0,0,0-.58-.8A1.67,1.67,0,0,0,44,35.13a.73.73,0,0,0-.51.2c-.36.34-.63.92.12,1.69a22.27,22.27,0,0,0,1.91,1.43l.33.22A5.07,5.07,0,0,1,46,41.31c-.15-.16-.32-.38-.49-.6a8.07,8.07,0,0,0-.51-.63,4.74,4.74,0,0,0-3.13-1.68,3.13,3.13,0,0,0-2.2,1,2.79,2.79,0,0,0-.92,2,3,3,0,0,0,.77,2,3.35,3.35,0,0,0,2.21.84,2,2,0,0,0,1.43-.53,1.58,1.58,0,0,0,.19-2.43,1.64,1.64,0,0,0-1.16-.53A1.15,1.15,0,0,0,41,42.31a1.23,1.23,0,0,0,.15.35c0,.06.07.14.09.14h0a.4.4,0,0,1-.27.09.91.91,0,0,1-.62-.28,1.45,1.45,0,0,1,0-2.16A2.31,2.31,0,0,1,42,39.8a2.46,2.46,0,0,1,1.78.76c.92.95,1,2,.4,3.49a19.08,19.08,0,0,0-.8,2.69l-.09.61c-.08.52-.23,1.5-.34,2.17a4.94,4.94,0,0,0-1.42-2.41,11.36,11.36,0,0,0-.94-.76c-.38-.29-.81-.62-.93-.74s-.11-.15-.18-.25a2.22,2.22,0,0,1-.07-.33,2.58,2.58,0,0,0-.25-.82,2.73,2.73,0,0,0-.49-.64,2.1,2.1,0,0,0-3.21-.12,2,2,0,0,0,.05,2.71,3.07,3.07,0,0,0,2,1,1.73,1.73,0,0,0,.3,0A8.54,8.54,0,0,1,39,47a2.37,2.37,0,0,1,1.88,1c.72.75,1.29,1.72,1.17,2.21a3.63,3.63,0,0,0-.84-1.33s-1.3-1.28-1.89-1.28a.39.39,0,0,0-.29.11.44.44,0,0,0-.13.25.37.37,0,0,0,.1.31l.34.32c.31.29.76.71,1,1a4.52,4.52,0,0,1,.76,1.14c-.14-.12-.36-.35-.64-.64A4.45,4.45,0,0,0,39,49a5.87,5.87,0,0,0-1.65-.41A9.7,9.7,0,0,1,36,48.31a3.52,3.52,0,0,1-1.54-.81,1,1,0,0,1-.22-.29s-.09-.25-.13-.38a2,2,0,0,0-.3-.71.48.48,0,0,0-.35-.16.65.65,0,0,0-.44.21,2,2,0,0,0-.46,1.28,3.3,3.3,0,0,0,1,2.62A5.56,5.56,0,0,0,35,51.18a19.36,19.36,0,0,1,4.3,2.71,17.23,17.23,0,0,1,3.25,4.91l.41.84a7.12,7.12,0,0,0,.47.92.54.54,0,0,0,.4.17.9.9,0,0,0,.24,0A8.21,8.21,0,0,1,46.64,60a3.41,3.41,0,0,1,1.9.7.68.68,0,0,0,.36.13.43.43,0,0,0,.31-.13,5.25,5.25,0,0,0,.62-1.13l.34-.68a42.46,42.46,0,0,1,4.31-5.38,9.34,9.34,0,0,1,2.85-1.81l.33-.14A6.22,6.22,0,0,0,60,50.07a3.63,3.63,0,0,0,1-2,2.21,2.21,0,0,0-.32-1.85M55.7,43.82a1.11,1.11,0,0,1,1.49.2,1.36,1.36,0,0,1,.07,1.78c-.22.21-.69.45-1.27-.14s-.76-1.46-.29-1.84M37.27,45.56a.82.82,0,0,1-1.22,0A1.05,1.05,0,0,1,36.23,44a.94.94,0,0,1,1.33-.16c.65.57-.08,1.49-.29,1.69m5,10.29c-.07-.06-.58-1.23-.68-1.47a.29.29,0,0,1,0-.38s3.12-2.11,3.67-1.53a5.67,5.67,0,0,1,.74,2s-.68.32-.77.23a8.5,8.5,0,0,0-.52-1.33c-.2-.21-1.64.53-1.72.61s.47,1.38.3,1.53-.93.47-1,.34m.43,1.22a.32.32,0,0,1,0-.49c.51-.49,2.87-1.6,3.4-1a.3.3,0,0,1,.06.34c-.17.22-1.47.34-1.69.43s-1.62.91-1.76.77m3.65,1.47s-2,1.31-2.28,1c-.09-.09-.85-1.24-.47-1.61a.82.82,0,0,1,1.06.15,3.4,3.4,0,0,0,.23.3.5.5,0,0,0,.79,0c.16-.15.13-.25-.12-1a.32.32,0,0,1,0-.36c.06-.06.55-.26.72-.08a2.32,2.32,0,0,1,0,1.58m2.72.59A1.41,1.41,0,0,1,47.34,59,1.64,1.64,0,0,1,47,57.41a1.33,1.33,0,0,1,.74,0,.35.35,0,0,1,.08.24,2.94,2.94,0,0,0,0,1,.63.63,0,0,0,.64,0c.11-.1.16-.86.25-.95.37-.36.76-.33.9-.19s-.07,1.15-.55,1.61m1.58-2.21a15.32,15.32,0,0,1-3.39-.76.34.34,0,0,1-.06-.44.35.35,0,0,1,.24-.08,6,6,0,0,1,3.28.88c.14.14,0,.36-.07.4m.83-1.38s-.1,0-.66-.17a2.64,2.64,0,0,1-.64-.25,2.28,2.28,0,0,1,.15-.6c.15-.42.17-.5,0-.68s-1.37-.56-1.66-.28a.72.72,0,0,0-.24.42c0,.11-.11.66-.13.67a1.07,1.07,0,0,1-.58,0c-.06-.07-.27-1.6.07-1.92.64-.62,4.16.89,4.27,1,.52.55-.17,1.46-.58,1.86m7.47-6a2.5,2.5,0,0,1-.46.36,13.83,13.83,0,0,1-2.61.82,6.3,6.3,0,0,0-1.67,1.11c-.26.25-.56.57-.78.79a.7.7,0,0,1-.71.19c-.81-.26-3.36-1-3.91-1.13a.72.72,0,0,1-.33-.18,1,1,0,0,1-.26-.56,16.1,16.1,0,0,0-1.62-5c-.12-.12-.26-.17-.39-.05-.48.46-1.21,5.43-1.4,5.61S42,52.93,41.49,53.25s-.46.16-1.2-.6a5.93,5.93,0,0,0-2.46-1.82c-.69-.24-1.07-.11-2.07-.35A4.33,4.33,0,0,1,34,49.32c-.34-.35-.9-1.51-.61-1.79,0-.05.12-.06.2,0s.6.87.74,1a3.42,3.42,0,0,0,2.29.94,5.41,5.41,0,0,1,3.68,1.73c.12.13.5.75.59.84s.33.18.62,0,2.37-1.21,2.39-1.23a20.83,20.83,0,0,0,.3-2.85,10.68,10.68,0,0,1,2-5.45c.18-.17.37-.14.58.09a23.51,23.51,0,0,1,2.18,5.64c.09.38.46,2.31.56,2.4s2.45.78,2.88,1c.21.11.32.13.51-.05a7.55,7.55,0,0,1,3.35-2.25,9.53,9.53,0,0,0,2.23-.52,4,4,0,0,0,.93-.65c.32-.31.47-.45.54-.37.27.27-.59,1.34-.95,1.69" transform="translate(-1.42 -1.42)"/></svg>