<svg id="Ebene_1" data-name="Ebene 1" xmlns="http://www.w3.org/2000/svg" viewBox="0 0 480 480" width="360px" height="360px">
  <defs>
    <style>
      .cls-1 {
        fill: lime;
      }
      .cls-2 {
        fill: #009fe3;
      }
      .cls-3 {
        fill: blue;
      }
      .cls-4 {
        fill: red;
      }
      .cls-5 {
        fill: #e6007e;
      }
      .cls-6 {
        fill: #ffed00;
      }
      .cls-7 {
        fill: #fff;
      }
      .cls-8 {
        fill: #999;
      }
    </style>
  </defs><rect width="480" height="480"/><path class="cls-1" d="M91,239a149.57,149.57,0,0,1,73.63-127.55L238.27,239Z"/><path d="M164.27,112.82,236.54,238H92a147.95,147.95,0,0,1,72.26-125.18m.72-2.74A149.93,149.93,0,0,0,90,240H240L165,110.08Z"/><path class="cls-2" d="M164.63,368.55A149.57,149.57,0,0,1,91,241H238.27Z"/><path d="M236.54,242,164.27,367.18A147.95,147.95,0,0,1,92,242H236.54m3.46-2H90a149.93,149.93,0,0,0,75,129.92L240,240Z"/><path class="cls-3" d="M240,389a148.89,148.89,0,0,1-73.64-19.45L240,242l73.64,127.55A148.89,148.89,0,0,1,240,389Z"/><path d="M240,244l72.27,125.18a148.17,148.17,0,0,1-144.54,0L240,244m0-4L165,369.92a150.14,150.14,0,0,0,150,0L240,240Z"/><path class="cls-4" d="M241.73,239l73.64-127.55A149.57,149.57,0,0,1,389,239Z"/><path d="M315.73,112.82A147.95,147.95,0,0,1,388,238H243.46l72.27-125.18m-.72-2.74L240,240H390a149.93,149.93,0,0,0-75-129.92Z"/><path class="cls-5" d="M241.73,241H389a149.57,149.57,0,0,1-73.63,127.55Z"/><path d="M388,242a147.95,147.95,0,0,1-72.26,125.18L243.46,242H388m2-2H240l75,129.92A149.93,149.93,0,0,0,390,240Z"/><path class="cls-6" d="M166.36,110.45a149.13,149.13,0,0,1,147.28,0L240,238Z"/><path d="M240,92a148,148,0,0,1,72.27,18.82L240,236,167.73,110.82A148,148,0,0,1,240,92m0-2a149.28,149.28,0,0,0-75,20.08L240,240l75-129.92A149.28,149.28,0,0,0,240,90Z"/><path class="cls-7" d="M213.53,70V62.39l-4.14-11.31h3.16L214,55.67c.42,1.26.84,2.72,1.17,4.14h.06c.31-1.4.7-2.82,1.12-4.22l1.31-4.51h3.11l-4.25,11.2V70Z"/><path
    class="cls-7"
    d="M223.08,63.93c0,3.05,1.43,3.89,3,3.89a6.32,6.32,0,0,0,2.44-.47l.45,2.12a8.83,8.83,0,0,1-3.42.65c-3.53,0-5.4-2.55-5.4-6.78,0-4.51,2.15-7.25,5.06-7.25s4.32,2.6,4.32,6.24a9.8,9.8,0,0,1-.09,1.6Zm3.69-2.13c0-2.18-.7-3.47-1.76-3.47-1.29,0-1.88,1.88-1.93,3.47Z"/><path class="cls-7" d="M231.7,50.57h3V70h-3Z"/><path class="cls-7" d="M237.58,50.57h3V70h-3Z"/><path class="cls-7" d="M247.8,70.17c-2.88,0-4.87-2.4-4.87-7,0-5,2.44-7.08,5-7.08,2.86,0,4.82,2.49,4.82,7,0,5.52-2.86,7.08-4.9,7.08Zm.11-2.29c1.49,0,1.82-2.69,1.82-4.76s-.33-4.73-1.87-4.73-1.93,2.74-1.93,4.73c0,2.29.39,4.76,2,4.76Z"/><path
    class="cls-7"
    d="M256.76,56.31l1,6.25c.23,1.45.45,2.88.59,4.23h.08c.23-1.35.53-2.89.81-4.18l1.38-6.3h2.29l1.29,6.14c.34,1.54.59,2.91.81,4.34h.06c.14-1.35.36-2.78.62-4.29l1-6.19h3L266.2,70h-2.52l-1.26-5.57a40,40,0,0,1-.73-4.2h-.06a35.43,35.43,0,0,1-.81,4.23L259.48,70H256.9l-3.33-13.64Z"/><path
    class="cls-8"
    d="M218.81,410.61a17.88,17.88,0,0,1,3.72-.36,6.54,6.54,0,0,1,4.48,1.31,4.32,4.32,0,0,1,1.35,3.36,4.43,4.43,0,0,1-2.78,4.15v.08A4.55,4.55,0,0,1,229,423.8a5.21,5.21,0,0,1-1.37,3.72c-1.09,1.23-2.94,1.82-5.66,1.82a21.28,21.28,0,0,1-3.13-.19Zm3,7.59h.86a2.81,2.81,0,0,0,2.78-2.94c0-1.57-.73-2.75-2.58-2.75a3.35,3.35,0,0,0-1.06.12Zm0,8.73a4.13,4.13,0,0,0,.95.09,3,3,0,0,0,3.16-3.25,3.12,3.12,0,0,0-3.25-3.33h-.86Z"/><path class="cls-8" d="M231.21,409.83h3V429.2h-3Z"/><path
    class="cls-8"
    d="M245.41,426.09a21.6,21.6,0,0,0,.17,3.11h-2.69l-.17-1.37h-.06a3.38,3.38,0,0,1-2.88,1.6c-2,0-3.44-1.63-3.44-4,0-3.5,3-5,6-5V420c0-1.43-.56-2.41-2-2.41a4.61,4.61,0,0,0-2.55.76l-.56-2.05a7.58,7.58,0,0,1,3.75-1c3.53,0,4.43,2.41,4.43,5.32Zm-2.94-3.72c-1.18,0-3.28.34-3.28,2.71,0,1.54.81,2.11,1.49,2.11a1.79,1.79,0,0,0,1.7-1.57,2.53,2.53,0,0,0,.09-.7Z"/><path class="cls-8" d="M257.36,425.23c0,1.48.06,2.82.12,4h-2.61l-.17-1.43h0a3.73,3.73,0,0,1-3.05,1.66c-2.5,0-3.5-1.88-3.5-5.44v-8.42h3v8.06c0,2,.34,3.3,1.57,3.3a1.65,1.65,0,0,0,1.54-1.34,3.68,3.68,0,0,0,.17-1.18v-8.84h3Z"/><path
    class="cls-7"
    d="M402.19,312.45c-.12-2.13-.23-4.7-.2-6.78h-.08c-.37,2.08-.87,4.34-1.32,6.16l-2,7.67h-2L394.74,312c-.51-1.91-1-4.26-1.35-6.36h-.08c0,2.13-.14,4.62-.25,6.86l-.34,7.2h-2.6l1.26-18.87h3.16l1.82,7.64c.59,2.44,1.07,4.42,1.43,6.55h.06c.33-2.13.75-4.09,1.31-6.55l1.77-7.64h3.22l1.12,18.87h-2.72Z"/><path
    class="cls-7"
    d="M416.1,316.62a21.69,21.69,0,0,0,.17,3.11h-2.69l-.17-1.37h-.05a3.41,3.41,0,0,1-2.89,1.59c-2,0-3.44-1.62-3.44-4,0-3.5,3-5,6.05-5v-.37c0-1.42-.56-2.4-2.05-2.4a4.63,4.63,0,0,0-2.54.75l-.56-2a7.58,7.58,0,0,1,3.75-1c3.53,0,4.42,2.41,4.42,5.32Zm-2.94-3.72c-1.17,0-3.27.33-3.27,2.71,0,1.54.81,2.1,1.48,2.1a1.78,1.78,0,0,0,1.71-1.56,3,3,0,0,0,.08-.7Z"/><path
    class="cls-7"
    d="M428.06,318.11c0,3.22-.51,4.7-1.51,5.74a5.48,5.48,0,0,1-4.06,1.48,8.11,8.11,0,0,1-3.25-.64l.61-2.33a5.75,5.75,0,0,0,2.58.59c1.79,0,2.66-1.15,2.66-3.7v-1.06H425a2.71,2.71,0,0,1-2.52,1.48c-2.77,0-4.14-3.08-4.14-6.66,0-4.76,2.16-7.14,4.45-7.14a2.75,2.75,0,0,1,2.52,1.68h.06l.17-1.46h2.63c-.09,1.12-.14,2.44-.14,4.29Zm-3-7.17a3.79,3.79,0,0,0-.14-1c-.2-.73-.62-1.54-1.51-1.54-1.43,0-2.1,1.93-2.1,4.51,0,3,.89,4.39,2,4.39.56,0,1.21-.28,1.54-1.42a3.21,3.21,0,0,0,.17-1.15Z"/><path
    class="cls-7"
    d="M433.18,313.71c0,3.05,1.43,3.89,3,3.89a6.11,6.11,0,0,0,2.43-.48l.45,2.13a8.8,8.8,0,0,1-3.42.65c-3.52,0-5.4-2.55-5.4-6.78,0-4.51,2.16-7.25,5.07-7.25s4.31,2.6,4.31,6.24a11.52,11.52,0,0,1-.08,1.6Zm3.7-2.13c0-2.18-.7-3.47-1.77-3.47-1.28,0-1.87,1.88-1.93,3.47Z"/><path class="cls-7" d="M441.81,309.93c0-1.54-.06-2.63-.12-3.84h2.61l.14,1.6h.05a3.68,3.68,0,0,1,3.22-1.82c2.3,0,3.5,1.76,3.5,4.93v8.93h-3v-8.65c0-1.37-.28-2.69-1.6-2.69-.73,0-1.4.56-1.68,1.68a4.84,4.84,0,0,0-.14,1.23v8.43h-3Z"/><path class="cls-7" d="M457.43,302.71v3.38h2.63v2.16h-2.63v7.08c0,1.68.64,2.1,1.4,2.1a4.5,4.5,0,0,0,.92-.08l.06,2.32a6.93,6.93,0,0,1-2,.23,3.33,3.33,0,0,1-2.41-.84c-.67-.68-1-1.65-1-3.7v-7.11h-1.62v-2.16h1.62v-2.35Z"/><path
    class="cls-7"
    d="M470.17,316.62a21.69,21.69,0,0,0,.17,3.11h-2.69l-.17-1.37h-.05a3.41,3.41,0,0,1-2.89,1.59c-2,0-3.44-1.62-3.44-4,0-3.5,3-5,6-5v-.37c0-1.42-.56-2.4-2-2.4a4.68,4.68,0,0,0-2.55.75l-.56-2a7.63,7.63,0,0,1,3.76-1c3.52,0,4.42,2.41,4.42,5.32Zm-2.94-3.72c-1.18,0-3.28.33-3.28,2.71,0,1.54.82,2.1,1.49,2.1a1.8,1.8,0,0,0,1.71-1.56,3,3,0,0,0,.08-.7Z"/><path class="cls-7" d="M49.06,319.42a6.65,6.65,0,0,1-2.77.48c-4.31,0-6.78-3.53-6.78-9.36,0-7.25,3.84-9.85,7.2-9.85a5.19,5.19,0,0,1,2.47.48l-.57,2.54a3.54,3.54,0,0,0-1.79-.39c-2,0-4.14,1.88-4.14,7s1.9,6.89,4.17,6.89a5.55,5.55,0,0,0,1.85-.34Z"/><path
    class="cls-7"
    d="M52.2,306.09l1.54,7.42c.2.93.34,1.74.48,2.52h.05c.11-.72.28-1.62.45-2.49l1.34-7.45H59l-2.54,9.75c-.73,2.94-1.66,5.88-3.2,7.75a7.09,7.09,0,0,1-2.8,2.13l-1-2.57a6.14,6.14,0,0,0,1.88-1.4,6.47,6.47,0,0,0,1.18-1.91,1.7,1.7,0,0,0,.16-.64,1.51,1.51,0,0,0-.08-.51L49,306.09Z"/><path
    class="cls-7"
    d="M68.58,316.62a21.69,21.69,0,0,0,.17,3.11H66.06l-.17-1.37h0A3.41,3.41,0,0,1,63,320c-2,0-3.44-1.62-3.44-4,0-3.5,3-5,6-5v-.37c0-1.42-.56-2.4-2-2.4a4.68,4.68,0,0,0-2.55.75l-.56-2a7.58,7.58,0,0,1,3.75-1c3.53,0,4.43,2.41,4.43,5.32Zm-2.94-3.72c-1.18,0-3.28.33-3.28,2.71,0,1.54.82,2.1,1.49,2.1a1.78,1.78,0,0,0,1.7-1.56,2.53,2.53,0,0,0,.09-.7Z"/><path class="cls-7" d="M71.35,309.93c0-1.54,0-2.63-.11-3.84h2.6l.14,1.6H74a3.66,3.66,0,0,1,3.22-1.82c2.29,0,3.5,1.76,3.5,4.93v8.93h-3v-8.65c0-1.37-.28-2.69-1.59-2.69-.73,0-1.4.56-1.68,1.68a4.42,4.42,0,0,0-.14,1.23v8.43h-3Z"/><path
    class="cls-8"
    d="M398.59,156.78a16.09,16.09,0,0,1,3.58-.36c2,0,3.59.33,4.68,1.37a5.5,5.5,0,0,1-1.54,8.59v.06c1.34.48,2,1.74,2.41,4a28.73,28.73,0,0,0,1.14,5h-3.1a25.71,25.71,0,0,1-1-4.59c-.36-2.46-1.06-3.25-2.57-3.25h-.67v7.84h-3Zm3,8.46h.78c1.79,0,2.91-1.4,2.91-3.34s-.75-3.1-2.69-3.13a3.54,3.54,0,0,0-1,.11Z"/><path class="cls-8" d="M415.05,175.6c-2.88,0-4.87-2.41-4.87-7,0-5,2.44-7.09,5-7.09,2.86,0,4.82,2.49,4.82,7,0,5.52-2.86,7.09-4.9,7.09Zm.11-2.3c1.49,0,1.82-2.69,1.82-4.76s-.33-4.73-1.87-4.73-1.93,2.74-1.93,4.73c0,2.3.39,4.76,2,4.76Z"/><path class="cls-8" d="M425.78,158.35v3.39h2.63v2.15h-2.63V171c0,1.68.64,2.1,1.4,2.1a4.63,4.63,0,0,0,.92-.09l.06,2.33a7,7,0,0,1-2,.22,3.32,3.32,0,0,1-2.41-.84c-.67-.67-1-1.65-1-3.7v-7.11h-1.62v-2.15h1.62v-2.36Z"/><path
    class="cls-8"
    d="M47,174.87a11.14,11.14,0,0,1-3.67.67,6.24,6.24,0,0,1-4.79-1.85c-1.48-1.54-2.38-4.25-2.35-7.59.06-7.08,3.92-9.77,7.62-9.77a6.55,6.55,0,0,1,2.91.56l-.59,2.58a4.4,4.4,0,0,0-2.16-.45c-2.43,0-4.67,1.79-4.67,7.11,0,5.13,2,6.86,4,6.86a2.3,2.3,0,0,0,1-.14v-5.29h-2V165.1H47Z"/><path class="cls-8" d="M49.51,165.57c0-1.26-.06-2.69-.12-3.83H52l.17,2h.08A3.23,3.23,0,0,1,55,161.51a3.79,3.79,0,0,1,.65.06v3a4.37,4.37,0,0,0-.65,0,2.71,2.71,0,0,0-2.41,2.35,8.27,8.27,0,0,0-.11,1.29v7.22h-3Z"/><path
    class="cls-8"
    d="M66.33,171.4c0,1.48.06,2.82.12,4H63.84l-.17-1.43h-.05a3.7,3.7,0,0,1-3,1.66c-2.5,0-3.5-1.88-3.5-5.44v-8.42h3v8.06c0,2,.34,3.3,1.57,3.3a1.65,1.65,0,0,0,1.54-1.34,3.68,3.68,0,0,0,.17-1.18v-8.84h3Zm-6.86-11.82a1.54,1.54,0,0,1,0-3.08,1.54,1.54,0,0,1,0,3.08Zm4.71,0a1.54,1.54,0,0,1,0-3.08,1.54,1.54,0,0,1,0,3.08Z"/><path class="cls-8" d="M69.13,165.57c0-1.54,0-2.63-.11-3.83h2.61l.14,1.59h0A3.67,3.67,0,0,1,75,161.51c2.3,0,3.5,1.77,3.5,4.93v8.93h-3v-8.65c0-1.37-.28-2.69-1.6-2.69-.73,0-1.4.56-1.68,1.68a4.84,4.84,0,0,0-.14,1.23v8.43h-3Z"/></svg>
