<?xml version="1.0" encoding="utf-8"?>
<!-- Generator: Adobe Illustrator 25.0.1, SVG Export Plug-In . SVG Version: 6.00 Build 0)  -->
<svg version="1.1" id="Ebene_1" xmlns="http://www.w3.org/2000/svg" xmlns:xlink="http://www.w3.org/1999/xlink" x="0px" y="0px"
	 viewBox="0 0 55.5 60.1" style="enable-background:new 0 0 55.5 60.1;" xml:space="preserve">
<path id="path24" d="M15.4,56.3c-4.8-2.6-8.6-6.1-11.3-10.7C1.4,41,0,35.8,0,30.1s1.4-10.9,4.1-15.5C6.9,10,10.6,6.4,15.4,3.9
	C20.2,1.3,25.6,0,31.6,0c5,0,9.6,0.9,13.7,2.7c4.1,1.8,7.5,4.3,10.3,7.6l-8.6,8c-3.9-4.5-8.8-6.8-14.6-6.8c-3.6,0-6.8,0.8-9.6,2.4
	c-2.8,1.6-5,3.8-6.6,6.6s-2.4,6-2.4,9.6c0,3.6,0.8,6.8,2.4,9.6c1.6,2.8,3.8,5,6.6,6.6c2.8,1.6,6,2.4,9.6,2.4
	c5.8,0,10.7-2.3,14.6-6.9l8.6,8c-2.8,3.4-6.2,5.9-10.3,7.7c-4.1,1.8-8.7,2.7-13.7,2.7C25.5,60.1,20.2,58.8,15.4,56.3"/>
</svg>
