<?xml version="1.0" encoding="utf-8"?>
<!-- Generator: Adobe Illustrator 25.0.1, SVG Export Plug-In . SVG Version: 6.00 Build 0)  -->
<svg version="1.1"
	 id="svg2" sodipodi:docname="Logo.eps" xmlns:cc="http://creativecommons.org/ns#" xmlns:dc="http://purl.org/dc/elements/1.1/" xmlns:inkscape="http://www.inkscape.org/namespaces/inkscape" xmlns:rdf="http://www.w3.org/1999/02/22-rdf-syntax-ns#" xmlns:sodipodi="http://sodipodi.sourceforge.net/DTD/sodipodi-0.dtd" xmlns:svg="http://www.w3.org/2000/svg"
	 xmlns="http://www.w3.org/2000/svg" xmlns:xlink="http://www.w3.org/1999/xlink" x="0px" y="0px" viewBox="0 0 666.7 666.7"
	 style="enable-background:new 0 0 666.7 666.7;" xml:space="preserve">
<sodipodi:namedview  bordercolor="#666666" borderopacity="1" gridtolerance="10" guidetolerance="10" id="namedview4" inkscape:pageopacity="0" inkscape:pageshadow="2" inkscape:window-height="480" inkscape:window-width="640" objecttolerance="10" pagecolor="#ffffff">
	</sodipodi:namedview>
<g id="g10" transform="matrix(1.3333333,0,0,-1.3333333,0,666.66667)" inkscape:groupmode="layer" inkscape:label="ink_ext_XXXXXX">
	<g id="g12" transform="scale(0.1)">
		<path id="path24" d="M1238.9,1237.6c-35.9,19.3-64.2,46.1-84.7,80.3c-20.6,34.3-30.8,73-30.8,116.2s10.3,81.9,30.8,116.2
			c20.6,34.3,48.8,61,84.7,80.3c35.9,19.3,76.3,29,121.2,29c37.8,0,71.9-6.7,102.5-19.9c30.5-13.3,56.2-32.4,76.9-57.3l-64.8-59.8
			c-29.5,34.1-66,51.1-109.6,51.1c-27,0-51.1-5.9-72.2-17.8c-21.2-11.8-37.7-28.3-49.5-49.5c-11.8-21.2-17.8-45.3-17.8-72.2
			c0-27,5.9-51.1,17.8-72.3c11.8-21.2,28.3-37.7,49.5-49.5s45.2-17.7,72.2-17.7c43.6,0,80.1,17.2,109.6,51.7l64.8-59.8
			c-20.8-25.3-46.5-44.6-77.2-57.9c-30.7-13.3-65-19.9-102.8-19.9C1315,1208.7,1274.8,1218.3,1238.9,1237.6"/>
		<path id="path26" d="M2003.4,1312.4c20.8,11.8,37.1,28.3,48.9,49.5c11.8,21.2,17.8,45.2,17.8,72.3c0,27-5.9,51.1-17.8,72.2
			c-11.8,21.2-28.1,37.7-48.9,49.5s-44,17.8-69.8,17.8s-49-5.9-69.8-17.8c-20.8-11.8-37.1-28.3-48.9-49.5
			c-11.8-21.2-17.8-45.3-17.8-72.2c0-27,5.9-51.1,17.8-72.3c11.8-21.2,28.1-37.7,48.9-49.5s44-17.7,69.8-17.7
			S1982.7,1300.6,2003.4,1312.4L2003.4,1312.4z M1811.3,1238c-36.3,19.5-64.8,46.4-85.3,80.7c-20.6,34.3-30.8,72.8-30.8,115.6
			c0,42.8,10.3,81.3,30.8,115.5c20.6,34.3,49,61.2,85.3,80.7s77.1,29.3,122.4,29.3s86-9.8,122.1-29.3s64.6-46.4,85.3-80.7
			c20.8-34.2,31.1-72.8,31.1-115.5c0-42.8-10.4-81.3-31.1-115.6c-20.8-34.3-49.2-61.1-85.3-80.7c-36.1-19.5-76.8-29.3-122.1-29.3
			S1847.6,1218.4,1811.3,1238"/>
		<path id="path28" d="M2625.1,1550.3c-15.8,13.1-38.8,19.6-69.1,19.6h-82.2v-152h82.2c30.3,0,53.4,6.6,69.1,19.9
			c15.8,13.3,23.7,32,23.7,56.1C2648.7,1518.5,2640.8,1537.3,2625.1,1550.3L2625.1,1550.3z M2650.6,1216.2l-84.1,121.4h-92.8v-121.4
			h-100.9v436h188.7c38.6,0,72.1-6.4,100.6-19.3c28.4-12.9,50.3-31.1,65.7-54.8c15.4-23.7,23-51.7,23-84.1
			c0-32.4-7.8-60.3-23.4-83.8c-15.6-23.5-37.7-41.4-66.3-53.9l97.8-140.2L2650.6,1216.2"/>
		<path id="path30" d="M3210.5,1386.2l-69.1,166.9l-69.1-166.9H3210.5z M3242.3,1309.6h-202.4l-38.6-93.4h-103.4l194.3,436h99.7
			l195-436H3281L3242.3,1309.6"/>
		<path id="path32" d="M3809.1,1216.2l-105.3,151.4l-103.4-151.4h-115.9l161.3,221.7l-153.2,214.3h114.6l100.3-141.4l98.4,141.4h109
			l-152-210.5l162.6-225.5H3809.1"/>
		<path id="path34" d="M2232.6,2142.6H1639v112.6h593.5v-112.6H2232.6z M2176.8,1845h-20.4l-72.3,259.5h20.4L2176.8,1845z
			 M1715.3,1845h-20.4l72.3,259.5h20.4L1715.3,1845z M1814.2,2518.4h234.4l-38.1-225.2h-158.2L1814.2,2518.4z M1931.4,2924.8
			c25.7-28.5,80.9-99,80.9-179.4c0-92.5-29.8-161.3-61.9-181.5v273c0,10.5-8.5,19-19,19s-19-8.5-19-19v-273
			c-32.1,20.2-61.9,89.1-61.9,181.5C1850.5,2825.8,1905.7,2896.3,1931.4,2924.8z M2251.6,2293.1h-202.5l40.8,241.1
			c0.9,5.5-0.6,11.2-4.2,15.4c-3.6,4.3-8.9,6.7-14.5,6.7h-73.8c32.2,40,53,109,53,189c0,121.1-101.6,216.7-106,220.7
			c-7.3,6.8-18.6,6.8-25.8,0c-4.3-4-106-99.6-106-220.7c0-80,20.8-149,53-189h-73.8c-5.6,0-10.9-2.5-14.5-6.7
			c-3.6-4.3-5.2-9.9-4.2-15.4l40.8-241.1H1620c-10.5,0-19-8.5-19-19v-150.6c0-10.5,8.5-19,19-19h107.6l-76.2-273.4
			c-1.6-5.7-0.4-11.9,3.2-16.6s9.2-7.5,15.1-7.5h59.9c8.5,0,16,5.7,18.3,13.9l79,283.6h78.8h59.9h78.8l79-283.6
			c2.3-8.2,9.8-13.9,18.3-13.9h59.9c5.9,0,11.6,2.8,15.1,7.5c3.6,4.7,4.8,10.9,3.2,16.6l-76.2,273.4h107.6c10.5,0,19,8.5,19,19
			v150.6C2270.6,2284.6,2262.1,2293.1,2251.6,2293.1"/>
		<path id="path36" d="M1700.6,2201.3c0-10.5,8.5-19,19-19H2152c10.5,0,19,8.5,19,19s-8.5,19-19,19h-432.4
			C1709.1,2220.3,1700.6,2211.8,1700.6,2201.3"/>
		<path id="path38" d="M2548.1,3390.7h-50v54c0,13.8,11.2,25,25,25s25-11.2,25-25V3390.7z M2822.5,3199.9c0-0.3,0-0.6,0-0.9v-31.6
			h-596.1v32.4c-2.4,49.8,64.8,88.3,121.6,111.9c60.2,25,122,38.5,133.1,40.8h86.1c0.2,0,0.5,0,0.7,0c10.9-2.3,72.8-15.8,133.1-40.9
			C2757.7,3288.2,2824.9,3249.7,2822.5,3199.9z M2524.5,3979.1c-674.3,0-1222.9-548.6-1222.9-1222.9c0-205.1,51.8-408.1,149.9-587
			c3.5-6.3,10-9.9,16.7-9.9c3.1,0,6.2,0.8,9.1,2.4c9.2,5,12.6,16.6,7.5,25.8c-95,173.3-145.2,369.9-145.2,568.7
			c0,647,521.2,1174.4,1165.8,1184.6v-435.7c-26.2-7.7-45.4-31.8-45.4-60.4V3387c-24.6-5.7-75.2-18.7-126.2-39.8
			c-99.2-41.1-148.2-91.2-145.5-148.1v-50.6c0-10.5,8.5-19,19-19h634.1c10.5,0,19,8.5,19,19v50.1c2.4,57.6-46.5,107.5-145.5,148.5
			c-52.9,21.9-105.5,35.1-128.9,40.4v57.1c0,27.6-17.9,51.1-42.6,59.6v436.6c644.6-10.2,1165.8-537.6,1165.8-1184.6
			c0-198.8-50.2-395.4-145.2-568.7c-5.1-9.2-1.7-20.8,7.5-25.8s20.8-1.7,25.8,7.5c98.1,178.9,149.9,381.9,149.9,587
			C3747.3,3430.5,3198.8,3979.1,2524.5,3979.1"/>
		<path id="path40" d="M3370.4,2285.1c0-43.4-13-83.9-35.2-117.8l-32.6,195.1c-11.3,67.7-69.3,116.9-138,116.9h-295.3
			c-10.5,0-19-8.5-19-19s8.5-19,19-19h211.1l-62.1-371.6h-534.7c-59.3,0-111.3,43.9-116.8,103c-6.4,67.8,47,125,113.5,125h201.6h0.1
			h0.1h33.6c1.5-0.4,3.1-0.7,4.7-0.7s3.2,0.3,4.7,0.7h257.2c10.5,0,19,8.5,19,19s-8.5,19-19,19h-242.9v323.4
			c0,104.8,85.3,190.1,190.1,190.1h250.8c104.8,0,190.1-85.2,190.1-190.1L3370.4,2285.1z M3266.6,2100.9
			c-32.6-19.8-70.8-31.2-111.6-31.2h-98.1l62.1,371.6h45.7c50,0,92.3-35.8,100.5-85.1l37.9-227.2
			C3291.9,2118.4,3279.8,2109,3266.6,2100.9L3266.6,2100.9z M2555.7,2441.3c50,0,92.3-35.8,100.5-85.1l3.4-20.4h-167.4l17.6,105.6
			L2555.7,2441.3z M3180.3,2887.3h-250.8c-125.8,0-228.1-102.3-228.1-228.1v-323.4h-3.4l-4.4,26.7c-11.3,67.7-69.3,116.9-138,116.9
			h-295.3c-10.5,0-19-8.5-19-19s8.5-19,19-19h210.9l-18.2-108.8c-67.6-13.7-121.2-70.2-124.7-141.1c-2.9-60.1,29.2-113.1,77.7-140.3
			l-37-221.9c-1.7-10.4,5.3-20.2,15.6-21.9c1.1-0.2,2.1-0.3,3.1-0.3c9.1,0,17.2,6.6,18.7,15.9l35.7,213.8c12.2-3.2,24.9-5,38-5
			h230.1L2745,1823c1.6-9.3,9.6-15.9,18.7-15.9c1,0,2.1,0.1,3.1,0.3c10.4,1.7,17.4,11.5,15.6,21.9l-33.8,202.5h263l-33.9-202.5
			c-1.7-10.3,5.3-20.2,15.6-21.9c1.1-0.2,2.1-0.2,3.1-0.2c9.1,0,17.2,6.6,18.7,15.9l34.9,208.8h105c5.1,0,10.2,0.2,15.3,0.5
			c1.5,0.1,3.1,0.2,4.6,0.3c3.7,0.3,7.3,0.6,10.9,1.1c1.6,0.2,3.1,0.4,4.7,0.6c4.1,0.6,8.2,1.3,12.3,2c0.8,0.2,1.6,0.3,2.4,0.4
			c4.9,1,9.8,2.1,14.5,3.4c1.1,0.3,2.2,0.6,3.3,0.9c3.7,1,7.4,2.2,11.1,3.4c1.3,0.4,2.7,0.9,4,1.4c3.8,1.3,7.5,2.7,11.1,4.2
			c0.9,0.4,1.8,0.7,2.7,1c4.6,1.9,9.2,4,13.7,6.2c0.3,0.2,0.6,0.3,0.9,0.5c4.1,2,8.1,4.2,12.1,6.4c0.9,0.5,1.9,1.1,2.8,1.6
			c3.6,2.1,7.1,4.2,10.5,6.4c0.7,0.5,1.4,0.9,2.2,1.4c5.6,3.7,10.9,7.6,16.1,11.7L3354,1823c1.6-9.3,9.6-15.9,18.7-15.9
			c1,0,2.1,0.1,3.1,0.2c10.4,1.7,17.4,11.5,15.6,21.9l-47.9,287.2c2.8,3.1,5.6,6.3,8.2,9.6c0.1,0.1,0.1,0.1,0.2,0.2
			c3.1,3.8,6.1,7.8,8.9,11.8c0.3,0.5,0.7,1,1,1.4c29.1,41.3,46.3,91.6,46.3,145.8v374.1C3408.4,2784.9,3306.1,2887.3,3180.3,2887.3"
			/>
	</g>
</g>
</svg>
